<?xml version="1.0" standalone="no"?>
<!DOCTYPE svg PUBLIC "-//W3C//DTD SVG 1.1//EN" "http://www.w3.org/Graphics/SVG/1.1/DTD/svg11.dtd" >
<svg xmlns="http://www.w3.org/2000/svg">
<metadata></metadata>
<defs>
<font id="dearjoe_6regular" horiz-adv-x="1259" >
<font-face units-per-em="2048" ascent="1536" descent="-512" />
<missing-glyph horiz-adv-x="684" />
<glyph unicode="&#xfb01;" horiz-adv-x="1372" d="M-254 -823q0 23 4 39q3 14 10 16q2 2 7 2q5 -3 14 -10.5t17.5 -12t15.5 -4.5q95 0 311 691q4 13 30.5 99.5t48 157.5t47 156.5t40 141t14.5 67.5q0 22 -13.5 37t-29.5 22.5t-29.5 22.5t-13.5 37q0 19 35.5 38t74 31.5t40.5 14.5q3 2 51.5 139.5t105 295.5t72.5 194 q81 179 203 342q5 6 18.5 15.5t42.5 18.5t60 5q200 -43 200 -269q0 -42 -39.5 -160t-81.5 -118q-26 0 -52.5 42.5t-26.5 57.5q0 6 11.5 39t27 79.5t22.5 76.5q4 11 4 98q-2 2 -5.5 8t-7.5 9t-11 3q-30 0 -88.5 -87.5t-103 -175t-66.5 -140.5q-88 -223 -146 -416 q25 2 103.5 13.5t142 19t146.5 7.5t143 -15q39 0 83 -65t44 -85q0 -39 -78 -205t-78 -210q-2 -6 -2 -21q0 -27 2 -37q1 -3 2.5 -4.5t2 -3t2.5 -2.5l3 -1.5t3.5 -0.5h4h5.5h6q39 0 148 48t165 85q19 25 43 35q10 6 18 2.5t12 -18.5t-1 -46l-88 -92q-56 -53 -131 -91t-119 -50 t-60 -12q-34 0 -69 37q-43 43 -51 61q-27 49 -36.5 75.5t-9.5 61.5q1 26 38 124t74 184t38 85v21l-12 14q-15 5 -33.5 7t-31 1.5t-25.5 -1.5l-13 -1q-66 0 -258.5 -50.5t-199.5 -71.5q-146 -422 -226 -709q-6 -17 -41 -133.5t-74 -233t-87 -243.5t-97 -207t-86 -80 q-42 0 -88.5 71.5t-46.5 102.5v31zM1264 1200q128 55 329 55q20 0 63 -15.5t58 -37.5l6 -12q3 -14 -6 -23q-7 -4 -88 -4q-76 -28 -108 -45q-15 -6 -45.5 -19t-52 -21.5t-29.5 -8.5h-37q-27 0 -61 51t-29 80z" />
<glyph unicode="&#xfb02;" horiz-adv-x="1499" d="M-76 -838l103 559q6 0 14 -3.5t19.5 -10t15.5 -8.5q4 0 7.5 3.5t8 9t6.5 7.5q58 188 250 756q-11 6 -102 -26q-25 -11 -48.5 -30.5t-27.5 -35.5q-2 -5 9 -18.5t16.5 -27t-9.5 -38.5q-42 25 -86.5 80.5t-44.5 85.5q0 35 48.5 63t107.5 42t115.5 29.5t66.5 27.5q9 9 19 32 q22 50 41 99l41 102q43 93 184 440q110 225 180 340q10 15 26 34t44 41t49 22q38 0 70 -33.5t50 -79t28 -85t10 -58.5q0 -28 -3.5 -61t-15 -78t-29.5 -80t-50.5 -59.5t-75.5 -24.5h-31q-4 0 -6 2q-4 4 -4 16q0 2 19 31.5t38.5 80t19.5 103.5q0 36 -16 98q-2 3 -2.5 5t-1 2 h-10.5q-25 0 -95 -136l-73 -153q-22 -46 -94 -215q-51 -124 -62 -158l-63 -182q1 -4 53 8q14 4 45.5 17t34.5 14q41 11 79 23t64.5 21t60 22t49 19.5t50 21.5t47.5 20q93 42 137 71q65 41 74 56l43 84q53 97 110 188q106 170 160 170q44 0 71.5 -44t27.5 -83q0 -27 -13 -58 t-28.5 -56t-47 -60.5t-51.5 -55.5t-59 -58t-53 -52q-24 -28 -102 -194.5t-153 -369t-75 -288.5q0 -21 11 -30t24 -9q7 0 40 22.5t44 22.5q9 0 9 -3t9 -3q12 0 108 79.5t183 156.5q-11 -25 -12 -45q13 -3 32 13.5t24.5 35t-13.5 30.5q54 66 112 105q19 -19 19 -39 q0 -46 -73 -134.5t-167 -171t-185.5 -144.5t-127.5 -62q-43 0 -80 28t-58 67t-33 75.5t-12 58.5q0 61 84 301q19 52 44.5 116t52 130t32.5 80q-180 -90 -282 -129q-86 -34 -209 -74t-154 -55q-9 -3 -77 -205l-93 -276q-197 -578 -258 -910q0 -2 -3.5 -16t-6 -23.5t-8 -24 t-11 -23.5t-14 -16t-18.5 -7q-37 0 -75 65t-38 88z" />
<glyph horiz-adv-x="0" />
<glyph horiz-adv-x="682" />
<glyph unicode="&#xd;" horiz-adv-x="684" />
<glyph unicode=" "  horiz-adv-x="684" />
<glyph unicode="&#x09;" horiz-adv-x="684" />
<glyph unicode="&#xa0;" horiz-adv-x="684" />
<glyph unicode="!" horiz-adv-x="653" d="M166 76q13 13 36.5 28t35.5 15q40 0 81 -27t41 -51q0 -31 -25.5 -57.5t-49.5 -26.5q-38 0 -75.5 45t-43.5 74zM344 674q0 13 11.5 56t21.5 65q2 4 9.5 22t11.5 27t11 27.5t10 31.5t6 29.5t2.5 31.5t-3.5 29q6 6 24.5 18t26.5 21q4 118 39.5 257t67.5 208q8 12 43.5 0 t68.5 -41.5t33 -60.5q0 -19 -19.5 -85t-49 -150.5t-56.5 -161.5t-50 -140l-24 -63q-11 -17 -53.5 -101t-71.5 -114q-27 -4 -43 35t-16 59z" />
<glyph unicode="&#x22;" horiz-adv-x="604" d="M227 1239q5 44 33 138.5t74 186t86 87.5q26 0 69.5 -40.5t26.5 -66.5q-45 -61 -102.5 -178.5t-81.5 -181.5q-19 -27 -59.5 -1t-45.5 56zM461 1252v3q4 28 19.5 83t41 126t62.5 121t75 47q21 0 58 -29t37 -44t-70 -105q-69 -117 -98 -219q-3 -23 -13 -39q-21 -34 -49 -25 q-64 15 -63 81z" />
<glyph unicode="#" horiz-adv-x="946" d="M88 934q1 17 17 32t30 15q8 0 57.5 -3t57.5 -3t69 178q-3 3 -4 6.5t-3.5 4.5t-10.5 1q-7 0 -37.5 -3.5t-40.5 -2.5q-32 1 -63 26t-45 52l4 29q4 2 7.5 4t5 2.5t5 1t10.5 0.5q106 0 228 16q9 17 18 42.5t15.5 42t18 33.5t31.5 25.5t50 8.5q6 0 45.5 -23t46.5 -35 q3 -7 -11 -29.5t-14 -35.5q11 -3 25 -2.5t36.5 3.5t27.5 3q13 2 28 37t28.5 76t43 73.5t67.5 30.5q25 -2 52 -18.5t37 -38.5q3 -8 -8.5 -34t-28.5 -62t-23 -56q66 -4 80.5 -8t34.5 -20q6 -12 6 -23v-10q-6 -27 -61 -39t-91 -12q-35 0 -120 -226q15 0 45.5 1.5t49.5 0 t40 -7.5q16 -12 14 -29.5t-14 -31.5q-12 -5 -38.5 -16.5t-44.5 -19t-24 -7.5q-10 0 -13.5 2t-4.5 6.5t-4 7.5q-8 -18 -41 -37q-23 -81 -43 -227q-21 -21 -43 -21q-27 0 -67 33.5t-40 59.5q0 16 9 64t20 79l-37 -4q-73 -9 -94 -10q-9 -14 -12 -47.5t-15 -53.5t-47 -20 q-49 0 -77.5 50t-14.5 83q-3 1 -22 8t-27 10.5t-24.5 12t-24.5 15.5t-16.5 17.5t-10.5 22.5zM428 975q15 0 29 2l22 4q14 0 32.5 2t29.5 2q17 36 43.5 107t40.5 104q-21 -4 -59.5 -9.5t-51.5 -8.5q-30 -40 -61 -127q-3 -9 -10 -26.5t-11.5 -30.5t-3.5 -19z" />
<glyph unicode="$" horiz-adv-x="1128" d="M63 418q0 18 5.5 47t17.5 64t36.5 60t55.5 25q34 0 47 -22t11 -57.5t-8.5 -78t-5 -85.5t15 -78.5t57.5 -57.5t117 -22h34q20 0 66 12.5t105.5 37.5t113 57t90.5 78t37 94q0 41 -42 105.5t-104.5 132t-136 148t-136 153t-104.5 148.5t-42 134q0 36 36 64t87 42t92 20.5 t63 6.5q8 0 24 -1t28 -1q6 69 24 121q44 120 119 127q39 4 65.5 -22.5t26.5 -49.5q0 -12 -35 -88t-43 -111q197 -68 197 -176q0 -34 -32 -68t-74.5 -56t-80 -36t-51.5 -14q-23 0 -70.5 39t-47.5 61q0 23 12.5 30.5t43.5 13.5t54 18q-3 6 -8 11t-9.5 8.5t-13 5.5t-13 3.5 t-14.5 2t-13.5 0.5h-15h-13.5q-137 0 -137 -47q0 -46 58 -125t141 -166.5t166.5 -176.5t141.5 -176t58 -145q0 -69 -93.5 -151t-211 -140.5t-211.5 -81.5q-22 -38 -28.5 -89t-7.5 -116t-7 -100q-14 -10 -43 -6l-25 6q-36 25 -70 61t-34 66q0 10 7 43t16.5 78t13.5 72 q-157 43 -229.5 130t-72.5 218z" />
<glyph unicode="%" horiz-adv-x="1468" d="M164 915q0 89 89 213.5t210 245.5q-3 15 0 21q4 5 8.5 9t10.5 7t11 5t13.5 3.5t12.5 2t14 1t13 0.5h13.5h11.5q38 0 101 -84t63 -110q0 -35 -20.5 -100t-60.5 -141.5t-89.5 -145t-115 -114.5t-130.5 -46q-33 0 -64 31t-50 72t-30 77.5t-11 52.5zM311 842q97 49 176.5 153 t87.5 189q-8 0 -19.5 5t-20.5 5q-36 0 -94.5 -76t-98 -162t-31.5 -114zM324 66q0 35 41.5 99.5t74.5 102.5q17 32 131 244.5t162 318.5q48 102 69 147t63.5 128.5t71.5 127t50 56.5q4 49 57 129t78 80q21 0 66 -31t45 -57q0 -4 -63.5 -105.5t-146.5 -238t-118 -207.5 q-139 -282 -305 -598q-2 -4 -39 -90t-77 -150.5t-72 -64.5q-33 0 -60.5 44.5t-27.5 64.5zM797 223q0 95 109.5 255t221.5 263q63 5 128 -37t99 -106.5t13 -118.5q0 -2 9 -4.5t9 -15.5q0 -76 -32 -161t-84 -155.5t-125.5 -116.5t-149.5 -46h-26q-41 0 -76 32t-54.5 75.5 t-30.5 80.5t-11 55zM936 150q0 -18 16 -50q70 21 142 94t116.5 161t44.5 155q0 26 -11 49t-30 23q-38 0 -106 -88t-120 -193t-52 -151z" />
<glyph unicode="&#x26;" horiz-adv-x="1284" d="M123 184q-2 47 47 125.5t134 171.5t158 166.5t160 155.5t99 94q-6 40 -9.5 92t-3.5 134.5t16 168.5t48 150q6 12 17 36.5t17 35.5t16.5 29t19.5 26.5t22 18.5t29 14t35 4q65 0 116 -47t74 -105t23 -108q0 -155 -133 -365q-61 -99 -131 -180q-1 -20 0 -45.5t5.5 -59.5 t8 -59t11 -67.5t11 -60t12 -61t9.5 -47.5q29 38 72.5 113t74 125.5t41.5 50.5q29 0 70 -34t41 -64q0 -48 -59.5 -144.5t-119 -175t-59.5 -82.5q0 -12 27 -117t27 -116q0 -18 2.5 -43.5t2 -41.5t-6.5 -30q-8 -10 -37 -6l-29 6q-10 0 -20.5 5t-23 14.5t-15.5 11.5 q-5 20 -17.5 98.5t-30.5 124.5q-22 -10 -75 -46t-82 -48q-62 -25 -142.5 -38t-113.5 -13q-36 0 -88 13t-109.5 38.5t-98 73.5t-42.5 108zM270 125q0 -17 16.5 -32t35.5 -15q12 0 48 -2t48 -2q97 0 222.5 63.5t184.5 153.5l-86 379q-31 -24 -138 -130.5t-219 -238 t-112 -176.5zM852 1018q47 39 102.5 187.5t55.5 219.5q0 15 -6 21q-2 2 -7 2q-44 -19 -75 -69t-46 -114.5t-20.5 -126.5t-3.5 -120z" />
<glyph unicode="'" horiz-adv-x="362" d="M160 1272q0 22 20 108t56.5 174t70.5 88q49 0 78 -27t29 -50q0 -7 -6 -23t-18.5 -43.5t-18.5 -40.5q-37 -67 -52.5 -113t-21 -89t-10.5 -62q-4 -8 -15.5 -13.5t-20 -7.5t-11.5 -2q-22 0 -37.5 6t-23.5 15t-12.5 24t-5.5 26.5t-1 29.5z" />
<glyph unicode="(" horiz-adv-x="802" d="M4 549q0 170 96.5 366.5t251 362.5t326.5 262l20 14q21 14 41 26.5t43.5 24t36.5 11.5h8q1 0 0 -2t1 -3.5t8 -0.5l14 10q15 12 27 12q44 0 100.5 -30.5t56.5 -69.5q0 -4 0.5 -11.5t0.5 -11.5t-2 -11.5t-7 -16.5q-24 -14 -77.5 -12t-80.5 -9q-184 -92 -346.5 -256.5 t-263 -367t-100.5 -387.5q0 -70 21 -152.5t72.5 -166t123.5 -116.5q24 -18 16 -28q-8 -19 -14 -25q-4 -4 -8 -4l-35 -2q-44 0 -117 62t-106 124q-107 207 -107 408z" />
<glyph unicode=")" horiz-adv-x="1075" d="M174 -35q0 23 35 46.5t57 23.5q10 0 10 -2v-5q2 -1 9 -1q13 0 13 8.5t3 13.5q34 14 67.5 30t91 53.5t106 81t103.5 113.5t94 150.5t66.5 193.5t30.5 240q0 174 -66.5 341.5t-220.5 299.5q-25 18 -53 62l-8 31q-10 28 0 45l14 4q18 4 37 -2q17 -5 137 -90 q94 -86 167.5 -223.5t108 -267t34.5 -230.5q0 -132 -29.5 -263.5t-83.5 -232.5q-4 -6 -29 -52.5t-39 -64.5q-65 -94 -153 -174t-167.5 -126t-145.5 -70.5t-101 -20.5q-25 0 -56.5 38t-31.5 50z" />
<glyph unicode="*" horiz-adv-x="958" d="M104 1001q0 27 55 65t120.5 70.5t68.5 34.5q-135 182 -135 209q0 19 11 28.5t18.5 10t21.5 0.5q10 0 20.5 -4t23 -13t22 -17.5t24 -25t22.5 -26t23.5 -30t21.5 -29t21.5 -30.5t18.5 -27q7 11 45.5 104.5t78 170.5t62.5 77q41 0 73 -36t32 -65q0 -13 -19.5 -51t-45 -81.5 t-30.5 -53.5q66 20 165 45t114 25q30 0 92 -62v-39q-66 -31 -170 -70.5t-119 -39.5q-8 0 -9 2q0 1 1 2q-4 3 -8 4q-33 0 -100 -55q2 -23 36 -52.5t73 -53t71.5 -51.5t32.5 -48q0 -13 -4.5 -17t-4.5 -6q-22 -12 -51 -12q-44 0 -215 119q-24 -4 -31.5 -33.5t-15 -60 t-31.5 -37.5l15 -13q15 0 0 -21q-19 -26 -21 -34q4 -15 5.5 -30.5t1.5 -38.5t-11 -37.5t-33 -14.5q-44 0 -76 49.5t-32 81.5q0 12 19.5 79.5t39.5 119.5q2 0 2 2q0 4 -16 4q-7 0 -78 -42t-82 -42t-62 39t-51 57z" />
<glyph unicode="+" horiz-adv-x="944" d="M70 569q-4 19 4 29q36 6 92 10.5t137.5 9t126.5 7.5q20 24 41.5 111.5t40.5 160t35 72.5q127 0 127 -103q0 -8 -49 -229l98 -6q98 -12 129 -23t45 -37v-28q-7 -18 -32 -28.5t-43 -12.5t-31 -2q-134 0 -209 -11q-37 -82 -65 -188.5t-45.5 -155.5t-47.5 -49q-28 0 -65 52 t-37 75q0 10 32.5 116t32.5 116q0 8 -2.5 13.5t-4.5 8.5t-8 4.5t-8 1.5h-10h-8q-10 0 -93 -7t-93 -7q-14 0 -41 28.5t-45 55.5z" />
<glyph unicode="," horiz-adv-x="425" d="M70 -162q0 6 27 48.5t60.5 99.5t45.5 92q0 2 4.5 28t9.5 43.5t19.5 34.5t35.5 17q47 -1 78 -29.5t31 -62.5q0 -60 -78 -167t-141 -132q-38 -18 -58.5 -12t-27 16.5t-6.5 23.5z" />
<glyph unicode="-" horiz-adv-x="1097" d="M135 614q9 15 215 27q111 8 205 10l19 -1h36.5t28.5 1q6 1 69 -0.5t103 2.5l16 19q33 -9 50 -39q1 1 3 4.5t2.5 4.5t3 3.5t5 3.5t6.5 2.5t10 1.5q17 1 54 -12.5t63 -30.5q5 -9 5 -17t-1.5 -11t-8 -11.5t-7.5 -9.5q-40 4 -71 -5.5t-46 -21.5t-16 -12q-9 -1 -21.5 6.5 t-21.5 6.5q-12 0 -28.5 -14.5t-27.5 -14.5l-557 -45q-41 4 -70 65.5t-18 87.5z" />
<glyph unicode="." horiz-adv-x="430" d="M123 37q3 12 10 22t12.5 15.5t26.5 23.5q9 9 26 20.5t25 18.5q23 12 75.5 -2.5t59.5 -36.5q8 -27 -11 -61t-62 -64q-80 -55 -142 21q-4 2 -12 14q-10 17 -8 29z" />
<glyph unicode="/" horiz-adv-x="800" d="M141 18q15 101 369 816q0 -3 36 76.5t77 173t53 124.5l180 402l29 10q37 0 70.5 -44.5t33.5 -78.5q0 -24 -475 -1003q-8 -16 -44.5 -91.5t-45 -94.5t-36.5 -79t-37.5 -87t-27 -73.5t-27.5 -83.5t-17 -75q-20 -28 -52 -25q-34 0 -62.5 58t-23.5 75z" />
<glyph unicode="0" horiz-adv-x="1058" d="M68 260q0 98 71 247.5t168 282t205 228.5t176 96q71 0 128 -35.5t90.5 -89.5t55.5 -122t29 -131t4 -118q-5 -49 -30.5 -124.5t-77 -170.5t-118.5 -177.5t-166.5 -143.5t-209.5 -70q-120 0 -222.5 102.5t-102.5 225.5zM246 203q0 -6 3.5 -25.5t11.5 -48t24.5 -49.5 t38.5 -21q93 4 196 82.5t156 151.5q85 115 128.5 279t12.5 288q-5 22 -23 47t-34 25q-101 0 -223 -130.5t-204.5 -303t-86.5 -295.5z" />
<glyph unicode="1" horiz-adv-x="604" d="M66 25q0 7 13.5 40t34.5 82.5t31 77.5q59 155 195 539q-62 -51 -98 -72q-14 -7 -43 -7.5t-60 9.5q6 31 119.5 174.5t136.5 155.5q10 7 39 4l12 29q14 14 39 14q45 0 88 -27.5t39 -58.5q-3 -19 -41.5 -98t-40.5 -88q-18 -44 -99 -278.5t-151.5 -409t-101.5 -174.5 q-35 0 -75.5 26.5t-36.5 61.5z" />
<glyph unicode="2" horiz-adv-x="1005" d="M35 55q0 19 313 273q33 27 90 90.5t100.5 110t57.5 46.5q20 51 73 122t105.5 144t73.5 130q-3 4 -1 6.5t-0.5 4.5t-12.5 5q-64 7 -180.5 -52t-206 -130t-93.5 -100q-2 -11 -2 -49.5t-6 -57.5q-22 -27 -45 -25q-43 4 -73.5 72.5t-30.5 97.5q7 69 66 134.5t142 112.5 t174.5 82t169.5 50.5t121 10.5q54 -5 111 -57t53 -103q-4 -56 -56 -136t-120.5 -160t-75.5 -91q-37 -52 -108 -137.5t-115 -133.5q-25 -30 -114 -116t-107 -119q334 -14 401 -14q25 0 80 -33.5t66 -65.5q-13 -2 -59.5 -14t-59.5 -12q-101 9 -335.5 -10t-256.5 -17 q-10 1 -28.5 7.5t-26.5 8.5q-23 0 -53.5 53.5t-30.5 71.5z" />
<glyph unicode="3" horiz-adv-x="966" d="M-35 61q6 51 51 45q7 0 22.5 -32.5t45 -67.5t68.5 -39q44 -5 110.5 4.5t141.5 34.5t141.5 61.5t113.5 91.5t54 117q12 154 -154 216q-23 10 -54 15t-75.5 9.5t-73.5 9.5q-16 13 -31.5 51.5t-15.5 59.5q3 33 45 73t99.5 77.5t114.5 73.5t97.5 72t41.5 62 q-181 -29 -261 -57q-33 -11 -55.5 -26.5t-30 -26.5t-19 -18t-28.5 -5q-28 4 -52.5 59.5t-24.5 75.5q8 95 565 136q70 8 125 -3q14 0 40.5 -44.5t26.5 -61.5q-5 -24 -199 -179.5t-233 -180.5l78 -31q58 -36 88.5 -57.5t67.5 -56.5t53 -68.5t24.5 -84t1.5 -112.5 q-9 -84 -61.5 -157.5t-126 -122.5t-158.5 -84t-163 -49t-136 -9q-25 2 -58.5 11.5t-72 28.5t-69.5 44.5t-50 63.5t-14 81z" />
<glyph unicode="4" horiz-adv-x="1026" d="M-20 168q0 11 68.5 91.5t160.5 187t127 151.5q68 86 108 139.5t96 145t97 184.5q14 35 53 35q21 0 41.5 -11.5t31.5 -23t28 -34t22 -27.5q5 9 20.5 37t23.5 42.5t19 37t17 40.5l51 -2q5 0 24 -10t40 -29t24 -37l-313 -723q39 1 76 5t51 4q5 0 24 -0.5t25 -1t21.5 -2 t24.5 -3.5t21.5 -6t24.5 -10q16 -11 17.5 -24.5t-5.5 -32.5q-54 -33 -90 -33q-10 0 -112.5 -19t-114.5 -22q-11 -3 -28.5 -42t-39 -97.5t-30.5 -77.5q-5 -10 -17 -38t-19 -41t-21 -27t-31 -17q-20 -3 -21.5 -2.5t-21.5 12.5q-33 20 -60 78l74 203v2q0 6 -4 10 q-25 -4 -74 -9.5t-89.5 -13t-80.5 -22.5q-17 -6 -51.5 -21.5t-60.5 -26.5t-35 -11q-21 0 -56.5 28.5t-35.5 63.5zM319 305q116 33 230 45l203 504q-114 -122 -239.5 -278.5t-193.5 -270.5z" />
<glyph unicode="5" horiz-adv-x="956" d="M-12 55q0 39 44 144.5t85 105.5q23 0 37 -36t14 -60q0 -8 -15.5 -96.5t-15.5 -96.5q0 -29 18 -44t48 -15q8 0 12 1t16 1q71 0 196 91.5t159 133.5q38 54 47.5 83t9.5 77q0 47 -19 83.5t-51 57t-69 31t-76 10.5q-8 0 -32.5 -4t-33.5 -4q-42 0 -82 40t-40 83q0 41 46 122 t92 154t46 95q0 7 -6.5 15t-17.5 19t-17 21q-7 8 -3 25.5t9 19.5l303 -2q10 0 83 8t85 8q115 0 115 -51q0 -29 -39.5 -53t-91.5 -36t-91 -18.5t-51 -6.5t-52 5t-52 5l-61 -117q-12 -22 -46 -89.5t-47 -90.5q88 -22 173 -76t142.5 -130t57.5 -151q0 -88 -52.5 -178 t-131.5 -156.5t-176 -108.5t-183 -42q-34 0 -70.5 7t-75.5 24t-70 41.5t-50.5 63.5t-19.5 87z" />
<glyph unicode="6" horiz-adv-x="944" d="M63 227q0 77 101.5 266t233 378.5t263 336t185.5 146.5q32 0 81.5 -32t49.5 -69q-3 0 -104.5 -102t-218 -237.5t-142.5 -202.5q133 -23 211 -102.5t78 -188.5q0 -65 -37 -157.5t-96 -179.5t-145.5 -148.5t-174.5 -61.5q-54 0 -101.5 23.5t-80.5 61t-56.5 84.5t-35 94.5 t-11.5 90.5zM231 115q0 -15 1.5 -29.5t6.5 -36.5t18 -35.5t32 -13.5q49 0 113 55t117 131t92.5 157.5t45.5 133.5q0 47 -36 86q-22 17 -56.5 27t-52.5 10q-68 0 -86 -20q-38 -46 -87.5 -133t-64.5 -109q-43 -90 -43 -223z" />
<glyph unicode="7" horiz-adv-x="1003" d="M-29 -621q0 23 93 153t94 132q6 12 50 97.5t82 161t71.5 153t33.5 100.5q0 10 -21.5 26t-25.5 23q-2 4 -11 18t-13 21t-8.5 18t-4.5 19q0 19 26 35t58 24.5t60.5 16.5t31.5 12q43 75 115.5 224.5t99.5 201.5q-108 14 -223 -4q-1 0 -18 -2.5t-27 -4t-30 -5t-34 -6.5 t-33.5 -7.5t-32.5 -9.5t-25.5 -11t-19.5 -13t-9 -15q7 -9 18.5 -23t18 -22t11.5 -17.5t5 -15.5q0 -17 -13.5 -31t-27.5 -14q-41 0 -80.5 31.5t-66 74.5t-43 82t-19.5 60q19 45 89 66t147 21t177.5 2.5t154.5 13.5q245 57 251 57q26 0 77.5 -35.5t51.5 -56.5q0 -9 -43 -64.5 t-91 -114.5t-54 -69q-64 -104 -135 -272q2 -2 3 -4.5t1 -3.5t1 -2.5t4.5 -2t10.5 -0.5l25 1q25 0 44 -0.5t50.5 -2t54.5 -7t45.5 -13.5t35 -23t12.5 -35q0 -11 -0.5 -14.5t-4.5 -5.5t-6 -4q-53 -17 -69 -17q-11 0 -51 -2t-52 -2q-40 0 -104.5 -12.5t-75.5 -30.5 q-14 -22 -39 -75t-56.5 -125.5t-49.5 -110.5q-4 -8 -15 -31q-304 -628 -376 -628q-36 0 -65.5 46.5t-29.5 73.5z" />
<glyph unicode="8" horiz-adv-x="917" d="M84 199q8 101 81.5 214.5t168.5 161.5q-16 43 -44.5 97.5t-47 90.5t-31.5 86.5t-10 100.5q5 73 79.5 128.5t164 78t159.5 17.5q38 -3 82 -13.5t98.5 -33t96.5 -53.5t68.5 -80t21.5 -107q-4 -48 -47 -113t-100 -124.5t-113 -113t-93.5 -91t-35.5 -46.5q0 -9 14 -61.5 t25.5 -121.5t7.5 -122q-4 -40 -27.5 -89t-60 -93t-89.5 -71t-108 -21q-77 8 -140.5 70t-94 146t-25.5 163zM244 115q-4 -53 9.5 -94.5t37.5 -55.5q62 3 106 43.5t60.5 87.5t13.5 86q0 21 -23.5 111t-41.5 115q-65 -53 -110.5 -136.5t-51.5 -156.5zM365 885q-4 -37 20 -101 t60 -132.5t40 -78.5q24 29 85.5 85.5t112.5 103t91.5 106t38.5 105.5q-25 46 -106 53q-25 3 -76 -3t-111 -19.5t-106 -45t-49 -73.5z" />
<glyph unicode="9" horiz-adv-x="909" d="M80 373q0 61 30 147t85.5 176t124 167.5t156 127t171.5 49.5q73 0 149 -69t76 -135q0 -57 -58 -258t-137 -421t-170 -393.5t-147 -173.5q-26 0 -64 18.5t-38 45.5q0 1 71 131t141.5 278t70.5 195q-7 -3 -50.5 -35.5t-91 -61t-73.5 -28.5q-9 0 -26 -4t-26 -4 q-52 0 -92.5 29.5t-61 72.5t-30.5 81t-10 65zM227 315q0 -21 19 -59q120 50 225 162.5t165.5 239t72.5 237.5q-35 24 -116.5 -34t-161.5 -152t-142 -207t-62 -187z" />
<glyph unicode=":" horiz-adv-x="610" d="M145 96q3 6 6.5 11.5t8.5 9t9.5 6t11 4t10 2.5t11 1.5t10.5 0.5h10.5h8.5q51 0 89 -43t38 -74q0 -28 -28 -51.5t-49 -23.5q-68 0 -103 46t-33 111zM397 844q0 11 2 19.5t7.5 14.5t10 10.5t14 7t15 4.5t18.5 2.5t18 0.5h19.5h18.5q29 0 66 -51t37 -66q0 -24 -26.5 -61 t-47.5 -37q-30 0 -91 62t-61 94z" />
<glyph unicode=";" horiz-adv-x="606" d="M90 -184q0 1 31.5 70t68 157t46.5 131q7 27 45 27q46 0 87.5 -25t41.5 -63q0 -26 -47.5 -117.5t-116 -177.5t-113.5 -86q-40 0 -43 18q-11 18 0 66zM360 815q0 2 5 29l6 16q21 21 49 21q33 0 90 -37t57 -66q0 -33 -33 -58.5t-59 -25.5q-34 0 -74.5 45t-40.5 76z" />
<glyph unicode="&#x3c;" horiz-adv-x="909" d="M182 477q-4 20 134.5 143.5t284.5 238t163 114.5q34 -5 84.5 -39.5t46.5 -56.5q-2 -13 -123 -110.5t-242 -204t-124 -142.5q-4 -28 25 -78t73.5 -104t89.5 -107t75.5 -98t28.5 -66q-2 -14 -18.5 -22t-28 -9.5t-18.5 -1.5q-57 6 -139.5 87.5t-149 179.5t-114.5 180.5 t-48 95.5z" />
<glyph unicode="=" horiz-adv-x="1251" d="M156 713q14 3 30 3.5t29.5 -1t25 -3.5t18.5 -4l7 -1q14 0 92 20.5t91 20.5q11 0 27 -5.5t30 -5.5q16 0 16 6.5v10.5q27 8 78 7t78 1q204 18 205 18q13 0 37 -11t38 -11q11 0 25.5 6t28.5 6q21 0 68 -16.5t63 -34.5q15 -12 18 -39q2 -8 2 -25q-80 -29 -173.5 -43t-216 -22 t-187.5 -17q-36 -4 -105.5 -16.5t-124 -22.5t-63.5 -10q-38 0 -83.5 76t-53.5 113zM281 426q0 14 2 20q3 18 14 25q45 -3 128.5 -10.5t148.5 -14t77 -6.5q26 3 128 21t116 18q33 0 104.5 -22t81.5 -51q-2 -2 -14 -14.5t-18 -18t-16.5 -14t-19.5 -12t-18 -3.5q-12 0 -50 1 t-54 1q-9 0 -42 -13.5t-83 -32t-92 -28.5q-75 -18 -119 -18q-50 0 -91 11t-66 24.5t-50 41.5t-35.5 44t-31.5 51z" />
<glyph unicode="&#x3e;" horiz-adv-x="942" d="M129 90q18 11 85 47.5t133 74t135.5 80t114 80t46.5 60.5q0 19 -77.5 125t-172 234t-121.5 182q-9 24 -10.5 35.5t10.5 33.5l31 5q31 -3 99.5 -79t137.5 -171t157 -213.5t139 -177.5q13 -16 10 -48q-4 -40 -155 -143t-301.5 -187.5t-164.5 -84.5q-54 4 -84.5 58t-11.5 89 z" />
<glyph unicode="?" horiz-adv-x="1019" d="M244 1389q1 32 19.5 57t42.5 40t63 26t65.5 16t66.5 7.5t50 2.5h31q61 3 149.5 -20.5t173.5 -65t145 -108t60 -138.5q0 -62 -50 -128t-110 -115q-89 -74 -185.5 -139t-155.5 -99.5t-109 -69t-70.5 -67t-15.5 -72.5q0 -4 3.5 -17.5t5.5 -24.5t0.5 -23.5t-7.5 -18.5 q-2 -1 -5.5 -4t-10 -5.5t-17.5 -2.5q-28 0 -49.5 17t-32 42.5t-15.5 47t-5 36.5q0 58 36.5 115t95 105t129.5 95t142.5 92t131 89t97 93t39.5 97q0 48 -66.5 83t-148.5 47.5t-153 9.5q-162 -22 -162 -95q0 -12 27.5 -58t27.5 -58q0 -15 -15.5 -33.5t-31.5 -18.5 q-43 0 -88.5 52.5t-71.5 114t-26 96.5zM299 90q0 23 13 37t34 14q63 0 106.5 -46t43.5 -89q0 -16 -28.5 -37.5t-41.5 -21.5q-50 0 -88.5 53t-38.5 90z" />
<glyph unicode="@" horiz-adv-x="1937" d="M78 190q0 138 104.5 318.5t204.5 253.5q3 2 18 23.5t29 21.5l17 -10q0 39 28 100q2 -2 4 -5t19 -3l24 27q24 26 69 69t105.5 95t141.5 104.5t168 95.5t194.5 69.5t212.5 26.5q228 0 349.5 -118t121.5 -324q0 -162 -43 -312.5t-147 -302t-264 -268.5q-80 -57 -129 -57 q-60 0 -116.5 32.5t-119.5 118.5q-24 -16 -76 -53t-77 -52.5t-67 -30.5t-83 -15q-100 0 -173 64.5t-73 154.5q0 63 52 154t129.5 177.5t160.5 163.5t153 124t99 47q14 0 17 -4.5t4 -4.5l20 11q64 4 141 -54q51 -58 64 -110q26 -4 39 -10q18 -7 27.5 -27t9.5 -41 q0 -17 -12 -45t-36 -66.5t-41.5 -65t-46.5 -68t-34 -48.5q-47 -67 -39 -149q25 -25 59 -25q26 0 54.5 12.5t59 39.5t52 47.5t52.5 60.5t40.5 52.5t34.5 47.5q46 67 105 220.5t59 258.5q0 193 -71 271t-259 78q-98 0 -255 -82t-308 -199.5t-282.5 -252t-186.5 -234.5 q-3 -7 -30 -65.5t-36 -80.5t-26.5 -68.5t-24 -82t-6.5 -68.5q0 -67 27 -120t73 -84.5t96 -53t109 -31t98.5 -13t75.5 -3.5q96 0 173.5 13t120 26.5t52.5 13.5q19 0 41.5 -8t22.5 -23q0 -29 -33 -53t-81.5 -39t-106.5 -27t-107 -17.5t-83 -9.5l-34 -3q-69 0 -151 20.5 t-166 63t-152.5 100t-111.5 139t-43 172.5zM684 182q0 -28 21 -45h28q61 0 128 40.5t124 105t102.5 132t77.5 132.5q6 12 19.5 37t21.5 40t14.5 31.5t6.5 24.5q0 45 -49 45q-61 0 -182.5 -117t-216.5 -249t-95 -177z" />
<glyph unicode="A" horiz-adv-x="1236" d="M18 68q0 43 56 131t112 163.5t56 88.5q0 9 -23 52t-26 60q14 19 86 45q13 3 37 11.5t32 11.5q25 29 45.5 57.5t53.5 78.5t47 71q37 54 114 165t118.5 174t95.5 152t86.5 164.5t49.5 146.5q12 3 23 3q39 -1 77 -31q50 -40 56 -101l-123 -778l219 10q10 0 23.5 -0.5 t37.5 -1.5t50 -2q24 -4 30 -14q3 -5 3 -14q0 -7 -2 -17q-13 -39 -58 -39q-15 0 -80.5 -10.5t-103.5 -21.5q-73 -17 -96 -27l-39 -12q-47 -291 -47 -493q0 -43 2 -81q0 -23 -21 -57.5t-43 -34.5q-33 0 -79.5 55t-74.5 104t-34 66q11 9 31 9l53 -15q11 62 32 239t21 197 q-246 -40 -395 -102q-8 -4 -18.5 -17.5t-18.5 -27t-21.5 -38.5t-19.5 -36q-23 -37 -64.5 -117t-48.5 -94q-46 -82 -57 -164q-5 -11 -18.5 -18.5t-30.5 -7.5q-14 0 -59.5 50t-45.5 67zM545 662l123 24q78 15 168 29q9 56 69 471q-41 -62 -172 -249t-188 -275z" />
<glyph unicode="B" horiz-adv-x="1544" d="M-45 45q0 69 98 177.5t187 146.5q-17 4 -26 6.5t-26 10t-24.5 20t-5.5 28.5l452 1047l6 24q-6 -1 -32.5 -5.5t-43.5 -9t-41 -13t-42 -22t-29 -32.5q3 -6 8 -12t8.5 -9t13.5 -10.5t15 -11.5q3 -9 3 -17q0 -26 -34 -26q-11 0 -49 9.5t-85 26t-83.5 44.5t-36.5 58 q0 36 61.5 66t160.5 50q50 12 120 23q79 12 111 14q40 5 162 8q193 0 317 -37q143 -39 164 -100q3 -30 -5.5 -60t-30.5 -58.5t-45 -52t-59 -50.5t-61.5 -44.5t-65 -43t-56.5 -37.5q95 -11 200 -37q2 0 19 -16.5t26 -16.5q8 0 11 1t2.5 2.5t2.5 3.5t11 4h9q32 0 70 -17 q44 -20 87.5 -55.5t62.5 -52.5t37 -35q19 -24 32 -51.5t17.5 -44t8.5 -40.5t4 -26l18 6q19 8 76 8q23 -4 23 -23q0 -13 -11 -34l-76 -27l-49 -18q-13 -24 -25 -44.5t-23 -36.5t-18.5 -26.5t-17.5 -22t-13.5 -15.5t-13 -13t-10.5 -10q-87 -87 -190 -172 q-136 -115 -325.5 -212t-389.5 -161q-152 -39 -258 -53q-64 -6 -125 -6q-31 0 -70.5 13.5t-73.5 46t-34 73.5zM195 90q0 -15 3 -17.5t21 -3.5q6 -1 10 -1l133 16q31 5 68 15t74 23t77.5 28.5t77.5 32t74 34t68 33t59 30t46.5 24.5t31.5 17l12 7q90 53 215.5 154.5 t157.5 148.5l-53 -21l-183 -61t-217 -73.5t-178 -66t-182 -77.5q-27 -15 -69 -39.5t-102.5 -64t-102 -77.5t-41.5 -61zM344 420q44 19 121.5 57t139 62t153.5 49q12 3 40.5 19t37.5 16q13 0 26 -13.5t15 -13.5q-2 8 -1.5 14t2 11t3 8t3.5 5l1 3q59 14 167.5 41t191 46 t151.5 30q6 11 10 43q0 56 -53.5 106.5t-125.5 80t-136.5 46.5t-96.5 17q-126 0 -243 -21t-172 -47q-72 -129 -117 -225q-92 -193 -117 -334zM647 1159l64 12q24 5 119 56t186.5 116t91.5 97q0 35 -64 56q-62 20 -128 20q-22 0 -41 1q-37 0 -60 -1q-17 -3 -41 -54 t-61.5 -147.5t-65.5 -155.5z" />
<glyph unicode="C" horiz-adv-x="1314" d="M14 350q0 23 18 110t42 140q3 5 21 24.5t24 32.5q8 14 13 51t9 50q7 25 40.5 78.5t41.5 74.5q21 17 43 51.5t37.5 64.5t41 56t56.5 31q34 92 70 139q27 38 106 116t147.5 139t74.5 61q13 0 18.5 -4t7.5 -4q40 72 148.5 139t210.5 67q77 0 126.5 -59.5t49.5 -130.5 q0 -39 -16 -100.5t-47.5 -131t-72 -130.5t-96.5 -101.5t-114 -40.5q-9 0 -25 4l-8 6q-3 17 56.5 117t121.5 210.5t62 148.5v47q-12 12 -37 12q-31 0 -117.5 -51.5t-160.5 -105t-83 -66.5q-86 -83 -170.5 -179t-171.5 -216.5t-152.5 -237.5t-107 -244.5t-41.5 -236.5 q0 -50 9.5 -98.5t31.5 -99.5t68 -82.5t110 -31.5q86 0 210 51.5t213.5 102.5t92.5 51q13 0 15 -4t4 -4q9 9 -2 20q9 5 76 54q174 99 307 235q19 2 24.5 -1.5t6.5 -16.5q5 -15 -10.5 -55.5t-45.5 -75.5q-69 -80 -169 -162.5t-213.5 -152.5t-236 -114t-222.5 -44h-60 q-13 0 -60 15.5t-73 29.5q-69 38 -126 118t-86.5 169t-29.5 165z" />
<glyph unicode="D" horiz-adv-x="1433" d="M8 125q0 27 18 51t48.5 60t50.5 77q39 81 95 301t81 385q3 23 3 74q0 66 -5 179q-3 75 -3 132q0 94 9 136q5 17 54 53.5t69 36.5q8 0 5 -7.5t7 -7.5q8 0 12.5 3.5t7.5 9.5t5 8q88 18 145 18q94 0 176 -10q7 -1 22 -15t28 -14q9 0 11 7.5t11 7.5q13 0 65 -18t89 -36 q234 -101 357.5 -247t123.5 -330q0 -101 -53 -210.5t-142.5 -208t-204.5 -193.5t-240.5 -172.5t-248 -138.5t-231 -98t-185.5 -46q-72 0 -126 75.5t-54 137.5zM160 78q2 0 9 -2t20.5 -4t31.5 -2q124 33 270.5 98t301 163.5t279.5 211t205.5 253.5t80.5 279q0 58 -38.5 119 t-99.5 110t-132.5 88.5t-143 61t-125.5 21.5h-36q-107 0 -210 -15q-90 -20 -110 -28q-18 -7 -21 -15q-24 -39 -24 -74q-2 -22 -5 -76.5t-6.5 -94.5t-9.5 -76q-1 -2 -11.5 -18t-10.5 -27q0 -7 5 -17t12.5 -22t10.5 -17q9 12 21 39t24 45.5t27 22.5q13 50 74.5 160.5 t75.5 167.5q4 5 7.5 7.5t7.5 3.5l6 1.5t8.5 0t9.5 -0.5q31 0 74.5 -40t43.5 -75q0 -6 -52 -94t-122.5 -208.5t-101.5 -182.5q-76 -150 -209 -492q89 23 106 23q16 0 31 -18.5t15 -32.5q-14 -9 -191 -107q0 -3 -0.5 -14.5t-3 -18t-8.5 -10.5q-71 -60 -86 -94z" />
<glyph unicode="E" horiz-adv-x="1257" d="M-72 764q0 8 2 14q3 15 11 19q57 0 143 2l86 2q34 0 57 6l43 6q3 10 11 27.5t10 23.5q35 77 39 84q118 224 209 379v25q2 0 2 2q0 4 -15 4q-10 0 -59 -20.5t-61 -20.5q-40 0 -76.5 56t-36.5 93q10 10 37 17t65.5 13t50.5 9q8 3 31 4t55.5 3t53.5 4q75 5 125 4q44 0 69 -3 q53 -8 90 -22t52 -14q12 0 18 9t18 9q6 0 65.5 -8.5t137.5 -18t123 -12.5q8 -1 33 -21t33 -20q12 0 18 9.5t18 9.5q20 0 46 -17.5t32 -40.5q-1 -1 -6 -8t-11 -11t-17 -10t-30 -9t-44 -3l-420 27h-28q-29 1 -59.5 1t-68.5 -0.5t-74.5 -3.5t-60.5 -7q7 -7 27.5 -21.5 t31.5 -28.5t11 -32q0 -9 -46 -88t-109 -189t-93 -174h88l451 31q30 0 55 -14q8 -13 4 -33l-6 -12q-1 -1 -9.5 -12.5t-18 -19.5t-19.5 -11q-55 -19 -154.5 -37.5t-120.5 -18.5q-11 0 -15 4.5t-15 4.5q-17 0 -130 -16.5t-182 -31.5q-104 -152 -104 -368q0 -45 2 -73.5t10 -64 t23.5 -55.5t45.5 -34q26 -12 60 -11h10q132 4 326.5 98.5t296.5 196.5q31 24 77.5 72t80.5 75t63 27q12 0 19 -4.5t9 -14t2.5 -17t-0.5 -19.5t-1 -16q0 -12 -13.5 -30.5t-36 -43t-28.5 -31.5q-96 -105 -210 -198t-243.5 -159.5t-226.5 -66.5h-41q-172 0 -273.5 114.5 t-101.5 284.5q0 63 19 162t43 158q3 20 -31 20q-12 0 -55.5 -7t-55.5 -7q-50 0 -83.5 35t-49.5 84z" />
<glyph unicode="F" d="M8 1298q0 33 59.5 59.5t139 40.5t143 21.5t88.5 7.5q11 0 3 -9t5 -9q10 0 13 2.5t1.5 5.5t2.5 6q53 4 250 4q16 36 26 50q31 49 68 49q35 -2 61.5 -17t38.5 -31.5t22 -30t15 -13.5q93 -13 217 -13q11 0 37 -1t37 -1q35 0 102 -2.5t194.5 -12t214.5 -35t87 -62.5 q0 -9 -3 -16t-7 -11.5t-11 -7.5t-12 -4.5t-14.5 -2.5t-13.5 -1h-13h-10q-164 12 -319 18q-122 4 -226 4q-191 0 -321 -14q-38 -5 -121.5 -164t-124.5 -262q43 3 223 31t189 28q11 0 19 -8t19 -8t18 8t19 8q8 0 20.5 -4t24.5 -4h45q2 -2 8.5 -6t9.5 -9.5t3 -15.5 q0 -14 -16.5 -35.5t-32.5 -21.5q-12 0 -12 4t-11 4q-10 0 -29.5 -15.5t-25.5 -17.5q-68 -17 -160 -34q-102 -17 -223.5 -46t-157.5 -55q-9 -8 -19 -25t-20 -43t-18 -48t-20 -59t-19 -56q-46 -145 -67 -249.5t-32 -149t-46 -103.5q-8 -2 -15 -2q-35 0 -77 46q-50 56 -50 112 q0 39 164 510q-8 3 -17.5 0t-25 -8t-22.5 -5q-29 0 -70 49t-41 70q0 8 11.5 17t32.5 18.5t43.5 18t50.5 17.5t47.5 15t41 12t23.5 7q42 82 125 260t98 209q-5 6 -12 8t-10 4q-5 3 -14 -1.5t-21 -4.5q-154 0 -248 -13q-99 -15 -127 -47q-4 -20 -4 -41q0 -26 6 -51 q-10 -7 -37 2q-3 1 -11.5 4t-14.5 4q-36 25 -90 83t-54 89z" />
<glyph unicode="G" horiz-adv-x="1363" d="M37 449q0 97 71.5 225t181.5 250.5t244 244t258 212.5t223.5 147.5t141.5 56.5q51 0 123 -53t72 -105q0 -42 -54.5 -132.5t-91.5 -90.5q-32 0 -65 41.5t-33 57.5q0 7 6 21t18 37t17 34q-2 2 -4 4.5t-3 3.5t-4 2t-7 1.5t-11 0.5q-16 0 -57 -25q-154 -79 -349.5 -255 t-334.5 -353q-42 -52 -121.5 -180t-83.5 -186q-1 -8 -1 -17q0 -74 41 -139q44 -72 108 -72q86 0 275.5 95t276.5 174q4 4 35.5 33.5t41 38.5t39 38t42 43.5t37.5 42t38.5 47t30.5 45t28.5 49.5t19.5 48q12 12 37 12q35 0 73.5 -33t38.5 -59q0 -4 -41 -86.5t-100 -212.5 t-119 -278t-104.5 -310.5t-48.5 -282.5q0 -13 -12 -32t-25 -19h-29q-44 0 -94.5 92t-50.5 123q0 70 16 86q1 0 2.5 -0.5t5 -1.5t6.5 -2q1 -1 5 -2t6 -2q36 0 45 20q15 36 28.5 78t28.5 96t23 78l16 -16l12 14q0 2 -8 10t-8 21q0 12 22.5 65.5t42.5 90.5v28 q-49 -39 -222.5 -137t-244.5 -108q-55 -7 -73 -7q-103 0 -191.5 61t-137 150.5t-48.5 178.5z" />
<glyph unicode="H" horiz-adv-x="1564" d="M-113 637q9 9 38 12t56.5 1t56.5 -4.5t32 -2.5q40 0 169.5 14t135.5 31q41 86 217 561q83 232 94 326q3 4 4 5t4 3t7.5 2h13.5q11 0 29 -21.5t30 -21.5q10 0 10 2v5q2 1 9 1q17 0 26.5 -26.5t9.5 -42.5l-270 -740q5 -2 9 -2t15 2.5t19 4.5t19 5.5t16 4.5q106 25 304 108 t218 111q5 8 61.5 125.5t115.5 208t102 90.5q54 0 125 -62.5t71 -105.5q0 -30 -9.5 -55.5t-41.5 -75.5q-25 -25 -60 -51.5t-44 -34.5q-20 -15 -66.5 -48t-81.5 -59t-45 -39q-39 -54 -72 -119t-52 -112t-50 -131q-23 -55 -46.5 -153t-23.5 -177q0 -34 6 -66.5t27 -61 t53 -25.5q62 4 195.5 100t249 202.5t172.5 172.5q21 12 33 0q8 -9 8 -20q0 -5 -2 -9q-37 -100 -128.5 -228t-176.5 -196q-7 -6 -46 -41t-71.5 -61t-80.5 -50t-89 -24q-59 0 -120 40.5t-104 98.5t-70.5 120t-27.5 105q0 63 79.5 265.5t121.5 277.5l-16 -12l-37 -23 q-12 -6 -58.5 -26t-124.5 -51t-135 -48l-16 17q-18 -24 -91 -41.5t-95 -30.5q-10 -7 -29.5 -52.5t-32.5 -88.5q-9 -28 -35.5 -111.5t-46.5 -140t-45 -111.5q-7 -7 -40.5 4.5t-66.5 38t-36 56.5q-3 71 -4.5 101t-6.5 57.5t-6 30t-12.5 20.5t-17.5 28q-27 47 -57 72.5 t-53.5 34t-46.5 18.5t-42 38t-33 81zM152 518l43 -59q36 -52 49 -90q4 10 26 74.5t31 84.5q-96 -10 -149 -10zM1397 1071q7 5 28 19.5t32.5 23.5t26.5 22t22.5 25.5t9.5 24.5q0 12 -7 26l-6 15q-36 -31 -69.5 -78t-36.5 -78z" />
<glyph unicode="I" horiz-adv-x="1603" d="M127 244q0 74 34 175t88.5 195t134.5 160t161 66q15 0 30 -8t15 -21q0 -4 -27.5 -38t-68 -87t-82.5 -114.5t-74.5 -134t-40.5 -132.5q-1 -11 -16 -43.5t-15 -44.5q0 -10 2 -12.5t6.5 -0.5t6.5 1q-6 -18 -6 -41q1 -14 3 -30q6 -42 21 -80t51.5 -64.5t85.5 -26.5 q111 0 292.5 85.5t270.5 154.5q36 27 87 75t124 137t132.5 187.5t102 230.5t42.5 261q0 93 -29.5 174t-75 132.5t-96 81.5t-96.5 34q-45 4 -89 4q-120 0 -223 -32q-140 -44 -231 -120q-4 -7 -4 -15q0 -30 53 -83q-13 -13 -37 -13q-16 0 -49.5 14.5t-70 37.5t-63.5 58t-27 69 q0 31 86 87l4.5 3t3.5 2q84 50 230 80t251 30q179 0 318.5 -58.5t222 -176.5t82.5 -281q0 -231 -104.5 -470t-237.5 -359q-3 -3 -7 -12.5t-10 -15t-16 -5.5q-5 0 -7 1t-1.5 2.5t0.5 3t-1.5 2.5t-7.5 1q-8 0 -12 -4.5t-7.5 -17.5t-4.5 -15q14 -14 24 -4q-10 -6 -34 -36.5 t-37 -30.5t-16 5t-5 5q1 -9 -4.5 -19.5t-17.5 -22.5t-24.5 -22.5t-33 -23t-36 -22t-39.5 -22.5t-37 -19.5t-35.5 -18t-28.5 -14.5q0 1 1 8.5t0 12.5t-5 9q-35 -69 -171.5 -116t-244.5 -47q-83 0 -153 35t-114 91.5t-68.5 125t-24.5 137.5z" />
<glyph unicode="J" horiz-adv-x="1677" d="M10 478v8q0 12 2 24q1 15 4 18q0 72 55.5 156.5t127.5 116.5q10 5 15 -6t7 -11q8 8 8 25q-3 -3 0 -6q0 -1 9 -10q17 13 4 36q34 13 98 23q41 7 61 7q5 0 9 -1q18 -2 32 2q11 0 23 -4q20 -9 20 -29l-8 -28q-92 -22 -143.5 -43t-90.5 -61t-52 -101q-10 -47 -10 -114 q0 -21 1 -44q2 -58 23 -131q11 -44 33 -100t58 -122.5t79 -122.5t100 -97t115 -49q32 -5 63 -5q358 0 645 687q33 80 101 264q15 44 47.5 139t47.5 137.5t41 111t52.5 122t57.5 108.5l-771 -57l-12 -12q10 -10 29 -43.5t24 -48.5q-7 -19 -23 -20.5t-46 11.5q-22 8 -88 78 q-30 30 -64 70q-1 1 -4 8.5t-4 9.5t-3.5 9t-3 10.5t-1 10t0 12t1.5 12.5t4 14q44 33 213 33l535 32q10 0 198.5 20.5t198.5 20.5q52 0 85.5 -27t33.5 -79q0 -6 -34.5 -41.5t-87 -99t-85.5 -127.5q-37 -73 -76 -160.5t-84 -196t-68 -160.5q-13 -39 -21 -62t-36 -94.5 t-53 -125t-68.5 -135.5t-86.5 -144t-103.5 -133.5t-122.5 -121t-140.5 -89t-160.5 -53.5q-21 -8 -117 -8q-95 2 -189 60t-164.5 144.5t-125.5 186.5t-84 190.5t-29 151.5q0 3 -0.5 21t-1.5 33z" />
<glyph unicode="K" horiz-adv-x="1353" d="M4 190q0 13 71.5 194.5t165.5 417.5t126 322l43 102q42 103 59 147.5t42.5 123t33.5 127.5q26 18 78 18q35 0 66.5 -37.5t31.5 -56.5l-307 -700l-11 -53q14 20 55.5 57t115.5 95t130 101t154 117q261 197 393 291q4 1 8 1q25 0 69 -29q52 -34 52 -74q0 -18 -65.5 -68 t-163.5 -113.5t-212 -148.5t-212 -169.5t-163.5 -180t-65.5 -176.5q0 -89 52.5 -189t139.5 -169.5t174 -69.5q69 0 185 58t209 122t182 135q10 0 22.5 -11t12.5 -26q0 -40 -100.5 -138.5t-205 -178.5t-122.5 -80q-13 0 -17.5 4t-15.5 4q-2 0 -25 -11.5t-50.5 -23.5 t-41.5 -12q-124 0 -241 65.5t-202 185.5t-112 269q-27 -27 -86 -119q-3 -4 -25.5 -65.5t-48.5 -115.5t-43 -54q-41 0 -88 32t-47 80z" />
<glyph unicode="L" horiz-adv-x="1159" d="M-27 -23q0 16 106.5 281.5t240.5 581t264 575.5t170 260q32 0 73 -46.5t41 -72.5q0 -3 -47.5 -86.5t-111.5 -199t-95 -178.5q-49 -104 -103 -228t-87.5 -206t-96.5 -235.5t-89 -217.5q15 -15 16 -15l891 267q8 -4 26.5 -30t18.5 -30q0 -27 -171.5 -93.5t-415 -155 t-351.5 -144.5q-30 -14 -57 -42.5t-42.5 -53.5t-36.5 -44.5t-44 -19.5q-21 0 -60 56.5t-39 76.5z" />
<glyph unicode="M" horiz-adv-x="1701" d="M-18 76q0 11 7 20.5t15 15t18 11t11 6.5q0 14 -17 14q82 207 120.5 307.5t97 266t96.5 310.5t67 302q9 21 64 21q33 0 53 -2q19 0 36.5 -22.5t22.5 -45.5l-161 -508q110 105 229.5 231.5t189.5 213.5q44 56 50 81q19 11 55 11h39q19 0 43 -28t24 -48l-247 -795l61 76 l277 352q94 114 329 449q1 0 7.5 4t15 7t18.5 3q22 0 62 -10.5t69 -28.5q-11 -88 -54 -239.5t-87 -287t-79.5 -294.5t-35.5 -270q0 -41 14.5 -82t43.5 -41q39 0 94 33.5t105.5 81.5t87.5 89t57 68h30q2 -3 5 -5.5t3.5 -3.5t1.5 -6t1 -14q0 -44 -41 -115.5t-98 -136.5 t-121.5 -112t-106.5 -47h-45q-48 0 -114.5 102t-73.5 142q-1 8 -6 41.5t-5 46.5q0 103 27.5 214t67 238t55.5 223q-63 -71 -181.5 -245t-221 -333.5t-195 -285t-119.5 -125.5q-17 0 -60.5 37.5t-43.5 65.5q0 13 10 54.5t12 53.5q0 22 -12 37q50 203 194 678l15 59 q-241 -241 -539 -768q-8 -14 -20.5 -68.5t-32 -92t-53.5 -37.5q-30 0 -80.5 53.5t-50.5 77.5z" />
<glyph unicode="N" horiz-adv-x="1525" d="M63 313q0 26 113 295.5t228 556t118 351.5q18 22 53 22q22 0 82 -31t64 -59l-277 -580q42 33 88.5 87t78.5 95.5t79 80t98 51.5q8 37 55 84t103 87.5t118.5 96.5t92.5 104q35 15 57 15q39 0 89.5 -24t50.5 -56q0 -53 -48 -217.5t-105.5 -343t-105.5 -395.5t-48 -363 q0 -24 1 -34.5t11.5 -32.5t32.5 -44h26q53 0 137.5 53.5t159.5 120t160.5 138t130.5 96.5l25 -25q-25 -32 -70 -88t-127 -153t-166 -177.5t-139 -109.5q-36 -20 -109 -20q-59 0 -104 21t-70.5 53t-41.5 75.5t-21.5 82t-5.5 79.5q0 102 26 251.5t60 186.5v16q0 67 22 153 q25 96 68.5 226t62.5 209v27q-2 2 -4 5q-2 2 -5 2q-2 -1 -3.5 -1h-4.5h-7q-7 0 -17.5 -6t-24 -16.5t-25.5 -20.5t-27.5 -23.5t-22.5 -19.5q-141 -115 -293.5 -288.5t-272 -360t-151.5 -314.5q-4 -20 -32.5 -40.5t-47.5 -20.5q-30 0 -54 18t-36 43.5t-18.5 47t-6.5 34.5z" />
<glyph unicode="O" d="M94 270q0 239 115 500q112 259 180 379q44 78 99.5 154.5t102 130t87.5 96.5t64.5 67.5t23.5 28.5q0 13 -28 40t-29 32q-7 15 13.5 24t39.5 9q34 0 85.5 -25t103.5 -63.5t82.5 -62.5t53.5 -44q72 -56 117 -135.5t59.5 -143t14.5 -124.5q0 -92 -39.5 -222t-105 -268 t-155 -275t-184.5 -244t-199.5 -174t-193.5 -67q-68 0 -123 27.5t-88.5 70t-56 96t-31 101.5t-8.5 92zM246 219q0 -20 5.5 -51t17 -67t34 -61.5t51.5 -25.5q76 0 167.5 67t175 173.5t162 239.5t134.5 262q55 130 87 246q26 98 27 162q0 12 -1 24q-3 25 -15 70t-33.5 103.5 t-57 100t-76.5 41.5q-52 0 -132.5 -89.5t-159 -219.5t-151.5 -268t-120.5 -241t-55.5 -134q-59 -169 -59 -332z" />
<glyph unicode="P" horiz-adv-x="1357" d="M51 127q0 3 5 90t5 129q8 5 22 16.5t26 19t22 7.5q3 7 46 111t55.5 135t53.5 132t59.5 149t51.5 136t51.5 143t39 119.5t32.5 112.5v3q0 4 -12 4q-25 0 -174 -68q-54 -25 -82 -61q-30 -40 -36 -99q-2 -22 -3 -42q1 -35 7 -66q10 -49 9.5 -98t-22.5 -72q-38 16 -84.5 111 t-46.5 175q0 1 -0.5 13t-0.5 24.5t0.5 30t2 33t4.5 32t8 27.5q22 50 106.5 103t149.5 75q100 35 216 48q86 10 158 10q26 0 48 -2q90 -4 185.5 -20.5t143 -29.5t93.5 -28q157 -50 273 -177.5t116 -256.5q0 -103 -72.5 -201t-179 -167t-225.5 -122.5t-214.5 -79.5t-144.5 -26 q-9 0 -27.5 8t-27.5 8q-8 0 -19 -4t-20 -4q-65 0 -137 35.5t-102 93.5q-32 -54 -96 -240.5t-89 -281.5q-12 -33 -12 -154q0 -10 -22 -22.5t-35 -12.5q-34 0 -57 23t-32.5 60.5t-12.5 64t-3 53.5zM481 805q32 6 52 6q32 0 32 -16q0 -10 -34.5 -53.5t-34.5 -53.5 q0 -16 18.5 -28t46 -17.5t47.5 -7.5t33 -2q51 0 141.5 22t199.5 67.5t205 105t161 145.5t65 178q0 56 -31.5 105.5t-81.5 83t-109.5 60.5t-119.5 42.5t-106.5 23t-75.5 7.5q-207 0 -283 -27q2 -1 15.5 -11t21.5 -17t19 -18t16.5 -22.5t5.5 -21.5q0 -26 -33 -107t-68.5 -158 t-37.5 -83q-41 -120 -41 -131l-4 -11q-5 -11 -10.5 -28.5t-8.5 -32.5z" />
<glyph unicode="Q" horiz-adv-x="1501" d="M51 436q2 69 13 124.5t40 129.5q46 118 170.5 278t269.5 298.5t295 235.5t240 97q56 0 118.5 -42t62.5 -105q0 -15 -14 -36.5t-36 -31.5q180 -69 253 -157t73 -236q0 -179 -132.5 -383.5t-320.5 -347.5q10 -18 26.5 -52t29 -57t30.5 -51.5t41 -53t50 -44.5l8 -20 q5 -23 -8 -31q-10 -6 -58 -6l-41 20q-52 26 -130 98.5t-81 100.5q-12 -8 -32.5 -21.5t-82.5 -47.5t-121 -60t-137.5 -47.5t-142.5 -22.5q-70 2 -128 23t-97 53t-68.5 75.5t-46 86t-27 89.5t-13.5 80.5t-3 63.5zM195 379q0 -52 8.5 -95.5t29 -86t62 -67t100.5 -24.5 q102 0 253 65t226 140q-14 14 -78.5 152.5t-64.5 163.5q0 12 2.5 19t10 10t11.5 3.5t18 0t18 -0.5q53 0 81 -8t43.5 -30t23 -47.5t26.5 -76t47 -98.5q391 391 391 676q0 89 -54 134.5t-143 45.5q-12 0 -80.5 -12t-78.5 -12q-64 0 -64 53q0 14 9.5 27.5t23 23.5t31 19.5 t31.5 15t25.5 10t12.5 4.5q-14 27 -24 37.5t-29 10.5q-37 0 -180 -98.5t-156 -116.5q-126 -116 -243.5 -246t-170.5 -223q-3 -6 -23 -45t-27.5 -55t-24 -55.5t-23.5 -67.5t-13.5 -68t-6.5 -78z" />
<glyph unicode="R" horiz-adv-x="1488" d="M0 1343q3 30 53.5 52t118.5 32t115.5 14.5t66.5 4.5q23 2 103 2h65q5 10 8.5 17.5t5.5 13.5t4 18t3.5 21.5t5 33t6.5 43.5q0 2 2 4q7 7 21 7q45 -4 73.5 -20t38 -37t13.5 -44.5t-1 -43.5t-4 -33t4 -13q5 0 8 0.5t3.5 1t0.5 1.5t0.5 2t1 1.5t3.5 1t8 0.5q26 -3 61.5 -8 t107 -19t138 -31.5t143 -46t133.5 -61.5t98 -79.5t48 -98.5q2 -13 2 -26q0 -27 -8 -55q-12 -42 -34 -72.5t-38.5 -49.5t-27.5 -28q-94 -74 -177 -124t-169.5 -82t-151.5 -49.5t-174 -41.5q-8 -2 -12.5 -3t-11.5 -2.5t-13 -2.5q34 -63 88 -138.5t130 -158t158 -151 t178 -116.5t183 -55q34 -6 80 -6q20 0 43 2q74 4 189 31q20 -25 20 -45q-14 -32 -144 -66q-114 -30 -168 -31q-8 0 -14 1q-65 0 -165.5 25t-137.5 40q-107 49 -235.5 166.5t-228 243t-166.5 240t-64 163.5q-10 -21 -21.5 -54t-26.5 -80.5t-22 -68.5q-49 -189 -71 -346 q-4 -16 -4 -62v-11q0 -5 1 -10q0 -48 -5 -76q-5 -14 -25.5 -31t-36.5 -17q-41 4 -80 60t-39 94q11 174 96 416t162 364q-6 14 4 52t11 47q1 0 7.5 2t12.5 3t14.5 -3t14.5 -15q1 11 -8.5 36t-8.5 38q0 8 24 62.5t56.5 127.5t46.5 111q-10 -2 -30 -2h-47q-50 0 -115 -16 t-76 -39q3 -11 9.5 -28.5t10.5 -31.5t3 -28q-2 -2 -5.5 -6.5t-7.5 -5t-16 0.5q-59 6 -139 60q-76 51 -76 106v6zM416 741q14 19 38 19q25 0 60 -21q24 -12 68 -47q15 -1 30 -1q115 1 271 53q177 60 315 167q100 89 100 142q3 54 -71.5 101.5t-188 78t-213.5 49t-178 25.5 q-39 -77 -86 -188.5t-78.5 -193t-33.5 -85.5q-7 -14 -15.5 -38t-13 -41t-4.5 -20z" />
<glyph unicode="S" horiz-adv-x="1380" d="M55 129v13q0 88 63 200q68 121 173 172q6 0 8 -2q8 -3 12 -10q9 -13 9 -32q0 -24 -15 -56q-26 -16 -53 -96.5t-33 -133.5q-1 -9 0 -18q0 -36 9 -64q12 -34 31 -53t52.5 -30.5t60.5 -15t68 -5.5q11 0 49.5 1t49.5 1q43 5 96 19.5t117.5 42t117 62.5t89.5 88t40 112v8 q0 61 -44 144q-47 89 -107 162.5t-144 174.5t-122 154q-38 51 -68 139q-26 77 -25 134v15q0 35 22.5 97t49.5 78q33 4 57 16q18 61 122 110q104 50 214 71q97 18 163 19q9 0 18 -1q109 -7 158 -64q44 -52 44 -127v-16q0 -43 -31 -135.5t-69 -92.5q-32 0 -70.5 50.5 t-38.5 80.5q0 7 2.5 17.5t9.5 27.5t11.5 27t16 34.5t14.5 31.5q-2 2 -4.5 6t-3.5 5t-6 2.5t-13 2.5t-17 1q-48 0 -114 -18q-78 -22 -156 -60.5t-135 -101.5t-61 -132q-2 -26 0.5 -51t12.5 -51.5t17.5 -46.5t27 -49t29.5 -44.5t37 -47.5t37 -44t41.5 -47l40.5 -45 q137 -150 205 -278q63 -117 62 -225v-19q0 -23 -20 -78.5t-54 -106.5t-64 -51q-9 0 -10 2q-1 1 1 3q-4 4 -9 5l-8 -10q-8 -10 -21.5 -24t-30.5 -27.5t-40 -22.5t-45 -8q-10 0 -10 3v6q-2 1 -9 1q-10 0 -14 -13t-14 -13q-8 0 -9 3t0.5 7t-2.5 8q-6 -2 -22 -21.5t-33 -27.5 q-57 -12 -92 -16q-78 -11 -149 -11q-31 0 -60 2q-37 2 -85 13t-103 34.5t-102 55t-81 79t-41 101.5z" />
<glyph unicode="T" horiz-adv-x="993" d="M2 1503q0 17 17 33t34 16q2 0 70 -10t113 -10q32 0 104 1t80 1q11 0 198.5 5t198.5 5t25 -9t26 -9t21 9t20 9q241 0 381 -12q5 -1 25.5 -3t30 -3t28 -6.5t29.5 -12.5t24.5 -20t22.5 -31q-2 -12 -16 -26l-15 -5q-213 0 -415 -10q-129 -3 -302 -33q-8 -17 -21.5 -56.5 t-34.5 -108.5t-36.5 -122.5t-45 -156t-44.5 -152.5q-87 -298 -145 -507q-23 -65 -33 -163q-5 -53 -6 -98q0 -37 4 -69q0 -14 -23.5 -25.5t-42.5 -11.5q-45 0 -91 35.5t-46 77.5q0 51 42.5 198.5t89 287t48.5 146.5q13 48 93.5 325t111.5 390q-6 8 -14.5 9.5t-22 -1 t-20.5 -2.5q-12 0 -110.5 -9t-108.5 -9q-14 0 -51 9t-81.5 25.5t-78 45.5t-33.5 63z" />
<glyph unicode="U" horiz-adv-x="1572" d="M27 260q3 41 44 179t108.5 318.5t143 351t158 287.5t144.5 117q45 0 77.5 -18t32.5 -57q0 -34 -16 -56t-50 -48.5t-53 -49.5q-94 -116 -190.5 -326.5t-155.5 -379.5q-97 -278 -97 -421q0 -15 1 -28q2 -2 6 -9t9.5 -10.5t15.5 -3.5q53 0 233 140q114 86 238.5 209.5 t229 248.5t178 219.5t126.5 170.5q23 34 66.5 129.5t81 182.5t82 156.5t76.5 69.5q42 0 87.5 -36.5t45.5 -77.5q0 -77 -192 -309q-2 -2 -2.5 -3t-2 -2.5t-2.5 -3t-2 -2.5q-305 -679 -305 -965q0 -24 4 -55.5t13 -66.5t27 -58.5t42 -23.5q32 0 87.5 36.5t120 96t117 112 t105.5 109.5t59 63q31 -16 31 -43q0 -20 -74 -136t-168 -227.5t-137 -111.5q-10 0 -14.5 2.5t-8.5 7t-10 7.5q-3 -6 -6 -19.5t-7.5 -22.5t-14.5 -9t-10.5 4t-10.5 4q-14 0 -19.5 -8.5t-6.5 -8.5l-21 17q3 -3 0 -6q-5 -6 -16 -2q-54 16 -95 41t-65.5 56.5t-41 62t-23.5 69 t-9 65.5t-2 62q0 59 9 117t19.5 97.5t33 116.5t36.5 132q-9 -16 -78 -97.5t-174 -193.5t-216 -219.5t-215 -182.5t-158 -75q-14 0 -53.5 18.5t-75.5 42.5q-41 31 -65.5 111.5t-24.5 142.5z" />
<glyph unicode="V" horiz-adv-x="1075" d="M152 358q0 148 26 324.5t58 310.5t71 299t55 262q14 3 38 -1t51 -14.5t46 -34.5t19 -56t-102 -375q-77 -247 -105 -596q-4 -28 -4 -94v-27q1 -88 8 -110q65 87 213.5 281t245 322t213.5 299t189 302q22 39 26 75.5t-3.5 57.5t-7.5 48t15 46q47 -4 79.5 -20t47.5 -39.5 t21 -44.5t6 -43q0 -50 -22 -114.5t-52 -108.5q-82 -126 -211 -310t-327 -459.5t-271 -377.5q-4 -4 -39 -70t-71.5 -128t-47.5 -62q-39 0 -69.5 31t-47.5 84t-28 103.5t-14.5 111t-4.5 84t-1 44.5z" />
<glyph unicode="W" horiz-adv-x="1433" d="M78 289q0 115 29 271.5t63 283.5q34 128 62 273q26 135 26 228v13q12 12 37 12q43 0 93 -45.5t50 -85.5q0 -6 -73.5 -303.5t-73.5 -355.5q24 33 140 195.5t183 250.5q4 7 20.5 34t32.5 52.5t34.5 53t35 44.5t25.5 17q31 0 74 -41.5t43 -67.5q0 -4 -40.5 -151t-81 -353 t-40.5 -354q0 -7 3 -40.5t3 -53.5q9 0 25 -16q63 72 138.5 174t123.5 182q424 710 424 883q0 11 -17.5 52t-17.5 54q0 18 13.5 31.5t35.5 13.5q67 0 112.5 -60t45.5 -118q0 -80 -119.5 -330.5t-272 -512t-302 -467.5t-201.5 -206q-40 0 -72 47.5t-48 110.5t-24 110.5 t-8 63.5q0 93 16 269.5t27 248.5q-42 -26 -82 -88q-20 -29 -96.5 -163t-142.5 -242.5t-80 -108.5q-40 0 -67 24t-38 61.5t-14.5 63t-3.5 46.5z" />
<glyph unicode="X" horiz-adv-x="1511" d="M-4 90q2 52 87.5 159t205.5 225t239.5 229.5t203 192t83.5 93.5q0 18 -25.5 88.5t-48.5 118.5q-19 42 -58 101.5t-67 101t-28 51.5q3 17 27 35t45.5 27.5t25.5 9.5q44 -3 92 -66t79 -136t59.5 -146t33.5 -80q58 51 186.5 180t227.5 231.5t100 102.5q45 -6 91 -40 q42 -32 42 -72v-7q0 -18 -120.5 -136t-279.5 -266t-187 -176q26 -91 64.5 -248.5t64.5 -258t78.5 -234t119.5 -242.5q-22 -50 -55 -67l-31 2q-118 60 -227 401q-19 64 -50 178.5t-56.5 200t-53.5 158.5q-38 -38 -137 -131.5t-156 -151.5q-171 -174 -254 -278 q-42 -55 -64.5 -102t-37 -88t-35.5 -73q-11 -17 -36 -31.5t-44 -13.5q-44 4 -74 60t-30 98z" />
<glyph unicode="Y" horiz-adv-x="1497" d="M-721 84q0 53 22 112.5t72 109t115 54.5q2 -2 23.5 -10t21.5 -22q0 -1 -8.5 -20.5t-21 -50.5t-25 -66.5t-21 -75t-8.5 -68.5v-11q0 -87 31 -188q33 -106 90.5 -207t137.5 -196t169 -166.5t189 -115.5t192 -46h5q70 0 136 27q68 27 120 69.5t103.5 110t85.5 127t70.5 142 t55.5 133.5t44.5 123t32.5 90q48 131 81 225.5t61 180t40 123.5t41.5 136t41.5 139q-19 -30 -89 -104t-168 -166t-199 -176t-194 -137q-81 -48 -128 -48q-6 0 -11 1q-43 9 -77 28.5t-55.5 41t-37 53.5t-23 56t-11.5 58.5t-4.5 51.5t-0.5 44q0 292 354 1045q1 13 17 13 q17 0 53 -17q64 -30 93 -66q14 -18 7 -28q-1 -1 -37.5 -53t-50.5 -76q-99 -183 -158.5 -321.5t-109.5 -324.5q-22 -104 -22 -182q0 -5 -0.5 -23.5t0 -25.5t2 -23.5t5 -27.5t10 -26.5t15.5 -30.5q7 -3 17 -3q54 0 193 96q163 114 368.5 313t357.5 398q17 23 76.5 158.5 t119 250t91.5 114.5q56 0 97.5 -46t41.5 -96q-1 -41 -51.5 -121.5t-108.5 -155.5t-59 -77q-8 -13 -36 -49t-36 -53q-61 -149 -168.5 -473t-218.5 -645t-196 -504q-69 -148 -221 -260.5t-281 -112.5q-15 0 -80.5 8t-79.5 12q-92 16 -241 101q-179 82 -334.5 246.5 t-242.5 353.5q-85 183 -85 339v11z" />
<glyph unicode="Z" horiz-adv-x="1497" d="M8 37q0 32 21 41q103 53 203.5 121t176.5 129t166.5 148t147 146t145.5 156q289 362 406 531q2 5 15 22.5t23 37.5t7 36q-7 7 -19 5.5t-30.5 -6.5t-20.5 -5l-327 -49q-4 -1 -89 -11.5t-118.5 -16.5t-95 -23t-103.5 -39q3 -30 60 -95.5t57 -74.5q-1 -11 -20 -30.5 t-27 -19.5q-45 3 -109.5 66t-108.5 133.5t-44 99.5q0 41 94 76q98 39 198 54t275 30.5t340 42.5q35 7 109 37t133.5 56t64.5 26q30 0 72.5 -44.5t42.5 -70.5q0 -3 -36.5 -50.5t-87 -109t-81.5 -94.5l-193 -252l-176 -237q-106 -143 -299 -361q-99 -110 -167.5 -177.5 t-118.5 -96.5q42 -11 92 -14q35 0 50.5 -6.5t18.5 -6.5q10 0 13.5 2t4 5.5t3.5 5.5q18 -4 39 -5.5t52.5 -2.5t39.5 -1q53 0 163 -13t113 -13q52 -3 82 -37q8 8 42.5 19.5t43.5 11.5q31 0 102 -12.5t95 -30.5q10 -5 7 -21.5t-11 -23.5q-21 -10 -130.5 -20.5t-144.5 -10.5 l-645 -2h-28q-81 0 -147 -10q-77 -12 -114 -27t-72 -27q-30 -10 -53 -10h-8q-36 0 -65 47t-29 72z" />
<glyph unicode="[" horiz-adv-x="968" d="M23 25q0 21 17.5 36t33.5 15l49 4q-5 52 -4.5 75t7.5 85.5t9 89.5q3 75 45 200q25 90 118 322t172 423t79 202q1 8 -14 38.5t-15 43.5q3 24 31 40q55 -6 111.5 -7.5t140.5 0t112 1.5q18 0 73 -6t63 -6q4 0 22 -4.5t42.5 -13t43.5 -25.5t19 -39q0 -25 -70 -35.5 t-156.5 -12t-166 -17.5t-93.5 -50q-4 -9 -54 -124t-100.5 -237.5t-107 -268.5t-93 -272t-38.5 -193q0 -8 -3.5 -57.5t-1 -85.5t14.5 -60q53 -3 122 -8t115.5 -8.5t55.5 -3.5q105 0 111 -52q-2 -29 -57.5 -49t-133 -28t-156 -11t-132.5 -2t-56 2q-12 1 -22 2t-17 2t-13 1.5 t-9.5 1.5t-6 2t-3.5 1.5t-2 1.5h-1l-1 1h-1q-8 0 -9 -2q0 -1 1 -3q-4 -3 -8 -4q-26 0 -44.5 39.5t-18.5 55.5z" />
<glyph unicode="\" horiz-adv-x="1120" d="M35 1638q0 20 9.5 30.5t18 11.5t24.5 1h5q20 0 65 -17t60 -42q294 -517 522 -963q6 -13 75.5 -135t78.5 -168q2 -2 28.5 -28t39 -39t31 -35t26.5 -37q23 -41 46 -113.5t23 -93.5q0 -29 -18 -57.5t-37 -28.5q-22 0 -64.5 55t-102.5 158t-118.5 210t-139 253.5 t-138.5 245.5q-434 736 -434 792z" />
<glyph unicode="]" horiz-adv-x="960" d="M10 12q0 7 4.5 15t23 18t48.5 14q30 3 131 4.5t148 4.5q0 31 -11 65q1 1 4.5 5t6 6.5t7 6t8.5 6t10 4t11 1.5q9 -1 9 -4q4 -3 8 -4q6 0 12 5t12 16t12 22.5t12.5 29.5t11.5 33t11.5 36.5t10.5 36t10.5 36.5t9.5 32q51 213 101 371q107 345 198 420q-6 28 3 73t19.5 77 t33.5 91.5t28 73.5q0 47 -24 47q-28 0 -102.5 -14t-137.5 -27.5t-64 -13.5q-24 0 -62 22t-38 52q0 28 10 59q48 37 154 49q47 3 127 8.5t138.5 10t66.5 4.5q46 0 89.5 -37.5t43.5 -85.5q0 -53 -56 -201.5t-142 -351t-113 -276.5q-45 -124 -92 -300.5t-64 -285.5 q-3 -12 -15.5 -42t-13.5 -42q0 -1 -0.5 -34.5t-5.5 -47.5q-8 -33 -38.5 -68.5t-57.5 -35.5q-8 0 -30 4t-34 4q-11 0 -33 4t-34 4q-9 0 -64 -1t-65 -1q-12 0 -55 4t-54 4q-13 0 -47.5 13t-54.5 24q-5 15 -15.5 30t-9.5 27z" />
<glyph unicode="^" horiz-adv-x="780" d="M70 1124q0 42 55.5 96t127.5 96.5t138 72.5t90 30q42 0 116 -76t128.5 -159t54.5 -109q0 -12 -27.5 -39.5t-39.5 -27.5q-28 0 -61.5 40.5t-58.5 88.5t-51.5 88.5t-43.5 40.5q-43 0 -120 -62.5t-137 -125t-63 -62.5q-37 0 -72.5 33.5t-35.5 74.5z" />
<glyph unicode="_" horiz-adv-x="1390" d="M78 -174q0 8 2 14q3 14 14 25q32 32 109 51q77 21 206.5 35t165.5 14q13 0 31 -28q3 0 17.5 10t39.5 18.5t58 7.5q11 -1 26.5 -11t26.5 -11q15 -1 73 4t87 4q9 0 56 -17.5t57 -17.5q7 -1 17.5 3t22.5 3q79 -7 130 -20q214 -66 221 -100q-2 -2 -4.5 -5t-4 -4.5t-4.5 -3 t-7 -2.5t-11 0q-7 0 -56.5 6t-112.5 13.5t-83 9.5q-164 10 -225 10q-58 0 -156.5 -5.5t-214 -16.5t-199 -32.5t-86.5 -47.5q0 -5 2 -10.5t6 -14t8 -15l12 -19.5t13 -21q-2 -2 -4 -5t-3.5 -4t-6 -2t-12.5 -1q-55 5 -135 69t-76 117z" />
<glyph unicode="`" horiz-adv-x="587" d="M77 1421.5q9 43.5 17 51.5q7 7 31 4l20 -4q28 0 126.5 -60t187 -133.5t88.5 -105.5q0 -21 -15 -35.5t-28 -14.5q-59 0 -228.5 92.5t-197.5 137.5q-10 24 -1 67.5z" />
<glyph unicode="a" horiz-adv-x="1032" d="M20 131q-1 7 -1 15q0 111 110 278q33 53 156 193.5t139 140.5q6 0 9 -1t3.5 -3t1 -3t2.5 -1q19 19 11 30q11 7 38 30t39 30q3 2 28.5 23t49.5 30.5t58 9.5q14 0 70 -33.5t67 -44.5q14 -31 14 -61q0 -12 -2 -23q7 -4 41 -12.5t47 -26.5l4 -18q3 -22 -4 -29q-7 -10 -19 -24 t-16 -23q-2 -3 -24.5 -45.5t-31.5 -61.5t-30.5 -63t-32.5 -73.5t-25 -68.5t-20 -72t-6 -62l2 -74l4 -12q2 -8 5 -11t8 -2q14 0 63 25t80 49q78 63 186.5 175.5t122.5 138.5q17 28 26 -7q5 -17 5 -34q0 -11 -2 -21q-12 -67 -78 -160q-25 -40 -118 -141.5t-121 -101.5 q-10 0 -16 4t-9 4q-3 -6 -3 -10t2.5 -11t2.5 -10q-7 1 -19.5 -11.5t-21.5 -12.5t-11 4t-11 4t-16 -11.5t-15 -11.5h-10.5t-2.5 2.5t-4 5.5l-16 -16q0 19 -4 23l-4 -5q-2 -2 -2 -10q-11 7 -30.5 30t-29.5 23q-5 0 -7 -2.5t-1 -5t-1 -3.5t-7 3q-14 8 -25.5 18.5t-20.5 24 t-16.5 25.5t-13 28t-9 27.5t-7 27.5t-5 23.5t-3.5 21.5t-2 15q-7 -6 -42 -35.5t-56 -46.5t-59.5 -45t-67 -43.5t-62.5 -28t-61 -12.5q-32 0 -102.5 63.5t-70.5 98.5zM158 123q0 -13 4 -17q2 -2 4 -2h35q56 37 114 80q146 109 234 228q24 24 94 132t70 146q0 25 -25 53 q-45 0 -173.5 -116t-242.5 -268.5t-114 -235.5z" />
<glyph unicode="b" horiz-adv-x="946" d="M37 123q0 72 42.5 169.5t90.5 113.5q-29 29 -29 49q0 5 88.5 208.5t186.5 437.5t116 302q8 30 39 57v7q0 42 23 106q10 16 27 16q12 0 18 -2q17 0 63 -23t46 -44l-259 -654q-2 -2 -2 -4q0 -1 7 -8q18 22 62.5 39.5t66.5 17.5q50 0 123 -48t96 -89q9 -18 14.5 -33t7.5 -31 t2 -24v-11v-17v-25q0 -35 -6 -72.5t-17.5 -72t-23 -65t-26.5 -60t-25 -47.5t-21 -37.5t-12 -20.5q-15 -30 -108 -124.5t-107 -94.5q-7 0 -10 1.5t-5 5.5t-5 7q-49 -74 -64 -80q-3 -1 -38.5 -16.5t-59 -23.5t-41.5 -11h-47q-69 0 -141 68t-72 133zM182 78.5q0 -4.5 2 -15 t6.5 -14t13.5 -7t23 -3.5q43 0 112.5 53t136 127t124 150.5t82.5 126.5q24 54 38 121q9 44 9 72q0 14 -2 24q-7 28 -20 49.5t-29 21.5q-25 0 -72.5 -21t-70.5 -44q-49 -53 -99 -115q-50 -60 -96 -138q-41 -70 -41 -108v-8q-51 -48 -84 -120.5t-33 -131.5v-19.5z" />
<glyph unicode="c" horiz-adv-x="991" d="M80 279q0 91 58.5 208t141.5 214.5t179.5 165t167.5 67.5q94 0 150.5 -58.5t56.5 -140.5q0 -49 -14 -100t-46 -51q-31 0 -64.5 33.5t-33.5 58.5q0 7 13 49.5t13 50.5q0 39 -18 60l-31 -2q-8 -1 -20.5 -8t-25.5 -17t-28.5 -23t-29 -26t-27.5 -26.5t-23.5 -23t-17.5 -18.5 l-8 -8q-90 -92 -152 -204.5t-69 -211.5q-4 -15 0 -49.5t11.5 -70t27.5 -62.5t47 -27q68 7 150 38.5t124 54.5t58 34q30 15 52.5 29t57 38t62.5 42q45 32 121 96q15 3 30 -6l11 -8q0 -15 -7 -31q-11 -26 -64.5 -82.5t-101 -99.5t-49.5 -43q-7 0 -10 2t-4.5 6t-3.5 6 q-24 -42 -27 -53q-8 0 -20 12q-5 -5 -10.5 -17t-10.5 -20t-12 -8q-10 0 -17 7t-8 7q0 -25 -23.5 -42.5t-67.5 -34.5t-56 -23q-6 -3 -39.5 -13.5t-38.5 -12.5q-28 -6 -50 -6q-15 0 -28 3q-10 0 -53.5 16.5t-66.5 33.5q-71 41 -113.5 129.5t-42.5 165.5z" />
<glyph unicode="d" horiz-adv-x="1200" d="M18 170q0 57 41.5 141.5t103 168t130 163.5t126 136t87.5 77q37 26 69.5 33.5t77.5 7.5q50 0 79.5 -11.5t70.5 -51.5q18 34 56.5 132.5t55.5 135.5q5 11 16 42t22.5 60t25.5 53q0 5 11 44t28 89t43.5 90t52.5 40q35 0 81 -27.5t46 -56.5q0 -2 -44 -88.5t-107 -222 t-126 -289t-107 -317.5t-44 -279q0 -54 4 -80q34 -105 74 -111q89 11 219 129.5t231 251.5q23 -1 34 -15t11 -30q0 -27 -10 -49.5t-39 -65.5t-47 -75q-3 -6 -24.5 -17.5t-24.5 -21.5q-22 -67 -29 -78q-3 -4 -12 -10.5t-21.5 -14l-17.5 -10.5q-7 -5 -36 -29t-52.5 -41.5 t-62 -33t-74.5 -15.5h-51q-45 0 -116 76t-81 102q-9 24 -24 56t-21 55t-6 61q-13 -14 -59.5 -69.5t-79.5 -90.5t-80.5 -79.5t-92 -67t-83.5 -22.5q-76 0 -150 76.5t-74 148.5zM180 113q0 -22 10 -39h27q62 32 186 164.5t224 269t100 178.5q0 10 -12.5 34t-12.5 30h-26 q-52 -21 -136 -96.5t-164 -169t-138 -197.5t-58 -174z" />
<glyph unicode="e" horiz-adv-x="915" d="M61 223q0 90 50.5 213t124.5 230t167 182.5t170 75.5q9 0 24.5 -11.5t23.5 -11.5q11 0 12 7t12 7q37 0 88 -48.5t51 -78.5q0 -26 -6 -53t-21.5 -59.5t-22.5 -47t-30 -52.5t-24 -39q-22 -37 -155 -164t-165 -127q-35 0 -112 65q-11 -23 -18 -64t-7 -59q0 -70 35 -119 t107 -49q68 0 211.5 71t265.5 152t155 119q13 0 25 -9t12 -25q0 -27 -16 -50.5t-36 -39.5t-40.5 -45t-28.5 -64l-18 16h-21q-11 0 -12.5 -12.5t4.5 -23.5q-14 -10 -46 -37t-56 -41q-12 -7 -45 -14.5t-45 -14.5q-5 -2 -25 -24.5t-39 -30.5q-91 -29 -169 -34q-21 -1 -39 -1 q-54 0 -94 10q-54 14 -98.5 41.5t-71.5 61.5t-45 71.5t-25 69t-7 57.5zM279 403q75 31 196 164t137 215h-26q-48 -23 -123.5 -99t-136.5 -175q-11 -16 -23 -43q-17 -28 -24 -62z" />
<glyph unicode="f" horiz-adv-x="815" d="M-217 -905q0 10 293 755q215 675 217 695q0 11 -38 66t-38 83q10 24 60.5 47t93.5 35q201 614 241 756q81 236 160 368q75 128 129 128h4q44 -2 83.5 -42.5t62.5 -93.5t35 -101q10 -41 10 -64v-7q-1 -43 -16 -62t-58 -40q-6 -6 -16 -6q-17 -3 -25 8q-3 13 8.5 38.5 t11.5 35.5v14q0 37 -9 82q-10 53 -29 82q-19 -3 -37 -20t-27.5 -33t-24.5 -45.5t-20 -38.5q-29 -59 -166 -469.5t-137 -458.5q19 0 29 2l49 6q49 8 158.5 19.5t130.5 11.5q10 2 32 2q37 0 43 -2q8 -5 8 -31q-1 -10 -23 -27.5t-44 -29.5q-11 -4 -97.5 -27.5t-142.5 -40.5 q-38 -9 -192 -53q-33 -73 -62 -155t-65 -202.5t-49 -160.5q-39 -122 -145.5 -414.5t-149.5 -417.5l-80 -233q-1 -1 -5 -23t-14 -30q-1 0 -6.5 -3.5t-12.5 -5.5t-15 -2q-37 0 -78 34q-37 32 -37 66v5z" />
<glyph unicode="g" horiz-adv-x="948" d="M-780 -442q2 58 24.5 116.5t53.5 101.5t64.5 77t58 51.5t32.5 17.5q15 0 30.5 -6t16.5 -18q0 -8 -18.5 -41.5t-41.5 -77.5t-43 -124t-22 -169q2 -64 23.5 -130t60 -123.5t88.5 -101.5t115 -67q47 -16 96 -16q17 0 35 2q65 8 132.5 49.5t123.5 101.5t100.5 125t75.5 129 q64 137 93.5 214.5t47 137t44.5 125.5q11 36 25.5 78t21.5 63t13.5 49t10.5 58q-29 -21 -82.5 -64t-89.5 -70.5t-43 -27.5q-8 -1 -27.5 -9t-31.5 -9h-43q-37 0 -75 34t-58.5 68t-20.5 45v8q0 37 8 75q9 42 22.5 73.5t38 70t42 61.5t47.5 61t43 55l100 100q72 72 204.5 165 t195.5 93q45 0 119.5 -63t74.5 -107q0 -6 -40.5 -89t-98.5 -203t-88 -189q-19 -45 -37 -94.5t-28 -80.5t-26.5 -85t-23.5 -76l-153 -457q-24 -3 -35 -14q2 -2 4 -14t10 -15q-34 -61 -60 -105.5t-72.5 -110.5t-88.5 -110.5t-97.5 -82.5t-109.5 -49q-75 -14 -139 -16h-20 q-51 0 -90 8q-48 10 -76 19.5t-59 23.5q-3 2 -4.5 2.5t-4 1.5t-4.5 2q-88 39 -155 102.5t-106.5 138.5t-60 153t-22.5 159zM168 185v-11q0 -16 6 -29q157 76 315.5 255t206.5 348q-30 -3 -79 -36.5t-90 -71t-80.5 -75t-47.5 -43.5q-20 -16 -45 -41q-3 -3 -10 -9.5t-12.5 -12 t-9.5 -10.5q-8 -12 -23 -30t-27.5 -34t-28.5 -37.5t-27.5 -39.5t-23.5 -41t-16.5 -41t-7.5 -41z" />
<glyph unicode="h" horiz-adv-x="1087" d="M98 276q22 14 104 222t132 370q13 38 49 162t65 189.5t62 80.5q0 3 -7 9t-7 16q0 28 28 85.5t41 70.5q0 3 -3 22.5t-4 38.5t1 39.5t12 33.5t29 13q20 0 72 -34q48 -31 47 -63v-5l-295 -891q-2 -2 -2 -4q0 -4 4 -8q32 32 83 80.5t136 118t111 69.5q27 0 79 -48.5t52 -78.5 q0 -6 -19.5 -58.5t-47.5 -128t-42 -118.5q-21 -67 -40 -177.5t-19 -131.5q0 -58 35 -136q17 6 40 19t54.5 32.5t52.5 30.5q64 50 177 168.5t143 138.5q26 -11 26 -36q-21 -55 -59 -129q-68 -133 -125 -170l-19 -7q-20 -10 -24 -16q-62 -82 -114 -116.5t-118 -34.5 q-49 0 -89 24t-63.5 59t-40 78t-22.5 78.5t-6 63.5q0 39 4.5 78.5t16 87t18.5 74t25.5 86t23.5 75.5v18q-20 -4 -63 -44t-80 -77.5t-41 -37.5q-11 0 -11 4t-1 4q0 -6 -3.5 -12t-6.5 -9t-5 -5.5t1.5 -3.5t13.5 -1q-40 -53 -114.5 -161t-102.5 -148h-41q-6 12 -56.5 65 t-46.5 86z" />
<glyph unicode="i" horiz-adv-x="628" d="M53 279q0 12 43 139t103 256q58 125 92 125h2q29 0 75 -38t46 -61l-20 -40q-20 -41 -49.5 -103.5t-59 -130t-51 -132t-23.5 -99.5v-12v-15t0.5 -15.5t1.5 -17.5t3 -16t5.5 -15t8 -11.5t11.5 -8t15 -2.5h3q29 0 87 32q62 34 130 82.5t132 98t107.5 84.5t44.5 35 q15 0 23.5 -14t10 -24t1.5 -18q0 -23 -96.5 -131t-141.5 -153l-16 16q-9 -36 -85 -98q-72 -59 -118 -58h-6q-86 3 -153 61q-67 59 -98 135q-28 70 -28 136v13zM362 1174q4 39 92.5 76.5t125.5 37.5q8 0 11 -7.5t15 -8.5q9 0 11.5 7.5t11.5 6.5q8 0 41.5 4t42.5 4 q105 -7 133 -16t47 -37q0 -14 -28 -24.5t-70.5 -19t-51.5 -11.5q-5 -2 -63 -17t-96.5 -31t-55.5 -36q-2 -4 -8.5 -24.5t-14.5 -32t-20 -11.5q-27 0 -75 64.5t-48 75.5z" />
<glyph unicode="j" horiz-adv-x="522" d="M-1204 -696q0 67 59.5 153t138.5 125h37q7 -14 -3 -44.5t-25.5 -84.5t-18.5 -110v-10q0 -47 16 -109q18 -68 52.5 -136.5t96.5 -116.5t136 -48q95 0 181.5 42t148.5 94.5t125 156t97.5 169.5t80 197t59 175.5t46.5 162.5q6 18 8 27q31 115 112 479q101 453 205 453 q35 0 96.5 -36.5t61.5 -78.5q0 -3 -25.5 -24.5t-57.5 -53t-44 -57.5q-25 -55 -48 -126t-36 -121t-34 -140t-30 -127q-86 -345 -132 -486q-103 -319 -249 -540q-63 -95 -128 -156.5t-144 -77.5q-60 -47 -84 -47q-10 0 -10 8t-10 8q-14 0 -16 -7t-3 -7l-20 14 q-21 -3 -57.5 -17.5t-47.5 -14.5q-10 0 -12.5 2.5t-1 5.5t-2.5 6q-14 -2 -29 -2q-65 0 -141 36q-93 43 -169 115t-127.5 167.5t-51.5 181.5zM395 1282v29q115 60 404 98l16 -16q1 1 10 4q16 4 41 4v-39q-345 -188 -366 -188q-12 0 -49.5 39t-55.5 69z" />
<glyph unicode="k" horiz-adv-x="1075" d="M121 301q0 47 125.5 350t263.5 589t166 286q21 0 77 -27.5t56 -52.5q0 -5 -42.5 -80.5t-99 -178t-81.5 -155.5q-61 -129 -203 -477v-20q32 22 107 112.5t142 165t93 74.5q20 0 75.5 -36t55.5 -56q0 -19 -40.5 -62t-98 -104t-114.5 -136t-97.5 -178.5t-40.5 -210.5 q0 -104 76 -104q72 0 167.5 43t182.5 104t163.5 122t127.5 104t57 43q13 0 26 -14t13 -25t-59.5 -80t-92.5 -102q-43 -49 -140 -132t-169 -129q-16 -9 -48 -20.5t-80 -23.5q-41 -10 -88 -9h-16q-56 2 -102 23q-57 29 -93.5 63t-55 77.5t-25.5 85t-10 103.5q-15 -5 -21 -13 t-5 -13.5t-7 -9.5t-28 -4q-35 0 -76 40.5t-41 67.5z" />
<glyph unicode="l" horiz-adv-x="772" d="M135 307q0 95 31 212.5t86.5 243.5t98 210t99.5 190q12 21 17 31q44 89 119 201t96 125q44 0 98 -37.5t54 -87.5q0 -46 -9 -93t-30 -96t-37 -84.5t-49 -84.5t-46 -68.5t-47.5 -65t-35.5 -47.5q-10 -13 -51 -61t-85 -103t-71 -96q-24 -41 -45 -139.5t-21 -169.5 q0 -20 5.5 -58.5t16 -86t32 -81.5t47.5 -34q59 0 171 85t201.5 178t112.5 134q22 8 33.5 -10.5t11.5 -32.5q0 -13 -11 -40t-23 -48l-11 -21q-77 -138 -211.5 -257t-241.5 -126q-31 0 -88 36t-88 71q-9 9 -26.5 33t-42.5 66t-42.5 99.5t-17.5 112.5zM430 809h1t7 5q6 7 19 23 t25.5 32.5t32.5 42t34 44.5q21 27 115 156q6 9 5.5 19t-3.5 17.5t4.5 21t27.5 30.5q-4 10 9 56q8 27 8 46q0 13 -4 21q-78 -125 -123 -205q-131 -224 -158 -309z" />
<glyph unicode="m" horiz-adv-x="1355" d="M0 94q22 44 40 91t38 109.5t33 96.5q14 41 45 148t52.5 169t31.5 62q36 0 82 -18t66 -39q-28 -65 -75 -207q-2 -2 -2 -4t6 -8q33 33 99 104t107.5 113.5t49.5 42.5q50 0 102 -22.5t52 -53.5l-33 -254q8 5 24.5 23.5t31 32.5t20.5 14q10 0 14 -4.5t7 -4.5q0 14 49.5 90 t117.5 151t107 75q36 0 71 -30.5t35 -55.5q0 -7 -8 -41.5t-20 -79.5t-15 -59q-9 -32 -37 -115t-42.5 -142.5t-14.5 -105.5q0 -20 1 -28.5t7 -19t19 -22.5q42 19 105 61t107.5 74.5t49.5 32.5q9 0 3 -7t3 -7q8 0 17.5 13t15.5 16q6 23 23.5 44.5t55 57.5t58.5 59 q1 -1 6.5 -5.5t9.5 -8t7.5 -10t3.5 -12.5q0 -46 -58.5 -130t-115.5 -145t-62 -61q-157 -101 -182 -101q-29 0 -55 9q0 3 -39 17q-18 7 -17 11q-68 52 -88 94.5t-20 124.5q0 8 8.5 52.5t21.5 110.5t19 102q-54 -68 -201 -275q-2 -2 -21 -47t-46 -84t-54 -39q-39 0 -87 35.5 t-48 71.5q0 4 35 162q31 141 31 182v8q-55 -55 -264 -283q-5 -5 -45.5 -65t-84.5 -110t-71 -50q-16 0 -50.5 38t-31.5 56z" />
<glyph unicode="n" horiz-adv-x="1079" d="M43 119q0 7 193 637q2 10 9 16t19 7.5t21.5 2t22.5 -0.5t16 -1q10 0 46 -17t44 -32l-78 -237l219 192l23 19q18 13 49 40l3 4q3 4 7.5 9.5t11.5 13t15 14.5t18.5 14t21 12.5t23 9t25.5 3.5q38 0 86.5 -22t48.5 -58q0 -2 -34.5 -103.5t-68.5 -232t-34 -202.5 q0 -131 53 -131q22 0 90 33q59 33 61 34q14 8 20 13t14 13t20 17q12 10 96 102l84 93q11 0 22 -10.5t11 -22.5q0 -55 -73.5 -150.5t-166 -169t-141.5 -73.5q-60 0 -124.5 40t-94.5 83q-19 27 -25 83q-4 32 -4 60q0 22 2 43q0 21 29 170q10 55 30 139q0 2 1.5 9.5t1 13.5 t-4.5 10q-173 -173 -450 -573q-8 -8 -31 -8q-32 0 -79.5 32t-47.5 62z" />
<glyph unicode="o" horiz-adv-x="884" d="M27 238q0 15 14.5 80t32.5 108q37 84 128 224.5t132 140.5q12 0 13.5 -5t8.5 -6q4 12 0.5 22t2 24.5t22.5 27.5q104 65 177 65q9 0 17 -1q26 -6 56 -19q61 -33 94 -74q39 -63 53 -119q13 -49 13 -106v-16q-2 -75 -31.5 -165t-80.5 -175.5t-113 -157t-137 -115t-146 -43.5 q-62 2 -113.5 36t-81 83.5t-45.5 99.5t-16 91zM186 158q0 -72 35 -92q95 26 199 132t171.5 230.5t70.5 210.5q-3 91 -19 123q-24 65 -58 65q-6 0 -12 -2q-38 -14 -129 -137q-95 -129 -141 -201q-117 -188 -117 -329z" />
<glyph unicode="p" horiz-adv-x="1001" d="M-238 -612q5 58 113.5 328t132.5 317q33 106 118 361.5t126 396.5q11 18 56 23q17 1 31 1q22 0 36 -4q-3 24 12 49q33 64 80 106.5t90 43.5h7q59 0 113 -31q57 -33 96.5 -85.5t68.5 -115.5t42 -123q10 -48 10 -88q0 -9 -1 -18q-7 -99 -19.5 -152t-48.5 -145 q-44 -109 -133 -219q-84 -105 -122 -105h-3q-8 0 -9.5 4t0 7.5t-2.5 5.5q-7 -38 -49 -57t-90 -19q-77 5 -135 45t-105 135q-78 -191 -213 -581q-1 -4 -8.5 -32.5t-15 -52t-17.5 -51.5t-22.5 -44.5t-24.5 -16.5q-20 0 -66.5 43.5t-46.5 73.5zM285 346q27 16 61 27.5t49 11.5 q8 -1 13.5 -3t7.5 -4.5t4.5 -7t3.5 -5.5v-21q-47 -18 -89 -112t-42 -142q0 -18 4 -38t17 -39.5t34 -22.5h6q68 0 139 60q74 64 126.5 156.5t87.5 191.5t38 171q0 34 -7 81t-21 100.5t-41 91t-62 39.5h-4q-21 0 -42 -11q-24 -12 -47 -37.5t-43.5 -53.5t-42 -69.5t-38 -74 t-35 -78.5t-28.5 -71.5t-24 -65t-16 -46.5t-9 -28z" />
<glyph unicode="q" horiz-adv-x="1056" d="M37 250q0 74 79.5 191t187 222.5t225.5 182t188 76.5q55 0 112.5 -21t75.5 -65q4 -11 6 -24.5t2.5 -23.5t-1 -26.5t-2.5 -24t-4.5 -26t-4.5 -23.5q-3 -9 9 -28.5t12 -30.5t-30.5 -82.5t-66 -151t-41.5 -98.5q-164 -472 -170 -490q2 -2 3.5 -5l2 -4t4 -2t9.5 -1 q131 82 260 113q3 0 20 4.5t23.5 4t21.5 -6.5q2 -5 2 -10q0 -13 -12 -29l-20 -18q-9 -5 -66 -41t-84 -54t-75 -51t-84 -64t-66 -63q-14 -14 -51 -119t-77 -198.5t-69 -93.5q-25 0 -64.5 41t-39.5 57q0 14 37.5 156t62.5 217q5 12 43 41.5t43 50.5q137 389 137 461v6 q-94 -78 -219 -142q-66 -19 -108 -19q-25 0 -41 7q-51 0 -110.5 80.5t-59.5 124.5zM190 190q0 -8 4.5 -19t4.5 -13q13 -6 34 -6q10 0 22 2q36 4 93 30q58 42 95.5 71t95 76t88 83.5t30.5 58.5q0 7 -31.5 46.5t-31.5 47.5t80 84t80 84v39q-3 0 -9 4t-16 4 q-66 0 -197.5 -119.5t-236.5 -263.5t-105 -209z" />
<glyph unicode="r" horiz-adv-x="845" d="M54 214q42 130 107.5 332.5t96.5 297.5q6 13 20 29t25 16q35 -4 78 -38t43 -50q0 -6 -27.5 -65t-27.5 -79q19 44 87 99q68 56 147 92q73 34 119 33h7q32 -4 74 -21q43 -18 79 -52q34 -32 33 -67v-6q-5 -35 -44 -103t-72 -85l-35 -6q-30 -5 -53 -2q-11 4 -14 9.5t-3 20.5 q45 135 45 150q2 15 -10 24h-18q-140 -33 -240 -145q-57 -63 -96 -117.5t-82 -144.5q-33 -64 -119 -336q-5 -15 -13.5 -22t-15.5 -8t-22 -1q-25 5 -69 47q-42 39 -42 61q0 7 42 137z" />
<glyph unicode="s" horiz-adv-x="860" d="M72 96q0 10 21.5 39.5t43.5 38.5q32 10 58 4q11 -6 13.5 -10.5t2.5 -17.5q-1 -11 -22 -35.5t-21 -36.5q0 -26 27 -47t45 -21q14 0 33 3.5t43.5 15t43.5 29.5q18 16 30 48q8 22 9 49q0 11 -2 23v7q0 43 -33.5 281.5t-33.5 280.5v7q2 66 23 114.5t50.5 75t73 41.5t78.5 19 t78 4q47 0 104.5 -23t103.5 -70t46 -102q0 -22 -45 -81.5t-88 -59.5l-33 4q-36 1 -54 22t-18 35q0 10 31 50.5t31 52.5q0 18 -20.5 26t-33.5 8h-4q-101 0 -140 -48q-33 -41 -33 -131q0 -18 1 -38q0 -9 38 -237.5t38 -325.5q-5 -103 -67 -163q-56 -55 -155 -55q-10 0 -20 1 q-85 5 -166 69q-77 61 -77 146v8z" />
<glyph unicode="t" horiz-adv-x="929" d="M137 127q0 62 30.5 142t60.5 144.5t30 88.5q0 10 -16 29t-36 39.5t-36 53.5t-16 66q7 15 43 26.5t94.5 25.5t91.5 26q0 1 8 13.5t12 19.5q25 45 43 84q2 2 14.5 25.5t28 56.5t21.5 53q58 161 152.5 355t115.5 194q17 0 59 -41t42 -64l-322 -663l35 4q7 1 18.5 2.5t20 2.5 t12.5 1q10 0 132 12.5t132 12.5q15 0 61 3q40 3 74 3h12q40 0 66 -8q7 -11 7 -24q0 -4 -1 -9l-6 -19q-4 -15 -51 -30t-88 -21q-280 -50 -399 -90q-5 -2 -33.5 -9.5t-48 -16.5t-27.5 -23q-95 -160 -95 -225q0 -18 7 -29q-4 -54 -49 -170t-86 -201q-9 -7 -21 -7q-5 0 -10 1 l-14 6q-28 13 -48 69t-20 91z" />
<glyph unicode="u" horiz-adv-x="1058" d="M59 166q0 54 14 118t46.5 145.5t49 119.5t56.5 123q7 16 11 24q3 3 12 5t12 6q-1 20 7 44.5t16 24.5q9 0 10.5 -4t9.5 -4q0 15 14 106q2 0 6 4.5t17 4.5q33 0 81 -30.5t48 -55.5l-15 -25q-14 -26 -37.5 -68.5t-52 -96.5t-57 -117t-52 -124t-38 -122.5t-14.5 -108.5 q0 -49 18 -49q54 0 197 161t265.5 339t135.5 233q4 13 19 20t30 7q17 0 63 -34.5t46 -41.5q0 -10 -10 -26.5t-11 -18.5q-50 -102 -82 -174t-63 -177.5t-31 -185.5q0 -19 10 -57.5t25 -44.5q12 4 28.5 14.5t33 23t37 30.5t36.5 32.5t36 34t30.5 30l25 25l15.5 15.5 q14 -8 47 -8q8 0 9 2t-1.5 4.5t0.5 5.5q-3 52 80 131h29q0 -3 4 -9t4 -16q0 -25 -21.5 -76.5t-42 -89.5t-24.5 -42q-3 -3 -17.5 -7t-23.5 -14q-11 -37 -70 -109t-117 -90q-41 -14 -65 -14q-55 0 -123 58.5t-80 117.5q-19 100 -20 133q-99 -132 -271 -276q-46 -18 -87 -18 q-13 0 -27 2q-54 8 -90 28t-52 45q-16 22 -27.5 61t-11.5 56z" />
<glyph unicode="v" horiz-adv-x="897" d="M152 403q3 22 5 56.5t5 60.5q20 208 20 327v21q0 8 4.5 12.5t13 5.5t16.5 0.5t18 -2t14 -1.5q10 -1 41 -19q27 -12 46.5 -33.5t18.5 -48.5q-2 -29 -15.5 -112t-25 -158.5t-11.5 -160.5t20 -134q78 84 136 149t134 155.5t133 173.5t90 151q6 15 14 59q11 7 21 7 q20 0 36 -24q20 -31 20 -78q0 -9 -1 -19q-2 -63 -24 -127q-12 -44 -146.5 -223t-277.5 -341q-140 -158 -171 -157h-1q-45 7 -78.5 90t-46.5 185q-9 74 -9 137q0 25 1 48z" />
<glyph unicode="w" horiz-adv-x="1302" d="M88 195q0 71 35.5 203t65.5 244q23 84 23 127q0 14 -3 24q6 22 53 22q22 0 65 -12.5t50 -30.5q-4 -44 -48 -207.5t-44 -247.5q3 3 82 124t161 234t103 113q13 0 49 -14.5t59 -30.5q6 -61 6 -141q0 -28 -4 -99.5t-6 -134.5q-2 -50 -1 -102v-26q0 -65 11.5 -103.5 t32.5 -38.5q22 0 80.5 84t85.5 133q16 27 34 74t33.5 77t35.5 40v8q0 29 13 69q15 46 31.5 84t24.5 86q3 16 3 31q0 29 -11 52q6 16 25 22q10 3 21 2q10 0 20 -2q39 -15 61 -60t22 -67q0 -57 -47 -188t-114 -265t-149.5 -236.5t-143.5 -102.5q-64 0 -112 56t-71.5 142.5 t-33.5 172.5q-8 72 -8 137v26q-82 -102 -163 -227.5t-122 -184.5t-66 -59q-33 0 -67 43.5t-53 88t-19 61.5z" />
<glyph unicode="x" horiz-adv-x="944" d="M78 92q3 41 49.5 105t101 117t99.5 98t45 53t-21 67t-24 76q-7 29 -29 86.5t-39.5 102.5t-17.5 55q-3 8 0 16q3 18 14 29q27 10 45 8q18 0 57 -20t60 -49q17 -44 43 -134t39 -129q2 5 76 91q76 86 160 174q84 87 102 86q26 0 66 -44q34 -37 34 -67v-6 q0 -15 -186.5 -209.5t-186.5 -210.5q-2 -17 35 -111q57 -137 96 -190q14 -21 40.5 -58.5t40.5 -59.5t14 -31q-4 -30 -40.5 -45t-56.5 -15q-31 3 -74 56t-82.5 128t-63 123.5t-35.5 76.5q-1 2 -1 3q-31 -9 -96 -86q-8 -9 -32.5 -35.5t-48.5 -54t-42 -51.5q-25 -25 -35 -64 q-25 -18 -47 -16q-25 4 -42 55.5t-17 79.5z" />
<glyph unicode="y" horiz-adv-x="1083" d="M-989 -500q5 67 56.5 131.5t125.5 75.5q2 -2 4.5 -4t2.5 -3t1 -5t0 -10q-1 -14 -6.5 -21t-5.5 -8q-35 -78 -35 -105q-1 -14 -1 -28q0 -76 31 -155q37 -94 101.5 -171t142 -140.5t155 -101t136.5 -42.5q18 -1 35 -1q92 0 178 31q103 37 182.5 102t152.5 161.5t126 195.5 t100.5 218t78 215.5t57.5 201t39 161t22 108.5v1l-10 15q-7 -13 -79 -90.5t-173 -164.5t-158 -102q-16 -6 -23 -6t-36 10q-53 23 -104 95q-46 66 -46 106v8q0 29 36 154t91 246q53 118 92 118h3q21 -2 54 -18t50 -37q-9 -34 -83.5 -203.5t-80.5 -251.5l-2 -51q1 0 5 -3.5 t18 -4.5h3q24 0 81 47q60 49 114 106t115.5 124t69.5 75q24 41 82.5 121t83.5 121q30 47 76 144.5t71 140.5l25 -2q26 0 70 -36.5t44 -60.5q-4 -41 -67 -151t-66 -119q-41 -130 -101.5 -380t-84.5 -339q-17 -57 -35.5 -113.5t-52 -144t-68.5 -166.5t-85.5 -171.5 t-103.5 -168.5t-121.5 -147.5t-140 -119.5t-157.5 -74q-69 -20 -140 -20q-19 0 -38 1q-80 6 -174.5 39t-185.5 84.5t-175 120.5t-146.5 143.5t-96.5 158.5q-30 71 -30 137q0 12 1 23z" />
<glyph unicode="z" horiz-adv-x="1036" d="M33 33q0 10 106 123t266.5 279t194.5 202l57.5 57.5t70 72t50.5 56.5q-21 2 -43 2q-99 0 -213 -41q-24 -7 -77.5 -35.5t-96.5 -53.5t-45 -25q-33 4 -63 54q-26 43 -26 64q0 4 1 7q3 34 65 64t151.5 49t156 29.5t112.5 14.5h24q67 0 136 -14q86 -21 111 -39q28 -21 28 -53 v-6q0 -4 -15 -23t-40 -45t-57 -59.5t-65 -66.5l-66 -66t-58 -57.5t-43 -42.5l-18 -17q-40 -45 -105.5 -115.5t-113 -125t-88.5 -109.5q96 -8 207 -8h25h46q88 0 129 -3l33 -4q-5 -20 2 -39q15 6 33 37l22 -26q4 0 19 8.5t22 11.5q11 2 27 -2q27 -12 27 -39q-15 -15 -81 -42 t-102 -27l-90 6q-12 0 -137.5 -11t-163.5 -16q-8 0 -113 -19.5t-112 -19.5q-18 0 -54 46.5t-36 66.5z" />
<glyph unicode="{" horiz-adv-x="831" d="M-6 29q7 51 52.5 107t106 103.5t121 91.5t104.5 82.5t48 63.5q0 8 -31.5 39t-75.5 74.5t-65 71.5q-19 27 -10 61q0 11 27.5 24t59.5 23.5t34 11.5q100 55 127 77q56 46 67 108q0 32 -47 166q-86 254 -66 407q4 30 16 69t35 83.5t52 79.5t71 55.5t89 13.5q40 -6 123.5 -79 t76.5 -122q-1 -12 -6 -15.5t-6 -10.5q-24 -13 -43 -2q-2 1 -16 10q-6 8 -21 32.5t-26 36.5t-21 13q-35 6 -68 -14.5t-54.5 -53.5t-35 -64t-16.5 -52q-14 -110 29 -279q12 -46 37.5 -129.5t44 -143t18.5 -69.5q-12 -82 -63 -133t-191 -131q13 -28 50 -73.5t60 -84t19 -69.5 q-7 -40 -52.5 -87t-107 -91t-123 -89t-107 -96t-52.5 -98q-12 -97 82 -152q6 -22 -11.5 -40t-35.5 -13l-52 6q-43 6 -75.5 38.5t-48 77t-21.5 88t-2 77.5z" />
<glyph unicode="|" horiz-adv-x="665" d="M176 27q0 10 26 96t48 151q10 32 29.5 102t45.5 168t40 148q42 155 132.5 504t104.5 401q36 36 90 9q24 -7 50 -41t26 -52q0 -6 -39 -136.5t-84 -282t-55 -193.5q-155 -568 -206 -731q-76 -243 -101 -240q-32 4 -45 13q-25 18 -40 38t-18.5 30t-3.5 16z" />
<glyph unicode="}" horiz-adv-x="817" d="M-25 -254q0 5 28 22t69.5 39t90 55t90 68.5t69.5 82t28 91.5q0 49 -24.5 110.5t-49 130.5t-24.5 136q0 35 32.5 71.5t72 60.5t90.5 53t69 43q-9 8 -34 30t-33 29.5t-27 26t-25.5 27.5t-18.5 25.5t-16 28.5t-8 28.5t-4 33.5q0 22 8 38.5t16.5 25t37 29.5t45.5 36 q30 25 61 54t74.5 76t70.5 97.5t27 91.5q0 28 -62.5 90.5t-86.5 77.5q-34 18 -90.5 44t-67.5 26q-9 0 -9 -4t-9 -4q-23 0 -61.5 12t-74.5 39.5t-36 61.5q0 9 1.5 16.5t3 12t6 8t7 5t9.5 2.5t9.5 1h11.5h11q62 0 160.5 -44.5t191.5 -110t160 -149.5t67 -155q0 -19 -8.5 -62.5 t-23.5 -64.5q-25 -41 -94.5 -112.5t-125 -125t-55.5 -61.5q0 -30 25.5 -57.5t62 -48.5l73 -42t62 -46t25.5 -52q0 -20 -33 -49q-1 0 -16 -3t-29 -5.5t-37 -8.5t-43.5 -12t-45.5 -15.5t-45.5 -20.5t-40.5 -25.5t-33.5 -30t-22 -36t-8.5 -42.5q0 -46 21 -102t42 -116t21 -118 q0 -71 -69.5 -163t-169 -157t-177.5 -65q-18 0 -41 5.5t-46.5 23t-23.5 43.5z" />
<glyph unicode="~" horiz-adv-x="798" d="M53 1096q0 61 82 111t158 50q47 0 97.5 -24t86.5 -52t77.5 -50.5t72.5 -20.5t64 20.5t54 39t38 38.5t18 19q22 5 38.5 -7.5t22.5 -41.5q0 -19 -2 -29q-3 -27 -12 -47q-54 -115 -182 -115q-48 0 -101 21.5t-90 47t-75.5 47t-61.5 21.5q-35 0 -59 -12.5t-36 -31 t-21.5 -36.5t-23 -30.5t-32.5 -12.5q-30 0 -71.5 33.5t-41.5 61.5z" />
<glyph unicode="&#xa1;" horiz-adv-x="653" d="M166 68q0 19 19.5 85t49 150.5t56.5 161.5t51 140l23 63q12 18 53.5 102t70.5 113q27 4 43.5 -35.5t16.5 -59.5q0 -13 -11.5 -55.5t-21.5 -64.5q-1 -3 -9.5 -21.5t-12 -27.5t-10.5 -27.5t-10 -31.5t-6 -30t-2.5 -32t3.5 -29q-6 -6 -24.5 -18t-26.5 -21 q-4 -118 -39.5 -257t-67.5 -208q-8 -12 -43.5 0t-68.5 42t-33 61zM532 1421q0 31 25.5 57.5t50.5 26.5q38 0 75.5 -45t43.5 -74q-13 -13 -36.5 -28t-35.5 -15q-40 0 -81.5 27t-41.5 51z" />
<glyph unicode="&#xa2;" horiz-adv-x="958" d="M80 279q0 101 69.5 230.5t170.5 236.5t198 157l35 15q32 107 41 135q31 27 78 6q20 -4 42.5 -30t22.5 -38q0 -3 -10 -33q-3 -20 -12 -40q56 -24 87.5 -73.5t31.5 -109.5q0 -49 -14 -100t-46 -51q-31 0 -64.5 33.5t-33.5 58.5q0 7 13 49.5t13 50.5q0 5 -4 29q-4 17 -12 26 l-16 -45l-86 -251q-62 -209 -142 -447q-2 -2 -2 -8q1 1 5 2t6 2q51 18 103.5 42.5t79.5 39t36 20.5q27 13 80 47l92 62l24 18l97 78q15 3 30 -6l11 -8q0 -15 -7 -31q-14 -31 -73 -92.5t-111 -106.5l-31 -26q-7 0 -10 2t-4.5 6t-3.5 6q-24 -42 -27 -53q-8 0 -20 12 q-5 -5 -10.5 -17t-10.5 -20t-12 -8q-10 0 -17 7t-8 7q0 -25 -23.5 -42.5t-67.5 -34.5t-56 -23q-6 -3 -39.5 -13.5t-38.5 -12.5q-33 -7 -51 -5l-35 -82q-9 -19 -16.5 -28.5t-12.5 -7.5q-3 0 -11.5 1t-14.5 2t-12 5q-52 34 -52 63q0 10 23 74l4 12l-20 13q-71 41 -113.5 129.5 t-42.5 165.5zM252 268q-4 -32 5.5 -88.5t33.5 -93.5l4 -6l16 45q11 33 25 77t30.5 98.5t24.5 80.5l47 156l45 157l-10 -10q-90 -92 -152 -204.5t-69 -211.5z" />
<glyph unicode="&#xa3;" horiz-adv-x="1140" d="M90 31l197 528q0 12 -27 12q-20 0 -42 36t-34 72l-12 36q0 26 42.5 35.5t87.5 9t46 0.5q8 10 24 43t52 113t57 126q15 39 39 86t60.5 100.5t76.5 96t89 70.5t96 26q68 -3 130.5 -56.5t95.5 -121t30 -117.5q0 -31 -18.5 -101.5t-45.5 -70.5q-51 2 -78.5 41.5t-33 86 t-10.5 98t-15 67.5q-56 -17 -104.5 -56.5t-88 -99.5t-65.5 -109t-59.5 -122t-47.5 -100q18 -8 74.5 -12t108 -8t98.5 -27.5t57 -65.5q0 -7 -26 -22t-37 -15q-8 0 -10.5 1.5t-2 3.5t-2 3.5t-10.5 2.5q-10 0 -16.5 -4t-10.5 -11t-5 -8q-11 0 -46.5 -4t-48.5 -4q-6 0 -8.5 1 t-3 2t-0.5 2v2.5t-2 1.5t-6 1t-168 -31q-135 -344 -135 -374l-2 -35q43 -8 134.5 -7t156.5 -1q2 0 18 -1t25 -2t23.5 -4t25.5 -9t18 -15l10 18q21 -4 69.5 -7t88.5 -7.5t82 -14t67.5 -29.5t28.5 -50q-2 -2 -5.5 -8.5t-9 -9t-15.5 -1.5q-6 0 -9 1t-3 2v2t-2 2t-7 1 q-9 0 -20 -19t-21 -19q-15 0 -31 7.5t-22 18.5q-2 -2 -5.5 -11.5t-9.5 -15.5t-16 -6q-9 0 -146.5 11.5t-150.5 11.5q-76 0 -242 -37q-13 -4 -48 -19t-63.5 -26.5t-37.5 -11.5q-54 0 -88.5 45t-34.5 82z" />
<glyph unicode="&#xa4;" horiz-adv-x="1206" d="M-33 -272q-18 40 22.5 141.5t97 188t81.5 96.5q18 11 37 8l14 -4q-23 48 -29 73q-14 49 -14 91q0 2 1 8.5t4 22.5t5 32q9 44 29 102q39 100 123 197l18 21l-22 32q-47 69 -110 148.5t-103 113.5q-19 19 -10 35l8 17q20 39 64 63.5t75 5.5q23 -8 83.5 -101.5t94.5 -180.5 q16 -37 17 -41q110 70 190 61q29 -6 55 -18q63 -34 95 -74q32 -56 45 -96l6 4q186 162 241 235q16 23 33 13l19 -7q43 -16 70.5 -57t11.5 -76q-13 -32 -138.5 -122.5t-210.5 -112.5q-4 -2 -12 -2v-21q-4 -172 -82 -278q-32 -46 -63 -80q76 -32 184.5 -146t114.5 -147 q7 -36 -27.5 -72.5t-77.5 -44.5l-18 -2q-18 -3 -31 19q-20 42 -129 188l-45 58.5t-38.5 49.5t-12.5 17l-4 4q-48 -35 -76 -47q-60 -31 -121 -31q-66 3 -115 37h-2q-3 -9 -10 -16q-34 -30 -93 -104t-104 -135t-47 -62q-34 -38 -55 -31q-14 -8 -39 27zM336 242q0 -72 35 -92 q76 22 151 88q79 70 142 172q62 104 65 170q-3 92 -18 122q-29 77 -70 64q-38 -14 -129 -137q-92 -120 -134 -211.5t-42 -175.5z" />
<glyph unicode="&#xa5;" horiz-adv-x="1163" d="M92 1403q0 5 4.5 9t12 6.5t16.5 4t20 2t21.5 1t20.5 0t17 -1t12 -0.5l5 -1q24 -4 54 -81t68 -211.5t46 -157.5q95 -267 131 -348q65 -17 90 16q2 3 62.5 138.5t129 281.5t145.5 269t114 120q50 -7 80 -45t30 -70q-2 -8 -27.5 -44t-59.5 -83.5t-50 -77.5 q-29 -51 -55 -100.5t-38.5 -74.5t-44.5 -93t-44 -94l-49 -117q34 -4 99 -6.5t110 -11.5q21 -20 24 -43t-2 -33q-14 -13 -19.5 -17t-24.5 -11.5t-44 -10.5q-33 0 -105.5 -5t-84.5 -13l-15 -23q-16 -31 -26 -74l82 -4q47 0 65 -4l17 -4q32 -3 58.5 -12t42 -20.5t27 -22t17 -18 t6.5 -7.5l-4 -41q-64 -9 -124 -8.5t-124 -1.5q-6 -1 -36.5 -5t-54.5 -10t-34 -16q-8 -8 -30.5 -80.5t-47 -150t-62 -139t-73.5 -56.5q-35 4 -86.5 58t-46.5 82q1 5 5.5 13t13.5 18t16.5 18.5t18.5 20t16 16.5q18 23 37 74.5t26 66.5q-25 3 -119.5 -28t-103.5 -31 q-35 4 -64.5 56.5t-29.5 70.5q3 23 80 51t177.5 54t115.5 32l4 24q0 32 -33 35q-11 0 -114 -19.5t-115 -19.5q-24 5 -60.5 47t-36.5 66q3 21 52.5 36t110 25t71.5 15q-69 155 -155.5 435t-127.5 384z" />
<glyph unicode="&#xa6;" horiz-adv-x="722" d="M162 4q0 52 23.5 145.5t50.5 174t53.5 153.5t27.5 76q3 9 7.5 26t7.5 27.5t8.5 22t14 17t20.5 5.5q27 0 75.5 -13.5t61.5 -33.5q-1 -29 -36.5 -99.5t-43.5 -92.5q-20 -51 -35.5 -100t-23.5 -77.5t-24 -91t-25 -94.5q-7 -35 -22 -70.5t-32 -46.5l-6 -2h-16q-28 0 -57 27 t-29 47zM446 936l193 635q5 9 22.5 9.5t40 -8t44.5 -21.5t36.5 -33t14.5 -41q0 -8 -6.5 -23t-17 -37t-15.5 -35q-93 -231 -148 -407q-3 -8 -11 -30.5t-14.5 -40t-15 -37t-18.5 -31t-19 -13.5q-1 1 -13.5 9t-20.5 13.5t-20 17t-19 21.5t-11 24t-2 28z" />
<glyph unicode="&#xa7;" horiz-adv-x="1101" d="M143 139q9 34 50 71t75 26q21 -7 22.5 -34.5t-6 -64.5t-9.5 -75.5t20.5 -72.5t75.5 -50q57 -15 112.5 -10.5t103 39.5t68.5 93q11 37 -0.5 77.5t-42 79t-53 62t-52.5 50.5q-3 3 -5 4.5t-4 3.5q-125 100 -146 129q-73 91 -30 213q30 90 111.5 150.5t207.5 78.5 q-21 24 -57.5 62t-55 58t-41 53.5t-29 61t-5 66.5t17.5 84q21 63 74.5 103.5t117.5 52.5t123 10.5t101 -14.5q75 -26 117 -88.5t14 -126.5q-29 -31 -80 -14l-20 6q-20 10 -25 22q6 41 -2 51.5t-51 22.5q-57 19 -128 -6t-87 -80q-13 -41 0.5 -82.5t46 -77.5t76 -76.5 t89.5 -79.5t87 -86.5t69 -97t34.5 -111.5t-15.5 -130q-12 -38 -42.5 -68t-74.5 -49t-89 -30.5t-97 -18.5q5 -8 21.5 -34t22 -35t19.5 -33t18.5 -35.5t14.5 -34.5t12.5 -37.5t6.5 -37t2.5 -41t-5 -41.5t-10.5 -46q-19 -60 -75.5 -102t-127 -58t-144.5 -14.5t-132 22.5 q-111 37 -168 136.5t-21 203.5zM483 616q-11 -33 10.5 -75t57.5 -54q22 -6 59 -10.5t91 -4.5t98.5 21t60.5 64q15 51 -16.5 120t-69.5 81q-79 28 -172 -20t-119 -122z" />
<glyph unicode="&#xa8;" horiz-adv-x="790" d="M162 1194q4 16 13 25.5t36 31.5q9 8 26 18.5t25 16.5q24 12 75 -2t60 -33q8 -26 -11 -57.5t-62 -56.5q-81 -53 -142 18q-6 3 -12 12q-10 17 -8 27zM524 1184q4 16 13 25.5t36 31.5q9 7 26.5 18t25.5 17q24 12 75 -2t60 -33q8 -26 -11.5 -58t-62.5 -57q-79 -52 -141 19 q-7 4 -13 12q-10 17 -8 27z" />
<glyph unicode="&#xa9;" horiz-adv-x="1937" d="M78 541q0 138 104.5 318t204.5 253q3 2 18 23.5t29 21.5l17 -10q0 39 28 100q2 -2 4 -5t19 -3l33 35q57 65 266 172q228 117 450 117q228 0 349.5 -118.5t121.5 -324.5q0 -162 -43 -312t-147 -301.5t-264 -268.5q-32 -21 -62 -37q-30 -18 -61 -21q-6 -20 -31 -39 q-55 -39 -170 -62.5t-209 -29.5l-33 -4q-57 0 -124.5 15t-137.5 43t-134.5 71.5t-115.5 96.5t-81.5 123.5t-30.5 146.5zM258 477q0 -67 27 -120t73 -84.5t96 -53t109 -31t98.5 -13t75.5 -3.5q136 0 242 27q28 9 47 12q-55 52 27 143q15 7 29 8t26 -2l12 -2q37 0 84 29 q53 38 101.5 88t107.5 143q137 215 164 480q-3 378 -330 348q-497 -82 -866 -604q-108 -156 -123 -365zM512 637q0 82 52.5 187.5t127 193t161.5 148.5t151 61q84 0 135 -52.5t51 -125.5q0 -46 -12.5 -92t-40.5 -46t-59 30.5t-31 53.5q0 4 12 42.5t12 47.5q0 36 -16 54 l-27 -2q-9 -1 -22 -8.5t-28 -19.5t-30 -25t-30 -28l-25.5 -25.5t-19.5 -20.5l-9 -9q-80 -85 -135.5 -185.5t-62.5 -188.5q-4 -12 -0.5 -43t10 -63t24.5 -56.5t43 -24.5q47 3 102.5 21t93.5 37.5t69.5 36.5t33.5 18q70 39 154 98q10 7 53.5 42.5t55.5 43.5q14 3 28 -4l8 -8 q0 -20 -4 -27q-10 -25 -58.5 -75t-91 -88.5t-44.5 -38.5q-6 0 -9 1.5t-4.5 5t-3.5 5.5q-20 -35 -24 -47q-6 0 -19 10q-3 -5 -8 -16t-9.5 -18t-10.5 -7q-9 0 -15 6t-8 6q0 -21 -21 -36t-60 -31t-52 -23l-30 -10q-30 -11 -40 -12q-40 -10 -69 -2q-8 0 -48 15t-61 28 q-64 37 -101.5 117t-37.5 149z" />
<glyph unicode="&#xab;" horiz-adv-x="1439" d="M213 502q-3 10 37 51q91 91 207 188q278 232 307 232q34 -5 84.5 -39.5t46.5 -56.5q-4 -20 -244 -211l-100 -86q-113 -104 -115 -136q-5 -34 40.5 -102.5t103 -133t105 -128t44.5 -88.5q-2 -14 -18.5 -22t-28 -9.5t-18.5 -1.5q-57 6 -139.5 87.5t-149 179.5t-114.5 180.5 t-48 95.5zM625 455q-4 20 134 143t284 237.5t163 114.5q34 -5 84.5 -39.5t46.5 -56.5q-2 -13 -123 -110.5t-242 -204t-124 -142.5q-5 -34 40.5 -102.5t103 -133t105 -128t44.5 -88.5q-1 -11 -11 -18t-22.5 -10t-20.5 -4t-12 -1q-57 6 -139.5 87.5t-148.5 179.5t-114 180.5 t-48 95.5z" />
<glyph unicode="&#xac;" horiz-adv-x="985" d="M185.5 765.5q-12.5 26.5 15.5 63.5q21 15 75.5 22t83.5 7q65 0 136 -1.5t166.5 -5.5t157.5 -13t65 -23q28 -129 28 -293q0 -56 -40.5 -95.5t-81.5 -39.5q-12 0 -32 8.5t-30 18.5q-12 26 -10.5 132.5t-5.5 137.5q-19 23 -160 38t-229 15q-9 0 -38 1t-38 1 q-50 0 -62.5 26.5z" />
<glyph unicode="&#xad;" horiz-adv-x="1097" d="M135 614q9 15 215 27q111 8 205 10l19 -1h36.5t28.5 1q6 1 69 -0.5t103 2.5l16 19q33 -9 50 -39q1 1 3 4.5t2.5 4.5t3 3.5t5 3.5t6.5 2.5t10 1.5q17 1 54 -12.5t63 -30.5q5 -9 5 -17t-1.5 -11t-8 -11.5t-7.5 -9.5q-40 4 -71 -5.5t-46 -21.5t-16 -12q-9 -1 -21.5 6.5 t-21.5 6.5q-12 0 -28.5 -14.5t-27.5 -14.5l-557 -45q-41 4 -70 65.5t-18 87.5z" />
<glyph unicode="&#xae;" horiz-adv-x="1937" d="M78 541q0 138 104.5 318t204.5 253q3 2 18 23.5t29 21.5l17 -10q0 39 28 100q2 -2 4 -5t19 -3l33 35q57 65 266 172q228 117 450 117q228 0 349.5 -118.5t121.5 -324.5q0 -162 -43 -312t-147 -301.5t-264 -268.5q-32 -21 -62 -37q-30 -18 -61 -21q-6 -20 -31 -39 q-55 -39 -170 -62.5t-209 -29.5l-33 -4q-57 0 -124.5 15t-137.5 43t-134.5 71.5t-115.5 96.5t-81.5 123.5t-30.5 146.5zM258 477q0 -67 27 -120t73 -84.5t96 -53t109 -31t98.5 -13t75.5 -3.5q136 0 242 27q28 9 47 12q-55 52 27 143q15 7 29 8t26 -2l12 -2q37 0 84 29 q51 36 101 88t118 148q139 219 154 475q-3 378 -330 348q-497 -82 -866 -604q-108 -156 -123 -365zM559 412q0 4 38.5 128t95 298t93.5 278q2 11 16 27t25 16q33 -4 72 -35.5t39 -46.5q0 -6 -24.5 -60t-24.5 -73q16 42 79.5 93t136.5 84t116 30q30 -4 69 -19.5t72.5 -47 t30.5 -68.5q-5 -31 -41 -94t-66 -80l-33 -4q-28 -6 -49 -2q-8 3 -11.5 6.5t-4 7.5t-0.5 14q6 14 24.5 71t18.5 66q2 14 -8 21l-2 2h-17q-64 -14 -119.5 -47.5t-103 -87.5t-84 -108.5t-80.5 -133.5q-16 -34 -55.5 -148t-52.5 -161q-11 -29 -47 -29q-23 3 -64.5 42.5 t-38.5 60.5z" />
<glyph unicode="&#xb0;" horiz-adv-x="598" d="M129 1221q-3 55 34.5 122t98 115t117.5 51q51 0 93 -32.5t97 -98.5q21 -25 32 -68t11 -65q4 -75 -72 -156t-157 -104q-17 -5 -24.5 -5t-32.5 5q-48 13 -83.5 34t-56 43t-33.5 51.5t-17.5 53.5t-6.5 54zM256 1180q0 -20 16.5 -49t42.5 -29q34 0 77.5 38.5t71.5 87t25 77.5 q0 31 -15.5 55.5t-49.5 23.5q-38 0 -103 -76.5t-65 -127.5z" />
<glyph unicode="&#xb1;" horiz-adv-x="1169" d="M121 80q8 14 215 26q135 9 205 11h84q6 1 69 -0.5t103 2.5l16 18q32 -8 49 -39q0 1 2.5 5t3 4.5l3.5 3.5t5.5 4t6.5 2.5t10 1.5q17 1 54 -12.5t63 -30.5q5 -9 5 -17t-2 -11.5t-8.5 -11t-7.5 -9.5q-40 4 -71 -5.5t-46 -21.5t-16 -12q-9 -1 -21.5 6t-21.5 6 q-11 0 -27 -14.5t-28 -14.5l-557 -45q-41 4 -70 66t-18 88zM219 791q-4 18 4 28q36 6 92 10.5t137.5 9t127.5 7.5q20 24 41.5 111.5t40 160t34.5 72.5q127 0 127 -103q0 -9 -49 -229l98 -6q99 -12 130.5 -22.5t44.5 -36.5v-29q-7 -18 -32.5 -28.5t-43.5 -12.5t-31 -2 q-141 0 -209 -10q-37 -82 -65 -188.5t-45.5 -156t-47.5 -49.5q-28 0 -65 52t-37 75q0 10 33 116t33 116q0 6 -1 10.5t-3 8t-5 5.5t-5 3t-7 1.5t-7 0.5h-7h-6q-10 0 -93.5 -7.5t-93.5 -7.5q-14 0 -41 28.5t-45 55.5z" />
<glyph unicode="&#xb2;" horiz-adv-x="962" d="M195 1032q5 15 63.5 57.5t87.5 49.5q12 27 49 62.5t78 58.5q23 35 67 84t78 93.5t48 90.5l-9 14q-52 -9 -90.5 -31.5t-58.5 -48.5t-34.5 -50.5t-29 -41.5t-32.5 -18q-35 9 -57.5 51t-14.5 80q3 13 18.5 30t16.5 21q16 40 91 92t164.5 83t139.5 15q39 -10 62.5 -30 t29.5 -47.5t5.5 -48t-5.5 -50.5q-11 -42 -72 -126.5t-125 -158.5t-129 -147t-69 -78q47 -22 118.5 -40.5t124 -29t100 -35.5t64.5 -63q0 -13 -23.5 -32.5t-49.5 -18.5q-44 2 -111 19q-8 3 -64.5 19.5t-64.5 19.5q-23 2 -72.5 0.5t-124.5 2t-112 13.5q-28 7 -44.5 60.5 t-12.5 78.5z" />
<glyph unicode="&#xb3;" horiz-adv-x="876" d="M186 989q7 26 65 57.5t75 26.5q23 -5 35 -17t21.5 -35t14.5 -30q37 10 62 18.5t61.5 24t64 37t44.5 47.5q0 12 -3 22.5t-7.5 18t-12 13t-14 9.5t-16.5 6.5t-16.5 4t-16 2t-14 0.5h-11.5h-8q-9 2 -8 -1q1 -4 -1 -5q-3 0 -9 2q-35 5 -78.5 62t-34.5 98l24 10 q24 10 58.5 28.5t68 41.5t54.5 54.5t16 63.5q-3 6 -1 8v1q-4 0 -13 2q-19 3 -28 -7t-10.5 -24t-14.5 -24t-39 -7q-33 5 -56 36.5t-30 64t-5 53.5q4 19 12.5 33t18 22.5t24.5 12.5t26 5.5t30 0t28 -3.5t29 -6l25 -5q11 0 45.5 -21.5t40.5 -31.5q7 -11 20.5 -30.5t18.5 -27 t14 -21.5t12 -21.5t7.5 -19.5t5 -22t0.5 -23t-2 -28q-3 -27 -36 -75t-67 -70q9 -10 34.5 -35t42 -44t35 -45.5t25.5 -56.5t1 -61q-4 -29 -38.5 -70t-93.5 -83.5t-155 -74.5t-205 -38q-61 11 -92 67t-23 111z" />
<glyph unicode="&#xb4;" horiz-adv-x="602" d="M88 1159q5 30 137 102t156 72q8 0 10.5 -3t14.5 -3q9 0 67 23.5t68 23.5q19 0 33 -24.5t14 -36.5q0 -15 -95.5 -77t-190.5 -116.5t-97 -54.5q-29 0 -75 33t-42 61z" />
<glyph unicode="&#xb5;" horiz-adv-x="1073" d="M-375 -664q15 101 369 816q0 -3 15 29.5t40 90l45 103.5t43 100l43 100l56 121l104 232l29 10q37 0 70.5 -44.5t33.5 -78.5q0 -1 -0.5 -2.5t-1.5 -5t-2 -6.5v-4l-16 -29l-7 -12l-65 -142l-92 -194l-17 -34t-19.5 -40t-16.5 -35q-8 -22 -15 -49q-18 -70 -18 -127 q0 -49 18 -49q54 0 197 161t265.5 339t135.5 233q4 13 19 20t30 7q17 0 63 -34.5t46 -41.5q0 -10 -10 -26.5t-11 -18.5q-50 -102 -82 -174t-63 -177.5t-31 -185.5q0 -19 10 -57.5t25 -44.5q56 19 201 164l41 41q14 -8 47 -8q8 0 9 2t-1.5 4.5t0.5 5.5q-3 52 80 131h29 q0 -3 4 -9t4 -16q0 -25 -21.5 -76.5t-42 -89.5t-24.5 -42q-3 -3 -17.5 -7t-23.5 -14q-11 -37 -70 -109t-117 -90q-41 -14 -65 -14q-55 0 -123 58.5t-80 117.5q-19 100 -20 133q-99 -132 -271 -276q-119 -47 -221 22l-27 23l-22 -45l-86 -180q-12 -24 -44.5 -92t-44.5 -93.5 t-37.5 -80.5t-37 -85.5t-28.5 -75t-27 -82t-17 -75.5q-20 -28 -51 -25q-34 0 -62.5 58t-23.5 75z" />
<glyph unicode="&#xb7;" horiz-adv-x="573" d="M233 627q3 11 10 20.5t13 14.5t27 22q9 8 26 18.5t25 16.5q24 12 75 -2t60 -33q8 -26 -11.5 -58t-62.5 -57q-79 -52 -141 19q-6 3 -12 12q-11 19 -9 27z" />
<glyph unicode="&#xb8;" horiz-adv-x="526" d="M113 -385q0 24 16 51t37 27q13 0 22 -15t13.5 -33t14.5 -33t24 -15q36 0 70 36t34 68q0 30 -37 109.5t-37 93.5q0 13 15 71t32 91q8 18 50 18q19 0 50.5 -12.5t37.5 -22.5q-5 -19 -19 -53t-25.5 -60t-11.5 -32q0 -48 39 -119.5t39 -120.5q0 -44 -57.5 -97.5t-102.5 -53.5 q-14 0 -32 -11l-13 11q-2 -2 -3 -4.5t-2 -3.5t-3.5 -2t-7.5 -1q-45 0 -94 36t-49 77z" />
<glyph unicode="&#xb9;" horiz-adv-x="604" d="M209 1075q7 46 25.5 102t47 128.5t40.5 109.5q20 110 20 129q0 3 8 25q13 22 19 22q12 2 30 -2l17 -4q16 -4 40.5 -46.5t24.5 -59.5q0 -23 -48 -189.5t-71 -228.5q-13 -40 -41.5 -70.5t-52.5 -23.5q-33 14 -49 37.5t-10 70.5z" />
<glyph unicode="&#xba;" horiz-adv-x="692" d="M160 1153q0 93 69 216t136 171q6 4 8.5 14t3 25t0.5 18q33 19 55 19q100 0 195.5 -78.5t95.5 -181.5q0 -70 -55 -167t-139.5 -170t-157.5 -73q-62 0 -136.5 72.5t-74.5 134.5zM309 1124q0 -13 4 -28t4 -17h37q50 29 107 86q29 29 75 113.5t46 122.5q-23 76 -54 92 q-72 -46 -145.5 -165.5t-73.5 -203.5z" />
<glyph unicode="&#xbb;" horiz-adv-x="1357" d="M174 145q58 35 117.5 72t157.5 101.5t158.5 118t60.5 79.5q0 29 -172 227q-54 68 -72 86q-85 106 -117 158q-7 18 -9.5 25.5t-2 20.5t7.5 24l31 6q44 9 231 -215q3 -3 126 -150.5t171 -197.5q14 -18 12 -47q0 -40 -144.5 -151.5t-290.5 -204.5t-160 -93q-54 0 -86.5 51.5 t-18.5 89.5zM616 61q9 6 80.5 50t131 83t130 87.5t111.5 88.5t41 62q0 17 -82.5 119t-184.5 226t-132 173q-25 44 -4 70l30 6q31 -3 102.5 -75t145.5 -163t168.5 -203t151.5 -169q12 -15 12 -47q0 -39 -146 -151t-292 -205t-158 -93q-53 0 -88 53t-17 88z" />
<glyph unicode="&#xbc;" horiz-adv-x="1380" d="M143 272q3 29 43 106t84 144t58 74q7 20 51 105t101 193.5t77 147.5q53 109 111 195q3 10 27 58t59.5 110t78.5 108t74 43q21 -4 57.5 -39t36.5 -49q0 -7 -15.5 -26t-41 -47.5t-37.5 -44.5q-79 -110 -207 -344q-205 -370 -428 -799q-44 -30 -71 -27q-22 3 -36.5 25 t-18 39.5t-3.5 27.5zM260 938q-6 61 14.5 195t22.5 161q0 19 -3 72t-3 59q0 19 2 25q3 24 14 27q5 4 31 4h16q14 0 48.5 -37t37.5 -53q4 -24 -7.5 -194t-20.5 -241q-5 -44 -26 -79t-46 -31q-35 5 -55.5 25t-24.5 67zM508 379q0 15 65 83.5t82 80.5q125 120 164 168 q15 18 53 62.5t59.5 70t54.5 61.5t61 64q12 12 53.5 29.5t58.5 17.5q28 0 72.5 -30t44.5 -58q0 -21 -23 -62q-3 -8 1 -30t3 -27q-5 -31 -16.5 -65t-20.5 -53.5t-32.5 -65.5t-32.5 -64l-18 -69q6 -6 65.5 -19.5t83.5 -34.5q10 -27 -11.5 -45t-39.5 -18q-8 0 -9 2l1 2 q-4 3 -8 4q-10 0 -32 -5.5t-61 -17t-51 -14.5q-70 -127 -123 -315q-4 -10 -9 -23t-8 -20t-10.5 -18.5t-19.5 -24.5l-47 10q-61 58 -61 94q0 16 29 104.5t55 155.5q-28 13 -138 -20t-145 -33q-34 0 -62 44t-28 79zM834 481q6 -6 18 -6h12l90 8l39 109q10 23 19.5 51.5 t15 44.5t8.5 19q-126 -145 -202 -226z" />
<glyph unicode="&#xbd;" horiz-adv-x="1314" d="M143 272q3 29 43 106t84 144t58 74q7 20 51 105t101 193.5t77 147.5q53 109 111 195q3 10 27 58t59.5 110t78.5 108t74 43q21 -4 57.5 -39t36.5 -49q0 -7 -15.5 -26t-41 -47.5t-37.5 -44.5q-79 -110 -207 -344q-205 -370 -428 -799q-44 -30 -71 -27q-22 3 -36.5 25 t-18 39.5t-3.5 27.5zM260 938q-6 61 14.5 195t22.5 161q0 19 -3 72t-3 59q0 19 2 25q3 24 14 27q5 4 31 4h16q14 0 48.5 -37t37.5 -53q4 -24 -7.5 -194t-20.5 -241q-5 -44 -26 -79t-46 -31q-35 5 -55.5 25t-24.5 67zM535 150q0 14 54.5 66.5t78.5 59.5q7 29 39 69.5t69 70.5 q13 30 78 131.5t74 161.5l-10 14q-51 -17 -86 -45t-51 -56.5t-27.5 -55t-23 -45.5t-28.5 -23q-37 4 -66 42.5t-24 75.5q1 13 13.5 33t13.5 23q11 44 76.5 106t149 106t136.5 36q39 -4 65.5 -21t37 -42.5t14 -49t0.5 -49.5q-4 -35 -35.5 -100.5t-76 -140t-85.5 -139 t-78 -120.5t-40 -61q49 -15 122 -23.5t127 -11.5t105 -20.5t74 -51.5q0 -14 -20 -37t-46 -24q-40 -4 -112 2q-8 0 -66.5 9t-66.5 9t-69 -9.5t-131.5 -16.5t-109.5 -3q-29 4 -54 56t-21 74z" />
<glyph unicode="&#xbe;" horiz-adv-x="1570" d="M125 758q0 28 51 67t72 39q22 0 35.5 -9.5t27.5 -30t21 -27.5q47 22 78.5 39.5t71 52t57.5 72.5q-5 24 -17.5 38t-30.5 17.5t-32.5 4t-31.5 -2t-19 -2.5q-9 -1 -8 -4q-5 -3 -9 -4q-37 0 -88 48.5t-51 90.5l12 7q12 8 31 20.5t41.5 30t43 38t36.5 43.5t21.5 46.5 t-1.5 47.5q-3 4 -2 7h-1l-13 -1q-19 0 -26.5 -11.5t-6.5 -26t-10 -26t-37 -11.5q-48 0 -81.5 49.5t-33.5 85.5q0 22 6 39t19.5 27t25.5 16t33 8t32.5 2.5t34 0t27.5 -0.5q13 0 50 -14.5t45 -22.5q68 -68 81 -87q23 -36 27 -91q0 -28 -24 -80t-52 -80q13 -12 50 -38.5t61 -46 t45 -55t21 -75.5q0 -31 -27 -76.5t-77.5 -97t-139 -99.5t-195.5 -73q-64 0 -103.5 50t-39.5 106zM236 90q54 134 118.5 243.5t163.5 198.5q40 58 177.5 282.5t176.5 275.5q135 247 183 372q20 7 51 4l29 -4q69 -59 69 -108q0 -26 -66 -136.5t-148.5 -238.5t-94.5 -148 q-93 -155 -173 -275t-117.5 -169.5t-73.5 -108t-66 -128.5q-13 -35 -62 -98.5t-67 -63.5q-17 0 -35.5 15.5t-30.5 33t-22.5 35t-11.5 18.5zM715 379q0 15 65 83.5t82 80.5q125 120 164 168q18 20 53.5 63t58 69t55 62t60.5 64q12 12 54 29.5t59 17.5q28 0 72.5 -30t44.5 -58 q0 -21 -23 -62q-3 -8 1 -30t3 -27q-5 -31 -16.5 -65t-20.5 -53.5t-32.5 -65.5t-32.5 -64l-19 -69q6 -6 66 -19.5t84 -34.5q10 -27 -11.5 -45t-39.5 -18q-9 1 -8 4q-5 3 -9 4q-10 0 -32 -5.5t-60 -16.5t-51 -15q-70 -127 -123 -315q-4 -10 -9 -23t-8 -20t-10.5 -18.5 t-19.5 -24.5l-47 10q-61 58 -61 94q0 17 28.5 105.5t54.5 154.5q-28 13 -137.5 -20t-144.5 -33q-34 0 -62 44t-28 79zM1040 481q6 -6 19 -6h12l90 8l39 109q10 23 19.5 51.5t15 44.5t8.5 19q-112 -128 -203 -226z" />
<glyph unicode="&#xbf;" horiz-adv-x="1087" d="M244 281q0 62 50 128t109 115q89 74 185.5 139t156 99.5t109.5 69t70.5 67t15.5 72.5q0 4 -3.5 17.5t-5.5 24.5t-0.5 23.5t7.5 18.5q2 1 5.5 4t10 5.5t17.5 2.5q28 0 49.5 -17t32 -42.5t15.5 -47t5 -36.5q0 -58 -36.5 -115t-95.5 -105t-130 -95t-142.5 -92t-130.5 -89 t-97 -93t-40 -97q0 -37 39 -66.5t97.5 -45.5t120 -23t112.5 -5q162 22 162 95q0 11 -27.5 58t-27.5 58q0 15 15.5 33t31.5 18q43 0 88.5 -52.5t71.5 -113.5t26 -96q-1 -32 -19.5 -57t-42.5 -40t-63 -26t-65.5 -16t-66.5 -7.5t-50 -2.5h-31q-61 -3 -149.5 20.5t-173.5 65 t-145 108t-60 138.5zM858 1481q0 16 28.5 37.5t41.5 21.5q50 0 88.5 -53t38.5 -90q0 -23 -13 -37t-34 -14q-63 0 -106.5 46t-43.5 89z" />
<glyph unicode="&#xc0;" horiz-adv-x="1243" d="M18 68q0 43 56 131t112 163.5t56 88.5q0 9 -23 52t-26 60q14 19 86 45q13 3 37 11.5t32 11.5q25 29 45.5 57.5t53.5 78.5t47 71q37 54 114 165t118.5 174t95.5 152t86.5 164.5t49.5 146.5q50 12 99.5 -27.5t56.5 -101.5l-123 -778l219 10q10 0 23.5 -0.5t37.5 -1.5t50 -2 q24 -4 30 -14t1 -31q-13 -39 -58 -39q-15 0 -80.5 -10.5t-103.5 -21.5q-73 -17 -96 -27l-39 -12q-57 -352 -45 -574q0 -23 -21 -57.5t-43 -34.5q-33 0 -79.5 55t-74.5 104t-34 66q11 9 31 9l53 -15q11 62 32 239t21 197q-246 -40 -395 -102q-8 -4 -18.5 -17.5t-18.5 -27 t-21.5 -38.5t-19.5 -36q-23 -37 -64.5 -117t-48.5 -94q-46 -82 -57 -164q-5 -11 -18.5 -18.5t-30.5 -7.5q-14 0 -59.5 50t-45.5 67zM545 662l123 24q78 15 168 29q9 56 69 471q-41 -62 -172 -249t-188 -275zM720 2115.5q9 43.5 17 51.5q7 7 31 4l20 -4q28 0 126.5 -60 t187 -133.5t88.5 -105.5q0 -21 -15 -35t-28 -14q-59 0 -228.5 92t-197.5 137q-10 24 -1 67.5z" />
<glyph unicode="&#xc1;" horiz-adv-x="1236" d="M18 68q0 43 56 131t112 163.5t56 88.5q0 9 -23 52t-26 60q14 19 86 45q13 3 37 11.5t32 11.5q25 29 45.5 57.5t53.5 78.5t47 71q37 54 114 165t118.5 174t95.5 152t86.5 164.5t49.5 146.5q50 12 99.5 -27.5t56.5 -101.5l-123 -778l219 10q10 0 23.5 -0.5t37.5 -1.5t50 -2 q24 -4 30 -14t1 -31q-13 -39 -58 -39q-15 0 -80.5 -10.5t-103.5 -21.5q-73 -17 -96 -27l-39 -12q-57 -352 -45 -574q0 -23 -21 -57.5t-43 -34.5q-33 0 -79.5 55t-74.5 104t-34 66q11 9 31 9l53 -15q11 62 32 239t21 197q-246 -40 -395 -102q-8 -4 -18.5 -17.5t-18.5 -27 t-21.5 -38.5t-19.5 -36q-23 -37 -64.5 -117t-48.5 -94q-46 -82 -57 -164q-5 -11 -18.5 -18.5t-30.5 -7.5q-14 0 -59.5 50t-45.5 67zM545 662l123 24q78 15 168 29q9 56 69 471q-41 -62 -172 -249t-188 -275zM850 1931q5 30 137 102t156 72q8 0 10 -3t14 -3q9 0 67.5 23.5 t68.5 23.5q19 0 33 -24.5t14 -36.5q0 -15 -95.5 -77t-190.5 -116.5t-97 -54.5q-29 0 -75 33t-42 61z" />
<glyph unicode="&#xc2;" horiz-adv-x="1236" d="M18 68q0 43 56 131t112 163.5t56 88.5q0 9 -23 52t-26 60q14 19 86 45q13 3 37 11.5t32 11.5q25 29 45.5 57.5t53.5 78.5t47 71q37 54 114 165t118.5 174t95.5 152t86.5 164.5t49.5 146.5q50 12 99.5 -27.5t56.5 -101.5l-123 -778l219 10q10 0 23.5 -0.5t37.5 -1.5t50 -2 q24 -4 30 -14t1 -31q-13 -39 -58 -39q-15 0 -80.5 -10.5t-103.5 -21.5q-73 -17 -96 -27l-39 -12q-57 -352 -45 -574q0 -23 -21 -57.5t-43 -34.5q-33 0 -79.5 55t-74.5 104t-34 66q11 9 31 9l53 -15q11 62 32 239t21 197q-246 -40 -395 -102q-8 -4 -18.5 -17.5t-18.5 -27 t-21.5 -38.5t-19.5 -36q-23 -37 -64.5 -117t-48.5 -94q-46 -82 -57 -164q-5 -11 -18.5 -18.5t-30.5 -7.5q-14 0 -59.5 50t-45.5 67zM545 662l123 24q78 15 168 29q9 56 69 471q-41 -62 -172 -249t-188 -275zM692 1919q4 46 94 107.5t186 101t126 35.5q41 0 104.5 -75.5 t108.5 -157t45 -105.5q-5 -12 -30.5 -35t-37.5 -23q-27 2 -56 41t-48.5 85t-42 85t-37.5 41q-40 3 -117 -50t-137.5 -105.5t-63.5 -51.5q-33 0 -65 34t-29 73z" />
<glyph unicode="&#xc3;" horiz-adv-x="1236" d="M18 68q0 43 56 131t112 163.5t56 88.5q0 9 -23 52t-26 60q14 19 86 45q13 3 37 11.5t32 11.5q25 29 45.5 57.5t53.5 78.5t47 71q37 54 114 165t118.5 174t95.5 152t86.5 164.5t49.5 146.5q50 12 99.5 -27.5t56.5 -101.5l-123 -778l219 10q10 0 23.5 -0.5t37.5 -1.5t50 -2 q24 -4 30 -14t1 -31q-13 -39 -58 -39q-15 0 -80.5 -10.5t-103.5 -21.5q-73 -17 -96 -27l-39 -12q-57 -352 -45 -574q0 -23 -21 -57.5t-43 -34.5q-33 0 -79.5 55t-74.5 104t-34 66q11 9 31 9l53 -15q11 62 32 239t21 197q-246 -40 -395 -102q-8 -4 -18.5 -17.5t-18.5 -27 t-21.5 -38.5t-19.5 -36q-23 -37 -64.5 -117t-48.5 -94q-46 -82 -57 -164q-5 -11 -18.5 -18.5t-30.5 -7.5q-14 0 -59.5 50t-45.5 67zM545 662l123 24q78 15 168 29q9 56 69 471q-41 -62 -172 -249t-188 -275zM725 1960q7 60 94.5 97.5t165.5 29.5q45 -7 89.5 -37t81 -58.5 t63.5 -31.5q32 -2 67 11.5t58 30.5t42.5 33t20.5 17q22 0 38 -14t17 -43l-6 -29l-18 -45q-87 -126 -209 -100q-74 20 -123 69q-50 50 -96 58q-34 6 -59 -2.5t-40 -25t-27.5 -33t-27.5 -28t-33 -8.5q-32 5 -67 43t-31 66z" />
<glyph unicode="&#xc4;" horiz-adv-x="1236" d="M18 68q0 43 56 131t112 163.5t56 88.5q0 9 -23 52t-26 60q14 19 86 45q13 3 37 11.5t32 11.5q25 29 45.5 57.5t53.5 78.5t47 71q37 54 114 165t118.5 174t95.5 152t86.5 164.5t49.5 146.5q50 12 99.5 -27.5t56.5 -101.5l-123 -778l219 10q10 0 23.5 -0.5t37.5 -1.5t50 -2 q24 -4 30 -14t1 -31q-13 -39 -58 -39q-15 0 -80.5 -10.5t-103.5 -21.5q-73 -17 -96 -27l-39 -12q-57 -352 -45 -574q0 -23 -21 -57.5t-43 -34.5q-33 0 -79.5 55t-74.5 104t-34 66q11 9 31 9l53 -15q11 62 32 239t21 197q-246 -40 -395 -102q-8 -4 -18.5 -17.5t-18.5 -27 t-21.5 -38.5t-19.5 -36q-23 -37 -64.5 -117t-48.5 -94q-46 -82 -57 -164q-5 -11 -18.5 -18.5t-30.5 -7.5q-14 0 -59.5 50t-45.5 67zM545 662l123 24q78 15 168 29q9 56 69 471q-41 -62 -172 -249t-188 -275zM729 1962q4 16 13 25.5t36 31.5q9 8 26 18.5t25 16.5 q24 12 75.5 -2t60.5 -33q8 -26 -11.5 -57.5t-62.5 -56.5q-80 -52 -141 18q-8 4 -13 12q-10 17 -8 27zM1092 1952q4 16 13 25.5t36 31.5q9 8 26 18.5t25 16.5q24 12 75 -2t60 -33q8 -26 -11.5 -58t-62.5 -57q-79 -52 -141 19q-6 3 -12 12q-10 17 -8 27z" />
<glyph unicode="&#xc5;" horiz-adv-x="1236" d="M18 68q0 43 56 131t112 163.5t56 88.5q0 5 -9 20l-30 64q-5 9 -10 28q14 19 86 45q13 3 37 11.5t32 11.5q25 29 45.5 57.5t53.5 78.5t47 71q35 52 106 155t112 163.5t91.5 143.5t83.5 150q30 58 45 102q-47 14 -84 39q-53 38 -72.5 84t-23.5 109q-3 55 34 122.5 t97.5 115.5t117.5 51q51 0 93.5 -33t97.5 -98q21 -25 32 -68.5t11 -65.5q3 -57 -42 -120t-110 -103q1 -2 4 -5t4.5 -5.5t2.5 -5.5q17 -28 20 -58l-123 -778h27q8 0 23 1t20 1q10 0 83 2t83 2q7 0 40 -1t66 -1q0 -1 11.5 -14t7.5 -29q-13 -39 -58 -39q-15 0 -80.5 -10.5 t-103.5 -21.5q-20 0 -135 -39q-57 -352 -45 -574q0 -23 -21 -57.5t-43 -34.5q-33 0 -79.5 55t-74.5 104t-34 66q11 9 31 9l53 -15q11 62 32 239t21 197q-12 -4 -166 -35t-229 -67q-8 -4 -18.5 -17.5t-18.5 -27t-21.5 -38.5t-19.5 -36q-23 -37 -64.5 -117t-48.5 -94 q-46 -82 -57 -164q-5 -11 -18.5 -18.5t-30.5 -7.5q-14 0 -59.5 50t-45.5 67zM545 662l123 24q7 -1 31 4t63.5 13t73.5 12q9 56 69 471q-41 -62 -172 -249t-188 -275zM879 1743q0 -20 16.5 -49t42.5 -29q34 0 77.5 38.5t71.5 87t25 77.5q0 31 -15.5 56t-49.5 24 q-38 0 -103 -77t-65 -128z" />
<glyph unicode="&#xc6;" horiz-adv-x="1908" d="M18 68q0 43 56 131t112 163.5t56 88.5q0 5 -9 20l-30 64q-5 9 -10 28q14 19 86 45q13 3 37 11.5t32 11.5q25 29 45.5 57.5t53.5 78.5t47 71q37 54 114 165t118.5 174t95.5 152t86.5 164.5t49.5 146.5q50 12 99.5 -27.5t56.5 -101.5l-10 -61q10 2 45 2l82 6q141 9 194 1 t90 -22t52 -14q11 0 18 9.5t19 9.5q6 0 65.5 -8.5t137 -18t122.5 -12.5q8 -1 33 -21t33 -20q12 0 19 9t18 9q20 0 45.5 -17t31.5 -40q-1 -1 -6 -8t-11 -11t-17 -10t-30 -9t-44 -3l-420 27h-121q-111 0 -170 -11q7 -7 27.5 -21t31.5 -28t11 -32q0 -9 -46 -88t-109 -189 t-93 -174h88l451 31q28 0 55 -15q8 -13 4 -32l-6 -13q-1 -1 -9.5 -12.5t-18 -19.5t-19.5 -11q-55 -19 -154 -37t-121 -18q-12 0 -15 4t-15 4q-17 0 -130 -16t-182 -31q-104 -152 -104 -369q0 -37 1.5 -61.5t6 -55.5t14.5 -50.5t26 -37.5t42 -25.5t61 -6.5q132 4 326.5 98.5 t296.5 196.5q31 24 77.5 72t80.5 75t63 27q12 0 19 -5t9 -14.5t2.5 -17t-0.5 -19.5t-1 -16q0 -12 -13.5 -30.5t-36 -42t-28.5 -31.5q-96 -105 -210 -198t-243.5 -159.5t-226.5 -66.5h-41q-90 0 -157 33q-55 22 -95 59q-21 -37 -43 -37q-33 0 -79.5 55t-74.5 104t-34 66 q11 9 31 9l53 -15q11 62 32 239t21 197q-12 -4 -166 -35t-229 -67q-8 -4 -18.5 -17.5t-18.5 -27t-21.5 -38.5t-19.5 -36q-23 -37 -64.5 -117t-48.5 -94q-46 -82 -57 -164q-5 -11 -18.5 -18.5t-30.5 -7.5q-14 0 -59.5 50t-45.5 67zM545 662l123 24q7 -1 31 4t63.5 13t73.5 12 q9 56 69 471q-41 -62 -172 -249t-188 -275zM1034 1001l43 80l107 189v24l2 2q0 4 -15 4q-7 0 -22.5 -5.5t-38 -15t-35.5 -13.5z" />
<glyph unicode="&#xc7;" horiz-adv-x="1314" d="M14 350q0 23 18 110t42 140q3 5 21 24.5t24 32.5q8 14 13 51t9 50q7 25 40.5 78.5t41.5 74.5q21 17 43 51.5t37.5 64.5t41 56t56.5 31q34 92 70 139q27 38 106 116t147.5 139t74.5 61q13 0 18.5 -4t7.5 -4q40 72 148.5 139t210.5 67q77 0 126.5 -59.5t49.5 -130.5 q0 -39 -16 -100.5t-47.5 -131t-72 -130.5t-96.5 -101.5t-114 -40.5q-9 0 -25 4l-8 6q-3 17 56.5 117t121.5 210.5t62 148.5v47q-12 12 -37 12q-31 0 -117.5 -51.5t-160.5 -105t-83 -66.5q-86 -83 -170.5 -179t-171.5 -216.5t-152.5 -237.5t-107 -244.5t-41.5 -236.5 q0 -50 9.5 -98.5t31.5 -99.5t68 -82.5t110 -31.5q86 0 210 51.5t213.5 102.5t92.5 51q13 0 15 -4t4 -4q9 9 -2 20q13 8 33.5 25.5t33.5 24.5q182 101 316 239h8q12 -4 20 -10q-10 -69 -27 -102q-11 -19 -26 -37q-107 -125 -278 -246.5t-340 -181.5q-75 -28 -121 -35 q-3 -17 -12 -31q-7 -19 -17.5 -44t-17 -41t-6.5 -21q0 -48 38.5 -119.5t38.5 -120.5q0 -44 -57 -98t-102 -54q-16 0 -33 -10l-12 10q-2 -2 -3.5 -4t-2 -3t-3.5 -2t-8 -1q-45 0 -94 36t-49 77q0 24 16 51t37 27q13 0 22 -15t13.5 -33.5t14.5 -33.5t24 -15q35 0 69.5 36.5 t34.5 68.5q0 30 -36.5 109.5t-36.5 93.5q0 27 28 116q1 2 2 6t2 5h-12q-13 0 -60 15.5t-73 29.5q-69 38 -126 118t-86.5 169t-29.5 165z" />
<glyph unicode="&#xc8;" horiz-adv-x="1257" d="M-72 764q0 8 2 14q3 15 11 19q57 0 143 2l86 2q34 0 57 6l43 6q3 10 11 27.5t10 23.5q35 77 39 84q118 224 209 379v25q2 0 2 2q0 4 -15 4q-10 0 -59 -20.5t-61 -20.5q-40 0 -76.5 56t-36.5 93q10 10 37 17t65.5 13t50.5 9q8 3 31 4t55.5 3t53.5 4q141 9 194 1t90 -22 t52 -14q12 0 18 9t18 9q6 0 65.5 -8.5t137.5 -18t123 -12.5q8 -1 33 -21t33 -20q12 0 18 9.5t18 9.5q20 0 46 -17.5t32 -40.5q-1 -1 -6 -8t-11 -11t-17 -10t-30 -9t-44 -3l-420 27h-28q-29 1 -59.5 1t-68.5 -0.5t-74.5 -3.5t-60.5 -7q7 -7 27.5 -21.5t31.5 -28.5t11 -32 q0 -9 -46 -88t-109 -189t-93 -174h88l451 31q30 0 55 -14q8 -13 4 -33l-6 -12q-1 -1 -9.5 -12.5t-18 -19.5t-19.5 -11q-55 -19 -154.5 -37.5t-120.5 -18.5q-11 0 -15 4.5t-15 4.5q-17 0 -130 -16.5t-182 -31.5q-104 -152 -104 -368q0 -45 2 -73.5t10 -64t23.5 -55.5 t45 -33.5t70.5 -11.5q132 4 326.5 98.5t296.5 196.5q31 24 77.5 72t80.5 75t63 27q12 0 19 -4.5t9 -14t2.5 -17t-0.5 -19.5t-1 -16q0 -12 -13.5 -30.5t-36 -43t-28.5 -31.5q-96 -105 -210 -198t-243.5 -159.5t-226.5 -66.5h-41q-172 0 -273.5 114.5t-101.5 284.5 q0 63 19 162t43 158q3 20 -31 20q-12 0 -55.5 -7t-55.5 -7q-50 0 -83.5 35t-49.5 84zM566.5 1941.5q9.5 43.5 17.5 51.5q7 7 30 4l21 -4q28 0 126 -60t186.5 -133.5t88.5 -105.5q0 -21 -15 -35t-28 -14q-59 0 -228.5 92t-197.5 137q-10 24 -0.5 67.5z" />
<glyph unicode="&#xc9;" horiz-adv-x="1257" d="M-72 764q0 8 2 14q3 15 11 19q57 0 143 2l86 2q34 0 57 6l43 6q3 10 11 27.5t10 23.5q35 77 39 84q118 224 209 379v25q2 0 2 2q0 4 -15 4q-10 0 -59 -20.5t-61 -20.5q-40 0 -76.5 56t-36.5 93q10 10 37 17t65.5 13t50.5 9q8 3 31 4t55.5 3t53.5 4q141 9 194 1t90 -22 t52 -14q12 0 18 9t18 9q6 0 65.5 -8.5t137.5 -18t123 -12.5q8 -1 33 -21t33 -20q12 0 18 9.5t18 9.5q20 0 46 -17.5t32 -40.5q-1 -1 -6 -8t-11 -11t-17 -10t-30 -9t-44 -3l-420 27h-28q-29 1 -59.5 1t-68.5 -0.5t-74.5 -3.5t-60.5 -7q7 -7 27.5 -21.5t31.5 -28.5t11 -32 q0 -9 -46 -88t-109 -189t-93 -174h88l451 31q30 0 55 -14q8 -13 4 -33l-6 -12q-1 -1 -9.5 -12.5t-18 -19.5t-19.5 -11q-55 -19 -154.5 -37.5t-120.5 -18.5q-11 0 -15 4.5t-15 4.5q-17 0 -130 -16.5t-182 -31.5q-104 -152 -104 -368q0 -45 2 -73.5t10 -64t23.5 -55.5 t45 -33.5t70.5 -11.5q132 4 326.5 98.5t296.5 196.5q31 24 77.5 72t80.5 75t63 27q12 0 19 -4.5t9 -14t2.5 -17t-0.5 -19.5t-1 -16q0 -12 -13.5 -30.5t-36 -43t-28.5 -31.5q-96 -105 -210 -198t-243.5 -159.5t-226.5 -66.5h-41q-172 0 -273.5 114.5t-101.5 284.5 q0 63 19 162t43 158q3 20 -31 20q-12 0 -55.5 -7t-55.5 -7q-50 0 -83.5 35t-49.5 84zM786 1761q7 27 133.5 96.5t147.5 69.5q8 0 10.5 -3t14.5 -3q9 0 64 22.5t65 22.5q19 0 32 -22.5t13 -36.5q-1 -20 -179.5 -128t-187.5 -108q-28 0 -72.5 31t-40.5 59z" />
<glyph unicode="&#xca;" horiz-adv-x="1257" d="M-72 764q0 8 2 14q3 15 11 19q57 0 143 2l86 2q34 0 57 6l43 6q3 10 11 27.5t10 23.5q35 77 39 84q118 224 209 379v25q2 0 2 2q0 4 -15 4q-10 0 -59 -20.5t-61 -20.5q-40 0 -76.5 56t-36.5 93q10 10 37 17t65.5 13t50.5 9q8 3 31 4t55.5 3t53.5 4q141 9 194 1t90 -22 t52 -14q12 0 18 9t18 9q6 0 65.5 -8.5t137.5 -18t123 -12.5q8 -1 33 -21t33 -20q12 0 18 9.5t18 9.5q20 0 46 -17.5t32 -40.5q-1 -1 -6 -8t-11 -11t-17 -10t-30 -9t-44 -3l-420 27h-28q-29 1 -59.5 1t-68.5 -0.5t-74.5 -3.5t-60.5 -7q7 -7 27.5 -21.5t31.5 -28.5t11 -32 q0 -9 -46 -88t-109 -189t-93 -174h88l451 31q30 0 55 -14q8 -13 4 -33l-6 -12q-1 -1 -9.5 -12.5t-18 -19.5t-19.5 -11q-55 -19 -154.5 -37.5t-120.5 -18.5q-11 0 -15 4.5t-15 4.5q-17 0 -130 -16.5t-182 -31.5q-104 -152 -104 -368q0 -45 2 -73.5t10 -64t23.5 -55.5 t45 -33.5t70.5 -11.5q132 4 326.5 98.5t296.5 196.5q31 24 77.5 72t80.5 75t63 27q12 0 19 -4.5t9 -14t2.5 -17t-0.5 -19.5t-1 -16q0 -12 -13.5 -30.5t-36 -43t-28.5 -31.5q-96 -105 -210 -198t-243.5 -159.5t-226.5 -66.5h-41q-172 0 -273.5 114.5t-101.5 284.5 q0 63 19 162t43 158q3 20 -31 20q-12 0 -55.5 -7t-55.5 -7q-50 0 -83.5 35t-49.5 84zM614 1769q4 42 89.5 99t178 94t122.5 33q39 0 99.5 -70.5t103 -145.5t42.5 -96q-6 -11 -28.5 -32t-34.5 -21q-26 2 -54 38t-47 78.5t-40 79t-35 38.5q-40 2 -112.5 -47t-130 -98 t-62.5 -48q-32 0 -63.5 30.5t-27.5 67.5z" />
<glyph unicode="&#xcb;" horiz-adv-x="1257" d="M-72 764q0 8 2 14q3 15 11 19q57 0 143 2l86 2q34 0 57 6l43 6q3 10 11 27.5t10 23.5q35 77 39 84q118 224 209 379v25q2 0 2 2q0 4 -15 4q-10 0 -59 -20.5t-61 -20.5q-40 0 -76.5 56t-36.5 93q10 10 37 17t65.5 13t50.5 9q8 3 31 4t55.5 3t53.5 4q141 9 194 1t90 -22 t52 -14q12 0 18 9t18 9q6 0 65.5 -8.5t137.5 -18t123 -12.5q8 -1 33 -21t33 -20q12 0 18 9.5t18 9.5q20 0 46 -17.5t32 -40.5q-1 -1 -6 -8t-11 -11t-17 -10t-30 -9t-44 -3l-420 27h-28q-29 1 -59.5 1t-68.5 -0.5t-74.5 -3.5t-60.5 -7q7 -7 27.5 -21.5t31.5 -28.5t11 -32 q0 -9 -46 -88t-109 -189t-93 -174h88l451 31q30 0 55 -14q8 -13 4 -33l-6 -12q-1 -1 -9.5 -12.5t-18 -19.5t-19.5 -11q-55 -19 -154.5 -37.5t-120.5 -18.5q-11 0 -15 4.5t-15 4.5q-17 0 -130 -16.5t-182 -31.5q-104 -152 -104 -368q0 -45 2 -73.5t10 -64t23.5 -55.5 t45 -33.5t70.5 -11.5q132 4 326.5 98.5t296.5 196.5q31 24 77.5 72t80.5 75t63 27q12 0 19 -4.5t9 -14t2.5 -17t-0.5 -19.5t-1 -16q0 -12 -13.5 -30.5t-36 -43t-28.5 -31.5q-96 -105 -210 -198t-243.5 -159.5t-226.5 -66.5h-41q-172 0 -273.5 114.5t-101.5 284.5 q0 63 19 162t43 158q3 20 -31 20q-12 0 -55.5 -7t-55.5 -7q-50 0 -83.5 35t-49.5 84zM639 1784q4 16 13 25.5t36 31.5q9 8 26 18.5t25 16.5q24 12 75 -2t60 -33q8 -26 -11 -58t-62 -57q-80 -52 -142 19q-6 3 -12 12q-10 17 -8 27zM1001 1774q3 11 10 20.5t13 14.5t27 22 q9 8 26 18.5t25 16.5q24 12 75 -2t60 -33q8 -26 -11.5 -58t-62.5 -57q-79 -52 -141 19q-6 3 -12 12q-11 19 -9 27z" />
<glyph unicode="&#xcc;" horiz-adv-x="1603" d="M127 244q0 74 34 175t88.5 195t134.5 160t161 66q15 0 30 -8t15 -21q0 -4 -27.5 -38t-68 -87t-82.5 -114.5t-74.5 -134t-40.5 -132.5q-1 -11 -16 -43.5t-15 -44.5q0 -10 2 -12.5t6.5 -0.5t6.5 1q-10 -30 -3.5 -71.5t21.5 -79.5t51.5 -64.5t85.5 -26.5q111 0 292.5 85.5 t270.5 154.5q36 27 87 75t124 137t132.5 187.5t102 230.5t42.5 261q0 93 -29.5 174t-75 132.5t-96 81.5t-96.5 34q-172 16 -312 -28.5t-231 -119.5q-18 -31 49 -98q-13 -13 -37 -13q-16 0 -49.5 14.5t-70 37.5t-63.5 58t-27 69q0 31 86 87l4.5 3t3.5 2q84 50 230 80t251 30 q179 0 318.5 -58.5t222 -176.5t82.5 -281q0 -231 -104.5 -470t-237.5 -359q-3 -3 -7 -12.5t-10 -15t-16 -5.5q-5 0 -7 1t-1.5 2.5t0.5 3t-1.5 2.5t-7.5 1q-8 0 -12 -4.5t-7.5 -17.5t-4.5 -15q14 -14 24 -4q-10 -6 -34 -36.5t-37 -30.5t-16 5t-5 5q1 -9 -4.5 -19.5 t-17.5 -22.5t-24.5 -22.5t-33 -23t-36 -22t-39.5 -22.5t-37 -19.5t-35.5 -18t-28.5 -14.5q0 1 1 8.5t0 12.5t-5 9q-35 -69 -171.5 -116t-244.5 -47q-83 0 -153 35t-114 91.5t-68.5 125t-24.5 137.5zM419 2076.5q9 43.5 17 51.5q7 7 31 4l20 -4q28 0 126.5 -60t187 -133.5 t88.5 -105.5q0 -21 -15 -35t-28 -14q-59 0 -228.5 92t-197.5 137q-10 24 -1 67.5z" />
<glyph unicode="&#xcd;" horiz-adv-x="1603" d="M127 244q0 74 34 175t88.5 195t134.5 160t161 66q15 0 30 -8t15 -21q0 -4 -27.5 -38t-68 -87t-82.5 -114.5t-74.5 -134t-40.5 -132.5q-1 -11 -16 -43.5t-15 -44.5q0 -10 2 -12.5t6.5 -0.5t6.5 1q-10 -30 -3.5 -71.5t21.5 -79.5t51.5 -64.5t85.5 -26.5q111 0 292.5 85.5 t270.5 154.5q36 27 87 75t124 137t132.5 187.5t102 230.5t42.5 261q0 93 -29.5 174t-75 132.5t-96 81.5t-96.5 34q-172 16 -312 -28.5t-231 -119.5q-18 -31 49 -98q-13 -13 -37 -13q-16 0 -49.5 14.5t-70 37.5t-63.5 58t-27 69q0 31 86 87l4.5 3t3.5 2q84 50 230 80t251 30 q179 0 318.5 -58.5t222 -176.5t82.5 -281q0 -231 -104.5 -470t-237.5 -359q-3 -3 -7 -12.5t-10 -15t-16 -5.5q-5 0 -7 1t-1.5 2.5t0.5 3t-1.5 2.5t-7.5 1q-8 0 -12 -4.5t-7.5 -17.5t-4.5 -15q14 -14 24 -4q-10 -6 -34 -36.5t-37 -30.5t-16 5t-5 5q1 -9 -4.5 -19.5 t-17.5 -22.5t-24.5 -22.5t-33 -23t-36 -22t-39.5 -22.5t-37 -19.5t-35.5 -18t-28.5 -14.5q0 1 1 8.5t0 12.5t-5 9q-35 -69 -171.5 -116t-244.5 -47q-83 0 -153 35t-114 91.5t-68.5 125t-24.5 137.5zM1018 1870q7 28 131.5 98t146.5 70q9 0 11.5 -3t11.5 -3t64 22.5t65 22.5 q19 0 32 -23t13 -37q-1 -20 -178.5 -129.5t-186.5 -109.5q-29 0 -71.5 31t-38.5 61z" />
<glyph unicode="&#xce;" horiz-adv-x="1603" d="M127 244q0 74 34 175t88.5 195t134.5 160t161 66q15 0 30 -8t15 -21q0 -4 -27.5 -38t-68 -87t-82.5 -114.5t-74.5 -134t-40.5 -132.5q-1 -11 -16 -43.5t-15 -44.5q0 -10 2 -12.5t6.5 -0.5t6.5 1q-10 -30 -3.5 -71.5t21.5 -79.5t51.5 -64.5t85.5 -26.5q111 0 292.5 85.5 t270.5 154.5q36 27 87 75t124 137t132.5 187.5t102 230.5t42.5 261q0 93 -29.5 174t-75 132.5t-96 81.5t-96.5 34q-172 16 -312 -28.5t-231 -119.5q-18 -31 49 -98q-13 -13 -37 -13q-16 0 -49.5 14.5t-70 37.5t-63.5 58t-27 69q0 31 86 87l4.5 3t3.5 2q84 50 230 80t251 30 q179 0 318.5 -58.5t222 -176.5t82.5 -281q0 -231 -104.5 -470t-237.5 -359q-3 -3 -7 -12.5t-10 -15t-16 -5.5q-5 0 -7 1t-1.5 2.5t0.5 3t-1.5 2.5t-7.5 1q-8 0 -12 -4.5t-7.5 -17.5t-4.5 -15q14 -14 24 -4q-10 -6 -34 -36.5t-37 -30.5t-16 5t-5 5q1 -9 -4.5 -19.5 t-17.5 -22.5t-24.5 -22.5t-33 -23t-36 -22t-39.5 -22.5t-37 -19.5t-35.5 -18t-28.5 -14.5q0 1 1 8.5t0 12.5t-5 9q-35 -69 -171.5 -116t-244.5 -47q-83 0 -153 35t-114 91.5t-68.5 125t-24.5 137.5zM768 1894q4 46 94 107.5t186 101t126 35.5q41 0 104.5 -75.5t108.5 -157 t45 -105.5q-5 -12 -30.5 -34.5t-37.5 -22.5q-27 2 -56 41t-48.5 85t-42 85t-37.5 41q-40 3 -117 -50t-137.5 -105.5t-63.5 -51.5q-33 0 -65 33.5t-29 72.5z" />
<glyph unicode="&#xcf;" horiz-adv-x="1603" d="M127 244q0 74 34 175t88.5 195t134.5 160t161 66q15 0 30 -8t15 -21q0 -4 -27.5 -38t-68 -87t-82.5 -114.5t-74.5 -134t-40.5 -132.5q-1 -11 -16 -43.5t-15 -44.5q0 -10 2 -12.5t6.5 -0.5t6.5 1q-10 -30 -3.5 -71.5t21.5 -79.5t51.5 -64.5t85.5 -26.5q111 0 292.5 85.5 t270.5 154.5q36 27 87 75t124 137t132.5 187.5t102 230.5t42.5 261q0 93 -29.5 174t-75 132.5t-96 81.5t-96.5 34q-172 16 -312 -28.5t-231 -119.5q-18 -31 49 -98q-13 -13 -37 -13q-16 0 -49.5 14.5t-70 37.5t-63.5 58t-27 69q0 31 86 87l4.5 3t3.5 2q84 50 230 80t251 30 q179 0 318.5 -58.5t222 -176.5t82.5 -281q0 -231 -104.5 -470t-237.5 -359q-3 -3 -7 -12.5t-10 -15t-16 -5.5q-5 0 -7 1t-1.5 2.5t0.5 3t-1.5 2.5t-7.5 1q-8 0 -12 -4.5t-7.5 -17.5t-4.5 -15q14 -14 24 -4q-10 -6 -34 -36.5t-37 -30.5t-16 5t-5 5q1 -9 -4.5 -19.5 t-17.5 -22.5t-24.5 -22.5t-33 -23t-36 -22t-39.5 -22.5t-37 -19.5t-35.5 -18t-28.5 -14.5q0 1 1 8.5t0 12.5t-5 9q-35 -69 -171.5 -116t-244.5 -47q-83 0 -153 35t-114 91.5t-68.5 125t-24.5 137.5zM850 1909q4 16 13 25.5t36 31.5q9 8 26 18.5t25 16.5q24 12 75 -2t60 -33 q8 -26 -11 -58t-62 -57q-80 -52 -142 19q-6 3 -12 12q-10 17 -8 27zM1212 1898q3 11 10 20.5t14 15.5t26 22q9 8 26 18.5t25 16.5q24 12 75 -2t60 -33q8 -26 -11.5 -58t-62.5 -57q-79 -52 -141 19q-6 3 -12 12q-11 18 -9 26z" />
<glyph unicode="&#xd0;" horiz-adv-x="1433" d="M-43 836q8 14 215 26l104 6q18 82 25 131q7 52 -2 253t6 268q5 17 54 53.5t69 36.5q8 0 5 -7.5t7 -7.5q8 0 12.5 3.5t7.5 9.5t5 8q88 18 145 18q94 0 176 -10q7 -1 22 -15t28 -14q9 0 11 7.5t11 7.5q13 0 65 -18t89 -36q234 -101 357.5 -247t123.5 -330 q0 -101 -53 -210.5t-142.5 -208t-204.5 -193.5t-240.5 -172.5t-248 -138.5t-231 -98t-185.5 -46q-72 0 -126 75.5t-54 137.5q0 27 18 51t48.5 60t50.5 77q37 77 94 305l19 78l-193 -14q-41 4 -70 66t-18 88zM160 78q2 0 9 -2t20.5 -4t31.5 -2q124 33 270.5 98t301 163.5 t279.5 211t205.5 253.5t80.5 279q0 58 -38.5 119t-99.5 110t-132.5 88.5t-143 61t-125.5 21.5q-126 3 -246 -15q-90 -20 -110 -28q-18 -7 -21 -15q-24 -39 -24 -74q-2 -22 -4.5 -76.5t-6.5 -94.5t-10 -76q-1 -2 -11.5 -18t-10.5 -27q0 -7 5 -17t12.5 -22t10.5 -17 q9 12 21 39t24 45.5t27 22.5q13 50 74.5 160.5t75.5 167.5q9 12 16 12h23q31 0 74.5 -40t43.5 -75q0 -4 -13.5 -27.5t-44 -75.5t-52.5 -91l-62 -105l-59 -100l-29 -56h6q35 -2 105 2l16 19q32 -8 49 -39q0 1 2 4t2.5 4t2.5 3.5t4 3t5 2t6.5 2.5t8.5 1q17 1 54 -12.5 t63 -30.5q5 -9 5 -17t-1.5 -11t-8 -11.5t-7.5 -9.5q-40 4 -71 -5.5t-46.5 -21.5t-16.5 -12q-9 -1 -21.5 6.5t-21.5 6.5q-11 0 -27 -14.5t-28 -14.5l-158 -14l-49 -117q-38 -92 -98 -246q89 23 106 23q16 0 31 -18.5t15 -32.5q-14 -9 -191 -107q0 -3 -0.5 -14.5t-3 -18 t-8.5 -10.5q-71 -60 -86 -94z" />
<glyph unicode="&#xd1;" horiz-adv-x="1525" d="M63 313q0 26 113 295.5t228 556t118 351.5q18 22 53 22q22 0 82 -31t64 -59l-277 -580q42 33 88.5 87t78.5 95.5t79 80t98 51.5q8 37 55 84t103 87.5t118.5 96.5t92.5 104q35 15 57 15q39 0 89.5 -24t50.5 -56q0 -53 -48 -217.5t-105.5 -343t-105.5 -395.5t-48 -363 q0 -24 1 -34.5t11.5 -32.5t32.5 -44h26q53 0 137.5 53.5t159.5 120t160.5 138t130.5 96.5l25 -25q-25 -32 -70 -88t-127 -153t-166 -177.5t-139 -109.5q-36 -20 -109 -20q-59 0 -104 21t-70.5 53t-41.5 75.5t-21.5 82t-5.5 79.5q0 102 26 251.5t60 186.5q-3 73 22 169.5 t68.5 226t62.5 208.5v27q-2 2 -4 5q-2 2 -5 2q-2 -1 -3.5 -1h-4.5h-7q-7 0 -17.5 -6t-24 -16.5t-25.5 -20.5t-27.5 -23.5t-22.5 -19.5q-141 -115 -293.5 -288.5t-272 -360t-151.5 -314.5q-4 -20 -32.5 -40.5t-47.5 -20.5q-30 0 -54 18t-36 43.5t-18.5 47t-6.5 34.5z M670 1948q7 60 94.5 97.5t165.5 29.5q45 -7 89.5 -37t80.5 -58.5t63 -31.5q32 -2 67 11.5t58.5 30.5t43 33t20.5 17q22 0 38 -14.5t17 -43.5l-6 -28l-19 -45q-87 -127 -208 -101q-73 20 -123 70q-49 49 -97 57q-34 6 -59 -2.5t-39.5 -24.5t-27 -33t-27.5 -28t-33 -8 q-32 5 -67 43t-31 66z" />
<glyph unicode="&#xd2;" d="M94 270q0 239 115 500q112 259 180 379q44 78 99.5 154.5t102 130t87.5 96.5t64.5 67.5t23.5 28.5q0 13 -28 40t-29 32q-7 15 13.5 24t39.5 9q34 0 85.5 -25t103.5 -63.5t82.5 -62.5t53.5 -44q72 -56 117 -135.5t59.5 -143t14.5 -124.5q0 -92 -39.5 -222t-105 -268 t-155 -275t-184.5 -244t-199.5 -174t-193.5 -67q-68 0 -123 27.5t-88.5 70t-56 96t-31 101.5t-8.5 92zM214 2107.5q9 43.5 17 51.5q7 7 31 4l21 -4q28 0 126 -60t186.5 -133.5t88.5 -105.5q0 -21 -15 -35.5t-28 -14.5q-59 0 -228.5 92.5t-197.5 137.5q-10 24 -1 67.5z M246 219q0 -20 5.5 -51t17 -67t34 -61.5t51.5 -25.5q76 0 167.5 67t175 173.5t162 239.5t134.5 262t87.5 245.5t25.5 186.5q-3 25 -15 70t-33.5 103.5t-57 100t-76.5 41.5q-52 0 -132.5 -89.5t-159 -219.5t-151.5 -268t-120.5 -241t-55.5 -134q-59 -169 -59 -332z" />
<glyph unicode="&#xd3;" d="M94 270q0 239 115 500q112 259 180 379q44 78 99.5 154.5t102 130t87.5 96.5t64.5 67.5t23.5 28.5q0 13 -28 40t-29 32q-7 15 13.5 24t39.5 9q34 0 85.5 -25t103.5 -63.5t82.5 -62.5t53.5 -44q72 -56 117 -135.5t59.5 -143t14.5 -124.5q0 -92 -39.5 -222t-105 -268 t-155 -275t-184.5 -244t-199.5 -174t-193.5 -67q-68 0 -123 27.5t-88.5 70t-56 96t-31 101.5t-8.5 92zM246 219q0 -20 5.5 -51t17 -67t34 -61.5t51.5 -25.5q76 0 167.5 67t175 173.5t162 239.5t134.5 262t87.5 245.5t25.5 186.5q-3 25 -15 70t-33.5 103.5t-57 100 t-76.5 41.5q-52 0 -132.5 -89.5t-159 -219.5t-151.5 -268t-120.5 -241t-55.5 -134q-59 -169 -59 -332zM1016 1845q5 30 129.5 97t148.5 67q9 0 11.5 -3t11.5 -3t64 22.5t65 22.5q19 0 32 -23t13 -34q-1 -21 -178.5 -127.5t-186.5 -106.5q-29 0 -71.5 30t-38.5 58z" />
<glyph unicode="&#xd4;" d="M94 270q0 239 115 500q112 259 180 379q44 78 99.5 154.5t102 130t87.5 96.5t64.5 67.5t23.5 28.5q0 13 -28 40t-29 32q-7 15 13.5 24t39.5 9q34 0 85.5 -25t103.5 -63.5t82.5 -62.5t53.5 -44q72 -56 117 -135.5t59.5 -143t14.5 -124.5q0 -92 -39.5 -222t-105 -268 t-155 -275t-184.5 -244t-199.5 -174t-193.5 -67q-68 0 -123 27.5t-88.5 70t-56 96t-31 101.5t-8.5 92zM246 219q0 -20 5.5 -51t17 -67t34 -61.5t51.5 -25.5q76 0 167.5 67t175 173.5t162 239.5t134.5 262t87.5 245.5t25.5 186.5q-3 25 -15 70t-33.5 103.5t-57 100 t-76.5 41.5q-52 0 -132.5 -89.5t-159 -219.5t-151.5 -268t-120.5 -241t-55.5 -134q-59 -169 -59 -332zM571 1896q4 46 94 107.5t186 101t126 35.5q41 0 104.5 -75.5t108.5 -157t45 -105.5q-5 -12 -30.5 -34.5t-37.5 -22.5q-27 2 -56 41t-48.5 85t-42 85t-37.5 41 q-40 3 -116.5 -50t-137 -105.5t-63.5 -51.5q-33 0 -65.5 33.5t-29.5 72.5z" />
<glyph unicode="&#xd5;" d="M94 270q0 239 115 500q112 259 180 379q44 78 99.5 154.5t102 130t87.5 96.5t64.5 67.5t23.5 28.5q0 13 -28 40t-29 32q-7 15 13.5 24t39.5 9q34 0 85.5 -25t103.5 -63.5t82.5 -62.5t53.5 -44q72 -56 117 -135.5t59.5 -143t14.5 -124.5q0 -92 -39.5 -222t-105 -268 t-155 -275t-184.5 -244t-199.5 -174t-193.5 -67q-68 0 -123 27.5t-88.5 70t-56 96t-31 101.5t-8.5 92zM246 219q0 -20 5.5 -51t17 -67t34 -61.5t51.5 -25.5q76 0 167.5 67t175 173.5t162 239.5t134.5 262t87.5 245.5t25.5 186.5q-3 25 -15 70t-33.5 103.5t-57 100 t-76.5 41.5q-52 0 -132.5 -89.5t-159 -219.5t-151.5 -268t-120.5 -241t-55.5 -134q-59 -169 -59 -332zM588 2021q7 60 94.5 97.5t165.5 29.5q45 -7 89.5 -37t80.5 -58.5t63 -31.5q32 -2 67 11.5t58.5 31t43 33.5t20.5 17q22 0 38 -14.5t17 -43.5l-6 -28l-19 -46 q-87 -126 -208 -100q-73 20 -123 70q-49 49 -97 57q-34 6 -59 -2.5t-39.5 -24.5t-27 -33t-27.5 -28t-33 -8q-32 5 -67 42.5t-31 65.5z" />
<glyph unicode="&#xd6;" d="M94 270q0 239 115 500q112 259 180 379q44 78 99.5 154.5t102 130t87.5 96.5t64.5 67.5t23.5 28.5q0 13 -28 40t-29 32q-7 15 13.5 24t39.5 9q34 0 85.5 -25t103.5 -63.5t82.5 -62.5t53.5 -44q72 -56 117 -135.5t59.5 -143t14.5 -124.5q0 -92 -39.5 -222t-105 -268 t-155 -275t-184.5 -244t-199.5 -174t-193.5 -67q-68 0 -123 27.5t-88.5 70t-56 96t-31 101.5t-8.5 92zM246 219q0 -20 5.5 -51t17 -67t34 -61.5t51.5 -25.5q76 0 167.5 67t175 173.5t162 239.5t134.5 262t87.5 245.5t25.5 186.5q-3 25 -15 70t-33.5 103.5t-57 100 t-76.5 41.5q-52 0 -132.5 -89.5t-159 -219.5t-151.5 -268t-120.5 -241t-55.5 -134q-59 -169 -59 -332zM592 1966q4 16 13 25.5t36 31.5q9 8 26 18.5t25 16.5q24 12 75 -2t60 -33q8 -26 -11 -57.5t-62 -56.5q-81 -53 -142 18q-6 3 -12 12q-10 17 -8 27zM954 1956 q3 11 10 20.5t13 14.5t27 22q9 8 26 18.5t25 16.5q24 12 75 -2t60 -33q8 -26 -11.5 -58t-62.5 -57q-79 -52 -141 19q-6 3 -12 12q-11 19 -9 27z" />
<glyph unicode="&#xd7;" horiz-adv-x="944" d="M78 92q3 41 49.5 105t101 117t99.5 98t45 53t-21 67t-24 76q-7 29 -29 86.5t-39.5 102.5t-17.5 55q-3 8 0 16q3 18 14 29q27 10 45 8q18 0 57 -20t60 -49q17 -44 43 -134t39 -129q2 5 76.5 91t159 173.5t102.5 86.5q29 -3 66.5 -44t33.5 -73q0 -15 -186.5 -209.5 t-186.5 -210.5q-2 -17 35 -111q57 -137 96 -190q14 -21 40.5 -58.5t40.5 -59.5t14 -31q-4 -30 -40.5 -45t-56.5 -15q-31 3 -74 56t-82.5 128t-63 123.5t-35.5 76.5q-1 2 -1 3q-31 -9 -96 -86q-8 -9 -32.5 -35.5t-48.5 -54t-42 -51.5q-25 -25 -35 -64q-25 -18 -47 -16 q-25 4 -42 55.5t-17 79.5z" />
<glyph unicode="&#xd8;" d="M94 270q0 239 115 500q112 259 180 379q44 78 99.5 154.5t102 130t87.5 96.5t64.5 67.5t23.5 28.5q0 13 -28 40t-29 32q-7 15 13.5 24t39.5 9q36 0 88 -27q34 -18 78 -47l35 86l30 12q41 0 77 -53t36 -96q0 -2 -25 -66l6 -4q72 -56 117 -135.5t59.5 -143t14.5 -124.5 q0 -92 -39.5 -222t-105 -268t-155 -275t-184.5 -244t-199.5 -174t-193.5 -67h-14q-35 -120 -47 -200q-29 -33 -55 -31q-37 0 -68.5 70t-26.5 92q6 33 33 110l6 19q-45 38 -71 84q-64 109 -64 243zM246 219q0 -54 22 -119l13 -26l8 24l86 207q73 175 215 496q0 -3 59 145 q99 245 119 309l88 222q-24 -17 -43 -39q-70 -69 -160 -210t-162 -281t-124 -251.5t-62 -144.5q-59 -169 -59 -332zM444 33q27 13 78 47q138 101 281 323.5t227.5 444.5t75.5 340q-6 74 -49 174q-10 24 -29 55q-7 -22 -22 -55q-66 -159 -221.5 -524t-190.5 -449 q-128 -300 -150 -356z" />
<glyph unicode="&#xd9;" horiz-adv-x="1572" d="M27 260q3 41 44 179t108.5 318.5t143 351t158 287.5t144.5 117q45 0 77.5 -18t32.5 -57q0 -34 -16 -56t-50 -48.5t-53 -49.5q-94 -116 -190.5 -326.5t-155.5 -379.5q-107 -307 -96 -449q2 -2 6 -9t9.5 -10.5t15.5 -3.5q53 0 233 140q114 86 238.5 209.5t229 248.5 t178 219.5t126.5 170.5q23 34 66.5 129.5t81 182.5t82 156.5t76.5 69.5q42 0 87.5 -36.5t45.5 -77.5q0 -77 -192 -309q-2 -2 -2.5 -3t-2 -2.5t-2.5 -3t-2 -2.5q-305 -679 -305 -965q0 -24 4 -55.5t13 -66.5t27 -58.5t42 -23.5q32 0 87.5 36.5t120 96t117 112t105.5 109.5 t59 63q31 -16 31 -43q0 -20 -74 -136t-168 -227.5t-137 -111.5q-10 0 -14.5 2.5t-8.5 7t-10 7.5q-3 -6 -6 -19.5t-7.5 -22.5t-14.5 -9t-10.5 4t-10.5 4q-14 0 -19.5 -8.5t-6.5 -8.5l-21 17q3 -3 0 -6q-5 -6 -16 -2q-54 16 -95 41t-65.5 56.5t-41 62t-23.5 69t-9 65.5t-2 62 q0 59 9 117t19.5 97.5t33 116.5t36.5 132q-9 -16 -78 -97.5t-174 -193.5t-216 -219.5t-215 -182.5t-158 -75q-14 0 -53.5 18.5t-75.5 42.5q-41 31 -65.5 111.5t-24.5 142.5zM673 2045.5q9 43.5 17 51.5q7 7 31 4l20 -4q28 0 126.5 -60t187 -133.5t88.5 -105.5q0 -21 -15 -35 t-28 -14q-59 0 -228.5 92t-197.5 137q-10 24 -1 67.5z" />
<glyph unicode="&#xda;" horiz-adv-x="1572" d="M27 260q3 41 44 179t108.5 318.5t143 351t158 287.5t144.5 117q45 0 77.5 -18t32.5 -57q0 -34 -16 -56t-50 -48.5t-53 -49.5q-94 -116 -190.5 -326.5t-155.5 -379.5q-107 -307 -96 -449q2 -2 6 -9t9.5 -10.5t15.5 -3.5q53 0 233 140q114 86 238.5 209.5t229 248.5 t178 219.5t126.5 170.5q23 34 66.5 129.5t81 182.5t82 156.5t76.5 69.5q42 0 87.5 -36.5t45.5 -77.5q0 -77 -192 -309q-2 -2 -2.5 -3t-2 -2.5t-2.5 -3t-2 -2.5q-305 -679 -305 -965q0 -24 4 -55.5t13 -66.5t27 -58.5t42 -23.5q32 0 87.5 36.5t120 96t117 112t105.5 109.5 t59 63q31 -16 31 -43q0 -20 -74 -136t-168 -227.5t-137 -111.5q-10 0 -14.5 2.5t-8.5 7t-10 7.5q-3 -6 -6 -19.5t-7.5 -22.5t-14.5 -9t-10.5 4t-10.5 4q-14 0 -19.5 -8.5t-6.5 -8.5l-21 17q3 -3 0 -6q-5 -6 -16 -2q-54 16 -95 41t-65.5 56.5t-41 62t-23.5 69t-9 65.5t-2 62 q0 59 9 117t19.5 97.5t33 116.5t36.5 132q-9 -16 -78 -97.5t-174 -193.5t-216 -219.5t-215 -182.5t-158 -75q-14 0 -53.5 18.5t-75.5 42.5q-41 31 -65.5 111.5t-24.5 142.5zM1028 1839q5 30 137 102t156 72q8 0 10.5 -3t14.5 -3q9 0 67 23.5t68 23.5q19 0 33 -24.5t14 -36.5 q0 -15 -95.5 -77t-190.5 -116.5t-97 -54.5q-29 0 -75 33t-42 61z" />
<glyph unicode="&#xdb;" horiz-adv-x="1572" d="M27 260q3 41 44 179t108.5 318.5t143 351t158 287.5t144.5 117q45 0 77.5 -18t32.5 -57q0 -34 -16 -56t-50 -48.5t-53 -49.5q-94 -116 -190.5 -326.5t-155.5 -379.5q-107 -307 -96 -449q2 -2 6 -9t9.5 -10.5t15.5 -3.5q53 0 233 140q114 86 238.5 209.5t229 248.5 t178 219.5t126.5 170.5q23 34 66.5 129.5t81 182.5t82 156.5t76.5 69.5q42 0 87.5 -36.5t45.5 -77.5q0 -77 -192 -309q-2 -2 -2.5 -3t-2 -2.5t-2.5 -3t-2 -2.5q-305 -679 -305 -965q0 -24 4 -55.5t13 -66.5t27 -58.5t42 -23.5q32 0 87.5 36.5t120 96t117 112t105.5 109.5 t59 63q31 -16 31 -43q0 -20 -74 -136t-168 -227.5t-137 -111.5q-10 0 -14.5 2.5t-8.5 7t-10 7.5q-3 -6 -6 -19.5t-7.5 -22.5t-14.5 -9t-10.5 4t-10.5 4q-14 0 -19.5 -8.5t-6.5 -8.5l-21 17q3 -3 0 -6q-5 -6 -16 -2q-54 16 -95 41t-65.5 56.5t-41 62t-23.5 69t-9 65.5t-2 62 q0 59 9 117t19.5 97.5t33 116.5t36.5 132q-9 -16 -78 -97.5t-174 -193.5t-216 -219.5t-215 -182.5t-158 -75q-14 0 -53.5 18.5t-75.5 42.5q-41 31 -65.5 111.5t-24.5 142.5zM838 1944q4 46 93.5 107t185.5 100.5t126 35.5q41 0 104.5 -75.5t108.5 -157t45 -105.5 q-5 -12 -30 -34.5t-37 -22.5q-27 2 -56 41t-49 85t-42.5 85t-37.5 41q-40 3 -116.5 -50t-137 -105.5t-63.5 -51.5q-33 0 -65 34t-29 73z" />
<glyph unicode="&#xdc;" horiz-adv-x="1572" d="M27 260q3 41 44 179t108.5 318.5t143 351t158 287.5t144.5 117q45 0 77.5 -18t32.5 -57q0 -34 -16 -56t-50 -48.5t-53 -49.5q-94 -116 -190.5 -326.5t-155.5 -379.5q-107 -307 -96 -449q2 -2 6 -9t9.5 -10.5t15.5 -3.5q53 0 233 140q114 86 238.5 209.5t229 248.5 t178 219.5t126.5 170.5q23 34 66.5 129.5t81 182.5t82 156.5t76.5 69.5q42 0 87.5 -36.5t45.5 -77.5q0 -77 -192 -309q-2 -2 -2.5 -3t-2 -2.5t-2.5 -3t-2 -2.5q-305 -679 -305 -965q0 -24 4 -55.5t13 -66.5t27 -58.5t42 -23.5q32 0 87.5 36.5t120 96t117 112t105.5 109.5 t59 63q31 -16 31 -43q0 -20 -74 -136t-168 -227.5t-137 -111.5q-10 0 -14.5 2.5t-8.5 7t-10 7.5q-3 -6 -6 -19.5t-7.5 -22.5t-14.5 -9t-10.5 4t-10.5 4q-14 0 -19.5 -8.5t-6.5 -8.5l-21 17q3 -3 0 -6q-5 -6 -16 -2q-54 16 -95 41t-65.5 56.5t-41 62t-23.5 69t-9 65.5t-2 62 q0 59 9 117t19.5 97.5t33 116.5t36.5 132q-9 -16 -78 -97.5t-174 -193.5t-216 -219.5t-215 -182.5t-158 -75q-14 0 -53.5 18.5t-75.5 42.5q-41 31 -65.5 111.5t-24.5 142.5zM885 1894q4 16 13.5 26.5t35.5 31.5q9 8 26 18.5t25 16.5q24 12 75 -2t60 -33q8 -26 -11 -58 t-62 -57q-81 -53 -142 18q-5 3 -12 13q-10 17 -8 26zM1247 1884q4 16 13.5 26.5t35.5 31.5q8 7 26 17.5t26 16.5q24 12 75 -1.5t60 -32.5q8 -26 -11.5 -58t-62.5 -57q-80 -52 -141 18q-6 3 -13 13q-10 17 -8 26z" />
<glyph unicode="&#xdd;" horiz-adv-x="1497" d="M-721 84q0 53 22 112.5t72 109t115 54.5q2 -2 23.5 -10t21.5 -22q0 -1 -8.5 -20.5t-21 -50.5t-25 -66.5t-21 -75t-8.5 -68.5q-2 -92 31 -198.5t90.5 -207.5t137.5 -196t169 -166.5t189 -115.5t192 -46q73 -1 141 26.5t120 70t103.5 110t85.5 127t70.5 142t55.5 133.5 t44.5 123t32.5 90q48 131 81 225.5t61 180t40 123.5t41.5 136t41.5 139q-19 -30 -89 -104t-168 -166t-199 -176t-193.5 -137.5t-139.5 -46.5q-43 9 -77 28.5t-55.5 41t-37 53.5t-23 56t-11.5 58.5t-4.5 51.5t-0.5 44q0 292 354 1045q3 27 70 -4q64 -30 93 -66q14 -18 7 -28 q-1 -1 -37.5 -53t-50.5 -76q-99 -183 -158.5 -321.5t-109.5 -324.5q-22 -104 -22 -182q0 -5 -0.5 -23.5t0 -25.5t2 -23.5t5 -27.5t10 -26.5t15.5 -30.5q47 -20 210 93.5t368.5 312.5t357.5 398q17 23 76.5 158.5t119 250t91.5 114.5q56 0 97.5 -46t41.5 -96 q-1 -41 -51.5 -121.5t-108.5 -155.5t-59 -77q-8 -13 -36 -49t-36 -53q-61 -149 -168.5 -473t-218.5 -645t-196 -504q-69 -148 -221 -260.5t-281 -112.5q-15 0 -80.5 8t-79.5 12q-92 16 -241 101q-179 82 -334.5 246.5t-243 353.5t-84.5 350zM1061 1866q5 30 137 102t156 72 q8 0 10 -3t14 -3q9 0 67 23.5t68 23.5q19 0 33.5 -25t14.5 -37q0 -15 -95.5 -76.5t-190.5 -116t-97 -54.5q-29 0 -75 33t-42 61z" />
<glyph unicode="&#xde;" horiz-adv-x="1277" d="M-86 -154q0 51 8.5 79.5t22.5 42.5t30 27t34.5 46.5t31.5 87.5q6 29 106.5 325.5t137.5 434.5q4 13 -6 59t-9 62q7 21 32 40.5t46 32.5t21 19q2 13 17 80.5t27 133t15 109.5q21 35 64 31q27 0 65.5 -30t38.5 -48q0 -20 -61 -237q-1 -2 2.5 -3.5t10.5 -2t12.5 -0.5h14.5 q12 0 46.5 5t42.5 5q64 -2 133 -15.5t145 -45t134.5 -77.5t96 -119.5t35.5 -164.5q-5 -119 -60 -229t-140 -190.5t-188 -147.5t-208 -105.5t-195 -58t-154 -12t-81 39.5q-20 -20 -48.5 -104t-59.5 -153.5t-62 -69.5q-40 0 -69 59t-29 94zM203 135q39 -25 98 -27t125.5 16.5 t140 55t143.5 84.5t133.5 107t111.5 121.5t77.5 130t30.5 129.5q4 122 -75 185.5t-191 63.5q-53 0 -114.5 -5.5t-130.5 -24.5t-87 -49q-24 -41 -143 -400.5t-119 -386.5z" />
<glyph unicode="&#xdf;" horiz-adv-x="1431" d="M-43 -154q0 164 230 631q6 12 8 17q3 10 45.5 108.5t50.5 114.5q8 15 25 59t34.5 75t38.5 40q18 67 87 179t87 157q5 -8 39 -25q3 8 -4.5 21t-7.5 24q0 14 35.5 56.5t90.5 91t135 90t155 49.5q131 0 219 -77.5t88 -203.5q0 -65 -34.5 -149.5t-90.5 -168t-115 -155.5 t-119 -135q41 3 88 -8t93 -35.5t83 -59t59.5 -83.5t20.5 -103q0 -49 -45.5 -146t-87.5 -97q-10 0 -12 2.5t0 6t-2 7.5q-17 -44 -60.5 -80t-95.5 -57.5t-104.5 -33t-95.5 -11.5q-59 0 -127.5 23.5t-122 70.5t-53.5 104q0 10 3 19.5t7 16t12.5 13t13.5 10t18 8.5t18 6.5 t19.5 6.5t18.5 6q-16 -46 -16 -75q0 -51 34 -75t82 -24q65 0 144 32.5t147 84.5t114 123.5t46 142.5q0 28 -23.5 49t-56.5 30.5t-58 13.5t-38 4q-39 0 -100.5 -26.5t-107.5 -52.5l-46 -26q-30 0 -67.5 43t-37.5 66t11 34q7 5 27.5 8.5t27.5 8.5q63 61 97 93.5t93.5 95 t93.5 105.5t77.5 106t67 115t40 115t16.5 124q0 51 -27.5 71.5t-80.5 20.5q-40 0 -84 -20t-82.5 -50.5t-80.5 -76t-73.5 -86.5t-66 -92.5t-53.5 -83.5t-41 -69.5t-25 -41.5q-72 -120 -131 -241t-84.5 -186t-67 -182t-51.5 -145q-12 -26 -26 -82t-23.5 -102.5t-24 -123.5 t-18.5 -98q-4 -11 -24 -22.5t-33 -11.5q-33 0 -74 40.5t-41 81.5z" />
<glyph unicode="&#xe0;" horiz-adv-x="1030" d="M20 131q-8 115 109 293q33 53 156 193.5t139 140.5q6 0 9 -1t3.5 -3t1 -3t2.5 -1q19 19 11 30q11 7 38 30t39 30q3 2 28.5 23t49.5 30.5t58 9.5q14 0 70 -33.5t67 -44.5q20 -44 12 -84q7 -4 41 -12.5t47 -26.5l4 -18q3 -22 -4 -29q-7 -10 -19 -24t-16 -23 q-2 -3 -24.5 -45.5t-31.5 -61.5t-30.5 -63t-32.5 -73.5t-25 -68.5t-20 -72t-6 -62l2 -74l4 -12q2 -8 5 -11t8 -2q14 0 63 25t80 49q78 63 186.5 175.5t122.5 138.5q17 28 26 -7q8 -28 3 -55q-12 -67 -78 -160q-25 -40 -118 -141.5t-121 -101.5q-10 0 -16 4t-9 4 q-3 -6 -3 -10t2.5 -11t2.5 -10q-7 1 -19.5 -11.5t-21.5 -12.5t-11 4t-11 4t-16 -11.5t-15 -11.5h-10.5t-2.5 2.5t-4 5.5l-16 -16q0 19 -4 23l-4 -5q-2 -2 -2 -10q-11 7 -30.5 30t-29.5 23q-5 0 -7 -2.5t-1 -5t-1 -3.5t-7 3q-14 8 -25.5 18.5t-20.5 24t-16.5 25.5t-13 28 t-9 27.5t-7 27.5t-5 23.5t-3.5 21.5t-2 15q-7 -6 -42 -35.5t-56 -46.5t-59.5 -45t-67 -43.5t-62.5 -28t-61 -12.5q-32 0 -102.5 63.5t-70.5 98.5zM158 123q0 -13 4 -17q2 -2 4 -2h35q56 37 114 80q146 109 234 228q24 24 94 132t70 146q0 25 -25 53q-45 0 -173.5 -116 t-242.5 -268.5t-114 -235.5zM321 1378.5q9 43.5 17 51.5q7 7 31 4l20 -4q28 0 126.5 -60t187 -134t88.5 -106q0 -21 -15 -35t-28 -14q-59 0 -228.5 92.5t-197.5 137.5q-10 24 -1 67.5z" />
<glyph unicode="&#xe1;" horiz-adv-x="1032" d="M20 131q-8 115 109 293q33 53 156 193.5t139 140.5q6 0 9 -1t3.5 -3t1 -3t2.5 -1q19 19 11 30q11 7 38 30t39 30q3 2 28.5 23t49.5 30.5t58 9.5q14 0 70 -33.5t67 -44.5q20 -44 12 -84q7 -4 41 -12.5t47 -26.5l4 -18q3 -22 -4 -29q-7 -10 -19 -24t-16 -23 q-2 -3 -24.5 -45.5t-31.5 -61.5t-30.5 -63t-32.5 -73.5t-25 -68.5t-20 -72t-6 -62l2 -74l4 -12q2 -8 5 -11t8 -2q14 0 63 25t80 49q78 63 186.5 175.5t122.5 138.5q17 28 26 -7q8 -28 3 -55q-12 -67 -78 -160q-25 -40 -118 -141.5t-121 -101.5q-10 0 -16 4t-9 4 q-3 -6 -3 -10t2.5 -11t2.5 -10q-7 1 -19.5 -11.5t-21.5 -12.5t-11 4t-11 4t-16 -11.5t-15 -11.5h-10.5t-2.5 2.5t-4 5.5l-16 -16q0 19 -4 23l-4 -5q-2 -2 -2 -10q-11 7 -30.5 30t-29.5 23q-5 0 -7 -2.5t-1 -5t-1 -3.5t-7 3q-14 8 -25.5 18.5t-20.5 24t-16.5 25.5t-13 28 t-9 27.5t-7 27.5t-5 23.5t-3.5 21.5t-2 15q-7 -6 -42 -35.5t-56 -46.5t-59.5 -45t-67 -43.5t-62.5 -28t-61 -12.5q-32 0 -102.5 63.5t-70.5 98.5zM158 123q0 -13 4 -17q2 -2 4 -2h35q56 37 114 80q146 109 234 228q24 24 94 132t70 146q0 25 -25 53q-45 0 -173.5 -116 t-242.5 -268.5t-114 -235.5zM618 1180q5 30 137 102t156 72q8 0 10.5 -3t14.5 -3q9 0 67 23.5t68 23.5q19 0 33 -24.5t14 -37.5q0 -15 -95.5 -77t-190.5 -116.5t-97 -54.5q-28 0 -74.5 33.5t-42.5 61.5z" />
<glyph unicode="&#xe2;" horiz-adv-x="1032" d="M20 131q-8 115 109 293q33 53 156 193.5t139 140.5q6 0 9 -1t3.5 -3t1 -3t2.5 -1q19 19 11 30q11 7 38 30t39 30q3 2 28.5 23t49.5 30.5t58 9.5q14 0 70 -33.5t67 -44.5q20 -44 12 -84q7 -4 41 -12.5t47 -26.5l4 -18q3 -22 -4 -29q-7 -10 -19 -24t-16 -23 q-2 -3 -24.5 -45.5t-31.5 -61.5t-30.5 -63t-32.5 -73.5t-25 -68.5t-20 -72t-6 -62l2 -74l4 -12q2 -8 5 -11t8 -2q14 0 63 25t80 49q78 63 186.5 175.5t122.5 138.5q17 28 26 -7q8 -28 3 -55q-12 -67 -78 -160q-25 -40 -118 -141.5t-121 -101.5q-10 0 -16 4t-9 4 q-3 -6 -3 -10t2.5 -11t2.5 -10q-7 1 -19.5 -11.5t-21.5 -12.5t-11 4t-11 4t-16 -11.5t-15 -11.5h-10.5t-2.5 2.5t-4 5.5l-16 -16q0 19 -4 23l-4 -5q-2 -2 -2 -10q-11 7 -30.5 30t-29.5 23q-5 0 -7 -2.5t-1 -5t-1 -3.5t-7 3q-14 8 -25.5 18.5t-20.5 24t-16.5 25.5t-13 28 t-9 27.5t-7 27.5t-5 23.5t-3.5 21.5t-2 15q-7 -6 -42 -35.5t-56 -46.5t-59.5 -45t-67 -43.5t-62.5 -28t-61 -12.5q-32 0 -102.5 63.5t-70.5 98.5zM158 123q0 -13 4 -17q2 -2 4 -2h35q56 37 114 80q146 109 234 228q24 24 94 132t70 146q0 25 -25 53q-45 0 -173.5 -116 t-242.5 -268.5t-114 -235.5zM340 1133q4 46 93.5 107t185.5 100.5t126 35.5q41 0 105 -75.5t109 -157t45 -105.5q-5 -12 -30.5 -34.5t-37.5 -22.5q-27 2 -56 41t-48.5 85t-42 85t-37.5 41q-40 3 -117 -50t-137.5 -105.5t-63.5 -51.5q-33 0 -65 34t-29 73z" />
<glyph unicode="&#xe3;" horiz-adv-x="1032" d="M20 131q-8 115 109 293q33 53 156 193.5t139 140.5q6 0 9 -1t3.5 -3t1 -3t2.5 -1q19 19 11 30q11 7 38 30t39 30q3 2 28.5 23t49.5 30.5t58 9.5q14 0 70 -33.5t67 -44.5q20 -44 12 -84q7 -4 41 -12.5t47 -26.5l4 -18q3 -22 -4 -29q-7 -10 -19 -24t-16 -23 q-2 -3 -24.5 -45.5t-31.5 -61.5t-30.5 -63t-32.5 -73.5t-25 -68.5t-20 -72t-6 -62l2 -74l4 -12q2 -8 5 -11t8 -2q14 0 63 25t80 49q78 63 186.5 175.5t122.5 138.5q17 28 26 -7q8 -28 3 -55q-12 -67 -78 -160q-25 -40 -118 -141.5t-121 -101.5q-10 0 -16 4t-9 4 q-3 -6 -3 -10t2.5 -11t2.5 -10q-7 1 -19.5 -11.5t-21.5 -12.5t-11 4t-11 4t-16 -11.5t-15 -11.5h-10.5t-2.5 2.5t-4 5.5l-16 -16q0 19 -4 23l-4 -5q-2 -2 -2 -10q-11 7 -30.5 30t-29.5 23q-5 0 -7 -2.5t-1 -5t-1 -3.5t-7 3q-14 8 -25.5 18.5t-20.5 24t-16.5 25.5t-13 28 t-9 27.5t-7 27.5t-5 23.5t-3.5 21.5t-2 15q-7 -6 -42 -35.5t-56 -46.5t-59.5 -45t-67 -43.5t-62.5 -28t-61 -12.5q-32 0 -102.5 63.5t-70.5 98.5zM158 123q0 -13 4 -17q2 -2 4 -2h35q56 37 114 80q146 109 234 228q24 24 94 132t70 146q0 25 -25 53q-45 0 -173.5 -116 t-242.5 -268.5t-114 -235.5zM346 1253q7 60 94.5 97.5t165.5 29.5q45 -7 89.5 -37t81 -58.5t63.5 -31.5q32 -2 67 11.5t58 31t42 33.5t21 17q22 0 38 -14.5t17 -43.5l-6 -28l-18 -46q-87 -126 -209 -100q-73 20 -123 70q-49 49 -96 57q-34 6 -59 -2.5t-40 -24.5t-27.5 -33 t-27.5 -28t-33 -8q-32 5 -67 42.5t-31 65.5z" />
<glyph unicode="&#xe4;" horiz-adv-x="1032" d="M20 131q-8 115 109 293q33 53 156 193.5t139 140.5q6 0 9 -1t3.5 -3t1 -3t2.5 -1q19 19 11 30q11 7 38 30t39 30q3 2 28.5 23t49.5 30.5t58 9.5q14 0 70 -33.5t67 -44.5q20 -44 12 -84q7 -4 41 -12.5t47 -26.5l4 -18q3 -22 -4 -29q-7 -10 -19 -24t-16 -23 q-2 -3 -24.5 -45.5t-31.5 -61.5t-30.5 -63t-32.5 -73.5t-25 -68.5t-20 -72t-6 -62l2 -74l4 -12q2 -8 5 -11t8 -2q14 0 63 25t80 49q78 63 186.5 175.5t122.5 138.5q17 28 26 -7q8 -28 3 -55q-12 -67 -78 -160q-25 -40 -118 -141.5t-121 -101.5q-10 0 -16 4t-9 4 q-3 -6 -3 -10t2.5 -11t2.5 -10q-7 1 -19.5 -11.5t-21.5 -12.5t-11 4t-11 4t-16 -11.5t-15 -11.5h-10.5t-2.5 2.5t-4 5.5l-16 -16q0 19 -4 23l-4 -5q-2 -2 -2 -10q-11 7 -30.5 30t-29.5 23q-5 0 -7 -2.5t-1 -5t-1 -3.5t-7 3q-14 8 -25.5 18.5t-20.5 24t-16.5 25.5t-13 28 t-9 27.5t-7 27.5t-5 23.5t-3.5 21.5t-2 15q-7 -6 -42 -35.5t-56 -46.5t-59.5 -45t-67 -43.5t-62.5 -28t-61 -12.5q-32 0 -102.5 63.5t-70.5 98.5zM158 123q0 -13 4 -17q2 -2 4 -2h35q56 37 114 80q146 109 234 228q24 24 94 132t70 146q0 25 -25 53q-45 0 -173.5 -116 t-242.5 -268.5t-114 -235.5zM422 1186q4 16 13 25.5t36 31.5q9 8 26 18.5t25 16.5q24 12 75 -2t60 -33q8 -26 -11 -58t-62 -57q-80 -52 -142 19q-6 3 -12 12q-10 17 -8 27zM784 1176q3 11 10 20.5t13 14.5t27 22q9 8 26 18.5t25 16.5q24 12 75 -2t60 -33q8 -26 -11.5 -58 t-62.5 -57q-79 -52 -141 19q-6 3 -12 12q-11 19 -9 27z" />
<glyph unicode="&#xe5;" horiz-adv-x="1032" d="M20 131q-8 115 109 293q33 53 156 193.5t139 140.5q6 0 9 -1t3.5 -3t1 -3t2.5 -1q19 19 11 30q11 7 38 30t39 30q3 2 28.5 23t49.5 30.5t58 9.5q14 0 70 -33.5t67 -44.5q20 -44 12 -84q7 -4 41 -12.5t47 -26.5l4 -18q3 -22 -4 -29q-7 -10 -19 -24t-16 -23 q-2 -3 -24.5 -45.5t-31.5 -61.5t-30.5 -63t-32.5 -73.5t-25 -68.5t-20 -72t-6 -62l2 -74l4 -12q2 -8 5 -11t8 -2q14 0 63 25t80 49q78 63 186.5 175.5t122.5 138.5q17 28 26 -7q8 -28 3 -55q-12 -67 -78 -160q-25 -40 -118 -141.5t-121 -101.5q-10 0 -16 4t-9 4 q-3 -6 -3 -10t2.5 -11t2.5 -10q-7 1 -19.5 -11.5t-21.5 -12.5t-11 4t-11 4t-16 -11.5t-15 -11.5h-10.5t-2.5 2.5t-4 5.5l-16 -16q0 19 -4 23l-4 -5q-2 -2 -2 -10q-11 7 -30.5 30t-29.5 23q-5 0 -7 -2.5t-1 -5t-1 -3.5t-7 3q-14 8 -25.5 18.5t-20.5 24t-16.5 25.5t-13 28 t-9 27.5t-7 27.5t-5 23.5t-3.5 21.5t-2 15q-7 -6 -42 -35.5t-56 -46.5t-59.5 -45t-67 -43.5t-62.5 -28t-61 -12.5q-32 0 -102.5 63.5t-70.5 98.5zM158 123q0 -13 4 -17q2 -2 4 -2h35q56 37 114 80q146 109 234 228q24 24 94 132t70 146q0 25 -25 53q-45 0 -173.5 -116 t-242.5 -268.5t-114 -235.5zM535 1255q-3 55 34 122.5t97.5 115.5t117.5 51q51 0 93.5 -33t97.5 -98q21 -25 32 -68t11 -65q4 -75 -72.5 -156t-157.5 -104q-17 -4 -24.5 -4t-32.5 4q-59 16 -99 42t-59.5 60.5t-27 64t-10.5 68.5zM662 1214q0 -20 16.5 -48.5t42.5 -28.5 q34 0 77.5 38t71.5 86.5t25 77.5q0 31 -16 56t-50 24q-38 0 -102.5 -77t-64.5 -128z" />
<glyph unicode="&#xe6;" horiz-adv-x="1413" d="M20 131q-8 115 109 293q33 53 156 193.5t139 140.5q6 0 9 -1t3.5 -3t1 -3t2.5 -1q19 19 11 30q11 7 38 30t39 30q3 2 28.5 23t49.5 30.5t58 9.5q14 0 70 -33.5t67 -44.5q7 -19 10 -39q4 -16 2 -26l35 37q127 127 229 127q9 0 24 -11.5t23 -11.5t10.5 2t2 5t2 5t10.5 2 q37 0 88 -48.5t51 -78.5q0 -26 -6 -53t-21.5 -59.5t-22.5 -47t-30 -52.5t-24 -39q-22 -37 -155 -164t-165 -127q-35 0 -112 65q-11 -23 -18 -64t-7 -59q0 -70 34.5 -119t106.5 -49q68 0 211.5 71t266 152t155.5 119q13 0 25 -9t12 -25q0 -27 -16 -50.5t-36 -39.5t-40.5 -45 t-28.5 -64l-18 16h-21q-11 0 -12.5 -12.5t4.5 -23.5q-14 -10 -46 -37t-56 -41q-12 -7 -45 -14.5t-45 -14.5q-5 -2 -25 -24.5t-39 -30.5q-104 -33 -192 -35t-147 19t-101 61q-38 33 -56 63q-19 -68 -30 -127q-19 -27 -51 -24q-34 0 -62.5 58t-23.5 75q2 21 28 90l2 2l-10 -8 q-174 -152 -278 -152q-32 0 -102.5 63.5t-70.5 98.5zM158 123q0 -13 4 -17q2 -2 4 -2h35q56 37 114 80q52 39 84 68q31 29 150 160q24 24 94 132t70 146q0 25 -25 53q-45 0 -173.5 -116t-242.5 -268.5t-114 -235.5zM782 403q75 31 196.5 164t137.5 215h-26 q-48 -24 -124 -100t-137 -174q-9 -12 -22 -43q-19 -31 -25 -62z" />
<glyph unicode="&#xe7;" horiz-adv-x="991" d="M80 279q0 91 58.5 208t141.5 214.5t179.5 165t167.5 67.5q94 0 150.5 -58.5t56.5 -140.5q0 -49 -14 -100t-46 -51q-31 0 -64.5 33.5t-33.5 58.5q0 7 13 49.5t13 50.5q0 39 -18 60l-31 -2q-8 -1 -20.5 -8t-25.5 -17t-28.5 -23t-29 -26t-27.5 -26.5t-23.5 -23t-17.5 -18.5 l-8 -8q-90 -92 -152 -204.5t-69 -211.5q-4 -15 0 -49.5t11.5 -70t27.5 -62.5t47 -27h2l8 17q8 18 49 18q17 0 47 -12l7 2q51 18 103.5 42.5t79.5 39t36 20.5q27 13 80 47l92 62l24 18l97 78q15 3 30 -6l11 -8q0 -15 -7 -31q-14 -31 -73 -92.5t-111 -106.5l-31 -26 q-7 0 -10 2t-4.5 6t-3.5 6q-24 -42 -27 -53q-8 0 -20 12q-5 -5 -10.5 -17t-10.5 -20t-12 -8q-10 0 -17 7t-8 7q0 -25 -23.5 -42.5t-67.5 -34.5t-56 -23l-37 -12l-39 -12v-2q-6 -15 -6 -23q0 -48 39 -119.5t39 -120.5q0 -44 -57.5 -97.5t-102.5 -53.5q-16 0 -33 -10l-12 10 q-2 -2 -3 -4t-2 -3t-3.5 -2t-7.5 -1q-45 0 -94.5 35.5t-49.5 76.5q0 23 16.5 50.5t37.5 27.5q13 0 22 -15t13 -33t14 -33t24 -15q36 0 70.5 36t34.5 68q0 30 -37 109.5t-37 93.5q0 1 0.5 4t1.5 8.5t2 10.5q0 8 2 14h-2q-48 17 -69 33q-71 41 -113.5 129.5t-42.5 165.5z" />
<glyph unicode="&#xe8;" horiz-adv-x="915" d="M61 223q0 90 50.5 213t124.5 230t167 182.5t170 75.5q9 0 24.5 -11.5t23.5 -11.5q11 0 12 7t12 7q37 0 88 -48.5t51 -78.5q0 -26 -6 -53t-21.5 -59.5t-22.5 -47t-30 -52.5t-24 -39q-22 -37 -155 -164t-165 -127q-35 0 -112 65q-11 -23 -18 -64t-7 -59q0 -70 35 -119 t107 -49q68 0 211.5 71t265.5 152t155 119q13 0 25 -9t12 -25q0 -27 -16 -50.5t-36 -39.5t-40.5 -45t-28.5 -64l-18 16h-21q-11 0 -12.5 -12.5t4.5 -23.5q-14 -10 -46 -37t-56 -41q-12 -7 -45 -14.5t-45 -14.5q-5 -2 -25 -24.5t-39 -30.5q-91 -29 -169 -34t-132.5 9 t-99 41.5t-71.5 61.5t-45 71.5t-25 69t-7 57.5zM279 403q75 31 196 164t137 215h-26q-48 -23 -123.5 -99t-136.5 -175q-11 -16 -23 -43q-17 -28 -24 -62zM294 1398.5q9 43.5 17 51.5q7 7 31 4l20 -4q28 0 126.5 -60t187 -133.5t88.5 -105.5q0 -21 -15 -35t-28 -14 q-59 0 -228.5 92t-197.5 137q-10 24 -1 67.5z" />
<glyph unicode="&#xe9;" horiz-adv-x="915" d="M61 223q0 90 50.5 213t124.5 230t167 182.5t170 75.5q9 0 24.5 -11.5t23.5 -11.5q11 0 12 7t12 7q37 0 88 -48.5t51 -78.5q0 -26 -6 -53t-21.5 -59.5t-22.5 -47t-30 -52.5t-24 -39q-22 -37 -155 -164t-165 -127q-35 0 -112 65q-11 -23 -18 -64t-7 -59q0 -70 35 -119 t107 -49q68 0 211.5 71t265.5 152t155 119q13 0 25 -9t12 -25q0 -27 -16 -50.5t-36 -39.5t-40.5 -45t-28.5 -64l-18 16h-21q-11 0 -12.5 -12.5t4.5 -23.5q-14 -10 -46 -37t-56 -41q-12 -7 -45 -14.5t-45 -14.5q-5 -2 -25 -24.5t-39 -30.5q-91 -29 -169 -34t-132.5 9 t-99 41.5t-71.5 61.5t-45 71.5t-25 69t-7 57.5zM279 403q75 31 196 164t137 215h-26q-48 -23 -123.5 -99t-136.5 -175q-11 -16 -23 -43q-17 -28 -24 -62zM506 1210q5 30 137 102t156 72q8 0 10 -3t14 -3q9 0 67 23.5t68 23.5q19 0 33.5 -24.5t14.5 -36.5q0 -15 -95.5 -77 t-190.5 -116.5t-97 -54.5q-29 0 -75 33t-42 61z" />
<glyph unicode="&#xea;" horiz-adv-x="915" d="M61 223q0 90 50.5 213t124.5 230t167 182.5t170 75.5q9 0 24.5 -11.5t23.5 -11.5q11 0 12 7t12 7q37 0 88 -48.5t51 -78.5q0 -26 -6 -53t-21.5 -59.5t-22.5 -47t-30 -52.5t-24 -39q-22 -37 -155 -164t-165 -127q-35 0 -112 65q-11 -23 -18 -64t-7 -59q0 -70 35 -119 t107 -49q68 0 211.5 71t265.5 152t155 119q13 0 25 -9t12 -25q0 -27 -16 -50.5t-36 -39.5t-40.5 -45t-28.5 -64l-18 16h-21q-11 0 -12.5 -12.5t4.5 -23.5q-14 -10 -46 -37t-56 -41q-12 -7 -45 -14.5t-45 -14.5q-5 -2 -25 -24.5t-39 -30.5q-91 -29 -169 -34t-132.5 9 t-99 41.5t-71.5 61.5t-45 71.5t-25 69t-7 57.5zM258 1178q4 46 94 107t186 100.5t126 35.5q41 0 104.5 -75.5t108.5 -157t45 -105.5q-5 -12 -30.5 -34.5t-37.5 -22.5q-27 2 -56 41t-48.5 85t-42 85t-37.5 41q-40 3 -117 -50t-137.5 -105.5t-63.5 -51.5q-33 0 -65 34t-29 73z M279 403q75 31 196 164t137 215h-26q-48 -23 -123.5 -99t-136.5 -175q-11 -16 -23 -43q-17 -28 -24 -62z" />
<glyph unicode="&#xeb;" horiz-adv-x="915" d="M61 223q0 90 50.5 213t124.5 230t167 182.5t170 75.5q9 0 24.5 -11.5t23.5 -11.5q11 0 12 7t12 7q37 0 88 -48.5t51 -78.5q0 -26 -6 -53t-21.5 -59.5t-22.5 -47t-30 -52.5t-24 -39q-22 -37 -155 -164t-165 -127q-35 0 -112 65q-11 -23 -18 -64t-7 -59q0 -70 35 -119 t107 -49q68 0 211.5 71t265.5 152t155 119q13 0 25 -9t12 -25q0 -27 -16 -50.5t-36 -39.5t-40.5 -45t-28.5 -64l-18 16h-21q-11 0 -12.5 -12.5t4.5 -23.5q-14 -10 -46 -37t-56 -41q-12 -7 -45 -14.5t-45 -14.5q-5 -2 -25 -24.5t-39 -30.5q-91 -29 -169 -34t-132.5 9 t-99 41.5t-71.5 61.5t-45 71.5t-25 69t-7 57.5zM279 403q75 31 196 164t137 215h-26q-48 -23 -123.5 -99t-136.5 -175q-11 -16 -23 -43q-17 -28 -24 -62zM354 1221q4 16 13 25.5t36 31.5q9 7 26.5 18t25.5 17q24 12 75 -2t60 -33q8 -26 -11.5 -58t-62.5 -57q-79 -52 -141 19 q-7 4 -13 12q-10 17 -8 27zM717 1210q4 16 13.5 26.5t35.5 31.5q9 8 26 18.5t25 16.5q24 12 75 -2t60 -33q8 -26 -11 -58t-62 -57q-81 -53 -142 18q-5 3 -12 13q-10 17 -8 26z" />
<glyph unicode="&#xec;" horiz-adv-x="628" d="M53 279q0 12 43 139t103 256t94 125q29 0 75 -38t46 -61l-20 -40q-20 -41 -49.5 -103.5t-59 -130t-51 -132t-23.5 -99.5v-12v-15t0.5 -15.5t1.5 -17.5t3 -16t5.5 -15t8 -11.5t11.5 -8t15 -2.5q28 -2 89.5 31.5t130 82.5t132.5 98.5t107.5 84.5t44.5 35q15 0 23.5 -14 t10 -24t1.5 -18q0 -23 -96.5 -131t-141.5 -153l-16 16q-9 -35 -85.5 -97.5t-123.5 -58.5q-86 3 -153 61t-98 134.5t-28 149.5zM89 1290q9 43 17 51t31 5l21 -5q28 0 126 -60t186.5 -133.5t88.5 -105.5q0 -21 -15 -35t-28 -14q-59 0 -228.5 92.5t-197.5 137.5q-10 24 -1 67z " />
<glyph unicode="&#xed;" horiz-adv-x="628" d="M53 279q0 12 43 139t103 256t94 125q29 0 75 -38t46 -61l-20 -40q-20 -41 -49.5 -103.5t-59 -130t-51 -132t-23.5 -99.5v-12v-15t0.5 -15.5t1.5 -17.5t3 -16t5.5 -15t8 -11.5t11.5 -8t15 -2.5q28 -2 89.5 31.5t130 82.5t132.5 98.5t107.5 84.5t44.5 35q15 0 23.5 -14 t10 -24t1.5 -18q0 -23 -96.5 -131t-141.5 -153l-16 16q-9 -35 -85.5 -97.5t-123.5 -58.5q-86 3 -153 61t-98 134.5t-28 149.5zM342 1102q5 30 137 102t156 72q8 0 10 -3t14 -3q9 0 67.5 23.5t68.5 23.5q19 0 33 -24.5t14 -37.5q0 -15 -95.5 -76.5t-190.5 -116t-97 -54.5 q-29 0 -75 33t-42 61z" />
<glyph unicode="&#xee;" horiz-adv-x="628" d="M53 279q0 12 43 139t103 256t94 125q29 0 75 -38t46 -61l-20 -40q-20 -41 -49.5 -103.5t-59 -130t-51 -132t-23.5 -99.5v-12v-15t0.5 -15.5t1.5 -17.5t3 -16t5.5 -15t8 -11.5t11.5 -8t15 -2.5q28 -2 89.5 31.5t130 82.5t132.5 98.5t107.5 84.5t44.5 35q15 0 23.5 -14 t10 -24t1.5 -18q0 -23 -96.5 -131t-141.5 -153l-16 16q-9 -35 -85.5 -97.5t-123.5 -58.5q-86 3 -153 61t-98 134.5t-28 149.5zM94 1139q4 46 94 107t186 100.5t126 35.5q41 0 104.5 -75.5t108.5 -157t45 -105.5q-5 -12 -30.5 -34.5t-37.5 -22.5q-27 2 -56 41t-48.5 85 t-42 85t-37.5 41q-40 3 -117 -50t-137.5 -105.5t-63.5 -51.5q-33 0 -65 34t-29 73z" />
<glyph unicode="&#xef;" horiz-adv-x="628" d="M53 279q0 12 43 139t103 256t94 125q29 0 75 -38t46 -61l-20 -40q-20 -41 -49.5 -103.5t-59 -130t-51 -132t-23.5 -99.5v-12v-15t0.5 -15.5t1.5 -17.5t3 -16t5.5 -15t8 -11.5t11.5 -8t15 -2.5q28 -2 89.5 31.5t130 82.5t132.5 98.5t107.5 84.5t44.5 35q15 0 23.5 -14 t10 -24t1.5 -18q0 -23 -96.5 -131t-141.5 -153l-16 16q-9 -35 -85.5 -97.5t-123.5 -58.5q-86 3 -153 61t-98 134.5t-28 149.5zM150 1137q4 16 13 25.5t36 31.5q9 8 26 18.5t25 16.5q24 12 75 -2t60 -33q8 -26 -11.5 -58t-62.5 -57q-79 -52 -141 19q-6 3 -12 12q-10 17 -8 27 zM512 1126q4 16 13.5 26.5t35.5 31.5q9 8 26 18.5t25 16.5q24 12 75.5 -2t60.5 -33q8 -26 -11.5 -58t-62.5 -57q-81 -53 -142 18q-5 3 -12 13q-10 17 -8 26z" />
<glyph unicode="&#xf0;" horiz-adv-x="1021" d="M74 272q19 146 157.5 296t341.5 266q-12 54 -94 177t-108 128q-35 -33 -103 -88q-104 -89 -135 -86q-51 6 -51 106q7 30 184 178q-15 24 -52 61l-64 64t-25 35q3 24 20.5 34.5t33 9.5t28.5 -5q68 -9 129 -55q24 -21 45 -45q7 0 43 26.5t82.5 51.5t79.5 22q44 -6 77 -37 t29 -63q-3 -21 -37 -44t-81.5 -46.5t-61.5 -34.5q36 -46 69 -91.5t68 -99.5t64.5 -107t56 -110t44.5 -113.5t28.5 -111.5t9.5 -109.5t-14 -103.5q-29 -113 -109.5 -218.5t-186 -167t-198.5 -48.5q-125 18 -206 111.5t-64 217.5zM244 168q0 -20 19 -51t48 -35q59 -7 116 18 t98.5 68.5t75.5 96t53 98.5t24 79q4 44 -11 117t-34 123q-89 -64 -150 -117.5t-114.5 -116.5t-84 -132t-40.5 -148z" />
<glyph unicode="&#xf1;" horiz-adv-x="1079" d="M43 119q0 7 193 637q2 10 9 16t19 7.5t21.5 2t22.5 -0.5t16 -1q10 0 46 -17t44 -32l-78 -237l219 192l23 19q18 13 49 40l3 4q3 4 7.5 9.5t11.5 13t15 14.5t18.5 14t21 12.5t23 9t25.5 3.5q38 0 86.5 -22t48.5 -58q0 -2 -34.5 -103.5t-68.5 -232t-34 -202.5 q0 -131 53 -131q22 0 90 33q59 33 61 34q14 8 20 13t14 13t20 17q12 10 96 102l84 93q11 0 22 -10.5t11 -22.5q0 -55 -73.5 -150.5t-166 -169t-141.5 -73.5q-60 0 -124.5 40t-94.5 83q-19 27 -25.5 83t-1.5 103q0 21 29 170q10 55 30 139q0 2 1.5 9.5t1 13.5t-4.5 10 q-173 -173 -450 -573q-8 -8 -31 -8q-32 0 -79.5 32t-47.5 62zM285 1219q7 60 94.5 97.5t165.5 29.5q45 -7 89.5 -37t80.5 -58.5t63 -31.5q32 -2 67 11.5t58.5 30.5t43 33t20.5 17q22 0 38 -14.5t17 -43.5l-6 -28l-19 -45q-87 -127 -209 -101q-72 20 -122 70q-49 49 -97 57 q-34 6 -59 -2.5t-39.5 -24.5t-27 -33t-27.5 -28t-33 -8q-32 5 -67 43t-31 66z" />
<glyph unicode="&#xf2;" horiz-adv-x="884" d="M27 238q0 15 14.5 80t32.5 108q37 84 128 224.5t132 140.5q12 0 13.5 -5t8.5 -6q4 12 0.5 22t2 24.5t22.5 27.5q117 73 194 64q26 -6 56 -19q61 -33 94 -74q39 -63 53.5 -118.5t12.5 -122.5q-2 -75 -31.5 -165t-80.5 -175.5t-113 -157t-137 -115t-146 -43.5 q-62 2 -113.5 36t-81 83.5t-45.5 99.5t-16 91zM186 158q0 -72 35 -92q95 26 199 132t171.5 230.5t70.5 210.5q-3 91 -19 123q-28 76 -70 63q-38 -14 -129 -137q-95 -129 -141 -201q-117 -188 -117 -329zM210 1421.5q9 43.5 17 51.5q7 7 31 4l21 -4q28 0 126 -60 t186.5 -133.5t88.5 -105.5q0 -21 -15 -35.5t-28 -14.5q-59 0 -228.5 92.5t-197.5 137.5q-10 24 -1 67.5z" />
<glyph unicode="&#xf3;" horiz-adv-x="884" d="M27 238q0 15 14.5 80t32.5 108q37 84 128 224.5t132 140.5q12 0 13.5 -5t8.5 -6q4 12 0.5 22t2 24.5t22.5 27.5q117 73 194 64q26 -6 56 -19q61 -33 94 -74q39 -63 53.5 -118.5t12.5 -122.5q-2 -75 -31.5 -165t-80.5 -175.5t-113 -157t-137 -115t-146 -43.5 q-62 2 -113.5 36t-81 83.5t-45.5 99.5t-16 91zM186 158q0 -72 35 -92q95 26 199 132t171.5 230.5t70.5 210.5q-3 91 -19 123q-28 76 -70 63q-38 -14 -129 -137q-95 -129 -141 -201q-117 -188 -117 -329zM489 1155q5 30 137 102t156 72q8 0 10.5 -3t14.5 -3q9 0 67 23.5 t68 23.5q19 0 33 -24.5t14 -36.5q0 -15 -95.5 -77t-190.5 -116.5t-97 -54.5q-29 0 -75 33t-42 61z" />
<glyph unicode="&#xf4;" horiz-adv-x="884" d="M27 238q0 15 14.5 80t32.5 108q37 84 128 224.5t132 140.5q12 0 13.5 -5t8.5 -6q4 12 0.5 22t2 24.5t22.5 27.5q117 73 194 64q26 -6 56 -19q61 -33 94 -74q39 -63 53.5 -118.5t12.5 -122.5q-2 -75 -31.5 -165t-80.5 -175.5t-113 -157t-137 -115t-146 -43.5 q-62 2 -113.5 36t-81 83.5t-45.5 99.5t-16 91zM186 158q0 -72 35 -92q95 26 199 132t171.5 230.5t70.5 210.5q-3 91 -19 123q-28 76 -70 63q-38 -14 -129 -137q-95 -129 -141 -201q-117 -188 -117 -329zM219 1153q4 46 94 107.5t186 101t126 35.5q41 0 104.5 -75.5 t108.5 -157t45 -105.5q-5 -12 -30.5 -35t-37.5 -23q-27 2 -56 41t-48.5 85t-42 85t-37.5 41q-25 2 -66 -19t-82.5 -52t-79 -62t-63 -52.5t-27.5 -20.5q-33 0 -65 33.5t-29 72.5z" />
<glyph unicode="&#xf5;" horiz-adv-x="884" d="M27 238q0 15 14.5 80t32.5 108q37 84 128 224.5t132 140.5q12 0 13.5 -5t8.5 -6q4 12 0.5 22t2 24.5t22.5 27.5q117 73 194 64q26 -6 56 -19q61 -33 94 -74q39 -63 53.5 -118.5t12.5 -122.5q-2 -75 -31.5 -165t-80.5 -175.5t-113 -157t-137 -115t-146 -43.5 q-62 2 -113.5 36t-81 83.5t-45.5 99.5t-16 91zM186 158q0 -72 35 -92q95 26 199 132t171.5 230.5t70.5 210.5q-3 91 -19 123q-28 76 -70 63q-38 -14 -129 -137q-95 -129 -141 -201q-117 -188 -117 -329zM252 1276q7 60 94.5 97.5t165.5 29.5q45 -7 89.5 -37t80.5 -58.5 t63 -31.5q32 -2 67 11.5t58.5 30.5t43 33t20.5 17q22 0 38 -14t17 -43l-6 -29l-18 -45q-87 -126 -209 -100q-74 20 -123 69q-50 50 -96 58q-34 6 -59 -2.5t-40 -25t-27.5 -33t-27.5 -28t-33 -8.5q-32 5 -67 43t-31 66z" />
<glyph unicode="&#xf6;" horiz-adv-x="884" d="M27 238q0 15 14.5 80t32.5 108q37 84 128 224.5t132 140.5q12 0 13.5 -5t8.5 -6q4 12 0.5 22t2 24.5t22.5 27.5q117 73 194 64q26 -6 56 -19q61 -33 94 -74q39 -63 53.5 -118.5t12.5 -122.5q-2 -75 -31.5 -165t-80.5 -175.5t-113 -157t-137 -115t-146 -43.5 q-62 2 -113.5 36t-81 83.5t-45.5 99.5t-16 91zM186 158q0 -72 35 -92q95 26 199 132t171.5 230.5t70.5 210.5q-3 91 -19 123q-28 76 -70 63q-38 -14 -129 -137q-95 -129 -141 -201q-117 -188 -117 -329zM315 1204q3 11 10 20.5t14 15.5t26 22q9 7 26 17.5t25 16.5 q24 12 75 -1.5t60 -32.5q8 -26 -11.5 -58t-62.5 -57q-80 -52 -141 18q-5 3 -12 13q-11 18 -9 26zM678 1194q4 16 13 25.5t36 31.5q9 8 26 18.5t25 16.5q24 12 75 -2t60 -33q8 -26 -11 -57.5t-62 -56.5q-81 -53 -142 18q-6 3 -12 12q-10 17 -8 27z" />
<glyph unicode="&#xf7;" horiz-adv-x="1157" d="M229 535q0 30 25 45q88 11 247.5 22t273 16t134.5 5q45 0 115.5 -28.5t87.5 -53.5q-5 -21 -20.5 -42t-32.5 -22q-64 -7 -292.5 -24.5t-342.5 -30.5q-2 -1 -52 -1q-9 0 -5 -1q-53 -4 -95.5 34t-42.5 81zM330 123q0 15 12.5 30t36.5 15q52 0 110 -39t58 -86 q0 -29 -31.5 -55.5t-56.5 -26.5q-51 0 -90 60t-39 102zM606 954v33q16 23 56 23q71 0 112 -29.5t41 -79.5q0 -31 -28 -64.5t-52 -33.5q-16 0 -32 9.5t-27.5 21.5t-24.5 33t-19 32.5t-16 32.5t-10 22z" />
<glyph unicode="&#xf8;" horiz-adv-x="884" d="M27 238q0 15 14.5 80t32.5 108q37 84 128 224.5t132 140.5q12 0 13.5 -5t8.5 -6q4 12 0.5 22t2 24.5t22.5 27.5q117 73 194 64l31 -9l53 99l25 6q29 0 56.5 -30t27.5 -52q0 -3 -20 -39l-33 -57l10 -11q39 -63 53.5 -118.5t12.5 -122.5q-2 -75 -31.5 -165t-80.5 -175.5 t-113 -157t-137 -115t-146 -43.5q-35 3 -70 15l-18 -70q-15 -19 -41 -16q-27 0 -51.5 39t-18.5 49q4 24 22 59l5 10q-18 22 -23 31q-61 94 -61 193zM186 156l35 59q83 148 160 274q0 -5 57 107l31 57q35 59 45 86l41 74q-35 -24 -111 -125q-95 -129 -141 -201 q-117 -188 -117 -329v-2zM287 92q37 19 86 62q114 98 200 243t89 242q-3 55 -9 90q-8 -16 -35 -61q-211 -366 -233 -406q-21 -35 -98 -170z" />
<glyph unicode="&#xf9;" horiz-adv-x="1058" d="M59 166q0 54 14 118t46.5 145.5t49 119.5t56.5 123q7 16 11 24q3 3 12 5t12 6q-1 20 7 44.5t16 24.5q9 0 10.5 -4t9.5 -4q0 15 14 106q2 0 6 4.5t17 4.5q33 0 81 -30.5t48 -55.5l-15 -25q-14 -26 -37.5 -68.5t-52 -96.5t-57 -117t-52 -124t-38 -122.5t-14.5 -108.5 q0 -49 18 -49q54 0 197 161t265.5 339t135.5 233q4 13 19 20t30 7q17 0 63 -34.5t46 -41.5q0 -10 -10 -26.5t-11 -18.5q-50 -102 -82 -174t-63 -177.5t-31 -185.5q0 -19 10 -57.5t25 -44.5q12 4 28.5 14.5t33 23t37 30.5t36.5 32.5t36 34t30.5 30l25 25l15.5 15.5 q14 -8 47 -8q8 0 9 2t-1.5 4.5t0.5 5.5q-3 52 80 131h29q0 -3 4 -9t4 -16q0 -25 -21.5 -76.5t-42 -89.5t-24.5 -42q-3 -3 -17.5 -7t-23.5 -14q-11 -37 -70 -109t-117 -90q-41 -14 -65 -14q-55 0 -123 58.5t-80 117.5q-19 100 -20 133q-99 -132 -271 -276q-61 -24 -114.5 -16 t-89.5 28t-52 45q-16 22 -27.5 61t-11.5 56zM296 1421.5q9 43.5 17 51.5q7 7 31 4l21 -4q28 0 126 -60t186.5 -133.5t88.5 -105.5q0 -21 -15 -35.5t-28 -14.5q-59 0 -228.5 92.5t-197.5 137.5q-10 24 -1 67.5z" />
<glyph unicode="&#xfa;" horiz-adv-x="1058" d="M59 166q0 54 14 118t46.5 145.5t49 119.5t56.5 123q7 16 11 24q3 3 12 5t12 6q-1 20 7 44.5t16 24.5q9 0 10.5 -4t9.5 -4q0 15 14 106q2 0 6 4.5t17 4.5q33 0 81 -30.5t48 -55.5l-15 -25q-14 -26 -37.5 -68.5t-52 -96.5t-57 -117t-52 -124t-38 -122.5t-14.5 -108.5 q0 -49 18 -49q54 0 197 161t265.5 339t135.5 233q4 13 19 20t30 7q17 0 63 -34.5t46 -41.5q0 -10 -10 -26.5t-11 -18.5q-50 -102 -82 -174t-63 -177.5t-31 -185.5q0 -19 10 -57.5t25 -44.5q12 4 28.5 14.5t33 23t37 30.5t36.5 32.5t36 34t30.5 30l25 25l15.5 15.5 q14 -8 47 -8q8 0 9 2t-1.5 4.5t0.5 5.5q-3 52 80 131h29q0 -3 4 -9t4 -16q0 -25 -21.5 -76.5t-42 -89.5t-24.5 -42q-3 -3 -17.5 -7t-23.5 -14q-11 -37 -70 -109t-117 -90q-41 -14 -65 -14q-55 0 -123 58.5t-80 117.5q-19 100 -20 133q-99 -132 -271 -276q-61 -24 -114.5 -16 t-89.5 28t-52 45q-16 22 -27.5 61t-11.5 56zM600 1167q5 30 137 102t156 72q8 0 10.5 -3t14.5 -3q9 0 67 23.5t68 23.5q19 0 33 -24.5t14 -36.5q0 -15 -95.5 -77t-190.5 -116.5t-97 -54.5q-29 0 -75 33t-42 61z" />
<glyph unicode="&#xfb;" horiz-adv-x="1058" d="M59 166q0 54 14 118t46.5 145.5t49 119.5t56.5 123q7 16 11 24q3 3 12 5t12 6q-1 20 7 44.5t16 24.5q9 0 10.5 -4t9.5 -4q0 15 14 106q2 0 6 4.5t17 4.5q33 0 81 -30.5t48 -55.5l-15 -25q-14 -26 -37.5 -68.5t-52 -96.5t-57 -117t-52 -124t-38 -122.5t-14.5 -108.5 q0 -49 18 -49q54 0 197 161t265.5 339t135.5 233q4 13 19 20t30 7q17 0 63 -34.5t46 -41.5q0 -10 -10 -26.5t-11 -18.5q-50 -102 -82 -174t-63 -177.5t-31 -185.5q0 -19 10 -57.5t25 -44.5q12 4 28.5 14.5t33 23t37 30.5t36.5 32.5t36 34t30.5 30l25 25l15.5 15.5 q14 -8 47 -8q8 0 9 2t-1.5 4.5t0.5 5.5q-3 52 80 131h29q0 -3 4 -9t4 -16q0 -25 -21.5 -76.5t-42 -89.5t-24.5 -42q-3 -3 -17.5 -7t-23.5 -14q-11 -37 -70 -109t-117 -90q-41 -14 -65 -14q-55 0 -123 58.5t-80 117.5q-19 100 -20 133q-99 -132 -271 -276q-61 -24 -114.5 -16 t-89.5 28t-52 45q-16 22 -27.5 61t-11.5 56zM362 1188q4 46 94 107.5t186 101t126 35.5q41 0 104.5 -75.5t108.5 -157t45 -105.5q-5 -12 -30.5 -35t-37.5 -23q-27 2 -56 41t-48.5 85t-42 85t-37.5 41q-40 3 -116.5 -50t-137 -105.5t-63.5 -51.5q-33 0 -65.5 34t-29.5 73z " />
<glyph unicode="&#xfc;" horiz-adv-x="1058" d="M59 166q0 54 14 118t46.5 145.5t49 119.5t56.5 123q7 16 11 24q3 3 12 5t12 6q-1 20 7 44.5t16 24.5q9 0 10.5 -4t9.5 -4q0 15 14 106q2 0 6 4.5t17 4.5q33 0 81 -30.5t48 -55.5l-15 -25q-14 -26 -37.5 -68.5t-52 -96.5t-57 -117t-52 -124t-38 -122.5t-14.5 -108.5 q0 -49 18 -49q54 0 197 161t265.5 339t135.5 233q4 13 19 20t30 7q17 0 63 -34.5t46 -41.5q0 -10 -10 -26.5t-11 -18.5q-50 -102 -82 -174t-63 -177.5t-31 -185.5q0 -19 10 -57.5t25 -44.5q12 4 28.5 14.5t33 23t37 30.5t36.5 32.5t36 34t30.5 30l25 25l15.5 15.5 q14 -8 47 -8q8 0 9 2t-1.5 4.5t0.5 5.5q-3 52 80 131h29q0 -3 4 -9t4 -16q0 -25 -21.5 -76.5t-42 -89.5t-24.5 -42q-3 -3 -17.5 -7t-23.5 -14q-11 -37 -70 -109t-117 -90q-41 -14 -65 -14q-55 0 -123 58.5t-80 117.5q-19 100 -20 133q-99 -132 -271 -276q-61 -24 -114.5 -16 t-89.5 28t-52 45q-16 22 -27.5 61t-11.5 56zM449 1208q4 16 13.5 26.5t35.5 31.5q9 7 26 17.5t25 16.5q24 12 75 -1.5t60 -32.5q8 -26 -11.5 -58t-62.5 -57q-80 -52 -141 18q-5 2 -12 13q-10 17 -8 26zM811 1198q4 16 13 25.5t36 31.5q9 8 26 18.5t25 16.5q24 12 75.5 -2 t60.5 -33q8 -26 -11.5 -57.5t-62.5 -56.5q-81 -53 -142 18q-6 3 -12 12q-10 17 -8 27z" />
<glyph unicode="&#xfd;" horiz-adv-x="1083" d="M-989 -500q5 67 56.5 131.5t125.5 75.5q2 -2 4.5 -4t2.5 -3t1 -5t0 -10q-1 -14 -6.5 -21t-5.5 -8q-35 -78 -35 -105q-7 -89 30 -183t101.5 -171t142 -140.5t155 -101t136.5 -42.5q111 -7 213.5 30t182 102t152.5 161.5t126 195.5t100.5 218t78 215.5t57.5 201t39 161 t22 108.5v1l-10 15q-7 -13 -79 -90.5t-173 -164.5t-158 -102q-16 -6 -23 -6t-36 10q-53 23 -104 95t-46 114q0 29 36 154t91 246.5t95 117.5q21 -2 54 -18t50 -37q-9 -34 -83.5 -203.5t-80.5 -251.5l-2 -51q1 0 5 -3.5t18 -4.5q24 -3 84 46.5t114 106.5t115.5 124t69.5 75 q24 41 82.5 121t83.5 121q30 47 76 144.5t71 140.5l25 -2q26 0 70 -36.5t44 -60.5q-4 -41 -67 -151t-66 -119q-41 -130 -101.5 -380t-84.5 -339q-17 -57 -35.5 -113.5t-52 -144t-68.5 -166.5t-85.5 -171.5t-103.5 -168.5t-121.5 -147.5t-140 -119.5t-158 -74t-177.5 -19 q-80 6 -174.5 39t-185.5 84.5t-175 120.5t-146.5 143.5t-97 158t-28.5 160.5zM612 1319q5 30 137 102t156 72q8 0 10.5 -3t14.5 -3q9 0 67 23.5t68 23.5q19 0 33 -24.5t14 -36.5q0 -15 -95.5 -77t-190.5 -116.5t-97 -54.5q-29 0 -75 33t-42 61z" />
<glyph unicode="&#xfe;" horiz-adv-x="1081" d="M-109 -291q0 14 5.5 19t5.5 6q-6 29 8 100q1 8 18 26.5t23 28.5q2 5 -2 12t-8 7q57 218 239 663q175 456 211 631q4 10 27 21.5t37 11.5q32 0 64 -27.5t32 -52.5q0 -9 -22 -78t-25 -106q67 -7 132 -27t123.5 -54.5t102.5 -79t70 -103.5t26 -125q0 -100 -63 -210 t-155 -196.5t-197.5 -149t-190.5 -77.5q-43 -6 -64 -5t-42 5t-25 4q-18 0 -49.5 14.5t-42.5 32.5q-33 -50 -53 -145q0 -35 -22 -134.5t-52 -99.5q-24 0 -67.5 30t-43.5 58zM182 143q0 -14 2 -31.5t12.5 -39t28.5 -21.5q95 12 186 60t159 114t120.5 141.5t79.5 148t27 128.5 q0 72 -55.5 135.5t-143.5 63.5q-31 0 -49.5 -1.5t-46.5 -9.5t-44.5 -23.5t-30.5 -46.5t-17 -75q-1 -15 -24 -34.5t-24 -20.5q-39 -56 -109.5 -255.5t-70.5 -232.5z" />
<glyph unicode="&#xff;" horiz-adv-x="1083" d="M-989 -500q5 67 56.5 131.5t125.5 75.5q2 -2 4.5 -4t2.5 -3t1 -5t0 -10q-1 -14 -6.5 -21t-5.5 -8q-35 -78 -35 -105q-7 -89 30 -183t101.5 -171t142 -140.5t155 -101t136.5 -42.5q111 -7 213.5 30t182 102t152.5 161.5t126 195.5t100.5 218t78 215.5t57.5 201t39 161 t22 108.5v1l-10 15q-7 -13 -79 -90.5t-173 -164.5t-158 -102q-16 -6 -23 -6t-36 10q-53 23 -104 95t-46 114q0 29 36 154t91 246.5t95 117.5q21 -2 54 -18t50 -37q-9 -34 -83.5 -203.5t-80.5 -251.5l-2 -51q1 0 5 -3.5t18 -4.5q24 -3 84 46.5t114 106.5t115.5 124t69.5 75 q24 41 82.5 121t83.5 121q30 47 76 144.5t71 140.5l25 -2q26 0 70 -36.5t44 -60.5q-4 -41 -67 -151t-66 -119q-41 -130 -101.5 -380t-84.5 -339q-17 -57 -35.5 -113.5t-52 -144t-68.5 -166.5t-85.5 -171.5t-103.5 -168.5t-121.5 -147.5t-140 -119.5t-158 -74t-177.5 -19 q-80 6 -174.5 39t-185.5 84.5t-175 120.5t-146.5 143.5t-97 158t-28.5 160.5zM268 1362q0 4 9.5 13t15.5 11q76 11 230 34t261.5 39t118.5 16q12 0 37 -7.5t33 -7.5q4 0 6 1t1.5 2t0 2t2.5 2t8 1h16q45 0 67 -1.5t51.5 -8t45.5 -23t25 -44.5q-45 -1 -95 -8t-127.5 -21.5 t-99.5 -18.5q-22 -3 -84.5 -25t-78.5 -22q-12 0 -13.5 4.5t-9.5 4.5q-9 0 -28 -14.5t-23 -16.5q-197 -45 -225 -45q-86 0 -144 133z" />
<glyph unicode="&#x152;" horiz-adv-x="2023" d="M94 270q0 239 115 500q112 259 180 379q44 78 99.5 154.5t102 130t87.5 96.5t64.5 67.5t23.5 28.5q0 13 -28 40t-29 32q-7 15 13.5 24t39.5 9q34 0 85.5 -25t103.5 -63.5t82.5 -62.5t53.5 -44l48 -43l32 4l39 8q8 3 31 4t55.5 3t53.5 4q141 9 194 1t89.5 -22t51.5 -14 q12 0 19 9t18 9q6 0 65.5 -8.5t137.5 -18t123 -12.5q8 -1 32.5 -21t32.5 -20q11 0 18 9.5t19 9.5q20 0 46 -17.5t32 -40.5q-1 -1 -6 -8t-11 -11t-17 -10t-30 -9t-44 -3l-420 27h-121q-116 0 -170 -10q7 -7 27.5 -21.5t31.5 -28.5t11 -32q0 -9 -46 -88t-109 -189t-93 -174h88 l450 31q31 0 56 -14q8 -13 4 -33l-6 -12q-1 -1 -9.5 -12.5t-18 -19.5t-19.5 -11q-55 -19 -154.5 -37.5t-120.5 -18.5q-11 0 -15 4.5t-16 4.5q-17 0 -129.5 -16.5t-181.5 -31.5q-104 -152 -104 -368q0 -45 2 -73.5t10 -64t23.5 -55.5t45 -33.5t70.5 -11.5q132 4 326.5 98.5 t296.5 196.5q31 24 77.5 72t80.5 75t63 27q12 0 19 -4.5t9 -14t2.5 -17t-0.5 -19.5t-1 -16q0 -12 -13.5 -30.5t-36 -43t-28.5 -31.5q-96 -105 -210 -198t-243.5 -159.5t-226.5 -66.5h-41q-127 0 -217.5 66.5t-132.5 177.5q-18 56 -23 96q-53 -74 -110 -137 q-220 -240 -392 -240q-68 0 -123 27.5t-88.5 70t-56 96t-31 101.5t-8.5 92zM246 219q0 -20 5.5 -51t17 -67t34 -61.5t51.5 -25.5q76 0 167.5 67t175 173.5t162 239.5t134.5 262t87.5 245.5t25.5 186.5q-3 25 -15 70t-33.5 103.5t-57 100t-76.5 41.5q-52 0 -132.5 -89.5 t-159 -219.5t-151.5 -268t-120.5 -241t-55.5 -134q-59 -169 -59 -332zM1235 1341l4 -14q13 -30 23 -63l36 63v25l2 2q0 4 -14 4q-9 0 -24 -6q-19 -9 -27 -11z" />
<glyph unicode="&#x153;" horiz-adv-x="1425" d="M27 238q0 15 14.5 80t32.5 108q37 84 128 224.5t132 140.5q12 0 13.5 -5t8.5 -6q4 12 0.5 22t2 24.5t22.5 27.5q117 73 194 64q26 -6 56 -19q61 -33 94 -74q37 -59 53 -118q54 66 78 90q127 127 229 127q9 0 24.5 -11.5t23.5 -11.5q11 0 12 7t12 7q37 0 88 -48.5 t51 -78.5q0 -26 -6 -53t-21.5 -59.5t-22.5 -47t-30 -52.5t-24 -39q-22 -37 -155 -164t-165 -127q-35 0 -112 65q-11 -23 -18 -64t-7 -59q0 -70 35 -119t107 -49q68 0 211.5 71t265.5 152t155 119q13 0 25 -9t12 -25q0 -27 -16 -50.5t-36 -39.5t-40.5 -45t-28.5 -64l-18 16 h-21q-11 0 -12.5 -12.5t4.5 -23.5q-14 -10 -46 -37t-56 -41q-12 -7 -45 -14.5t-45 -14.5q-5 -2 -25 -24.5t-39 -30.5q-360 -114 -504 125q-12 20 -24 47q-38 -45 -74 -78q-116 -113 -237 -113q-62 2 -113.5 36t-81 83.5t-45.5 99.5t-16 91zM186 158q0 -72 35 -92 q95 26 199 132t171.5 230.5t70.5 210.5q-3 91 -19 123q-28 76 -70 63q-38 -14 -129 -137q-95 -129 -141 -201q-117 -188 -117 -329zM791 403q75 31 196 164t137 215h-26q-48 -23 -123.5 -99t-136.5 -175q-11 -16 -23 -43q-17 -28 -24 -62z" />
<glyph unicode="&#x178;" horiz-adv-x="1497" d="M-721 84q0 53 22 112.5t72 109t115 54.5q2 -2 23.5 -10t21.5 -22q0 -1 -8.5 -20.5t-21 -50.5t-25 -66.5t-21 -75t-8.5 -68.5q-2 -92 31 -198.5t90.5 -207.5t137.5 -196t169 -166.5t189 -115.5t192 -46q73 -1 141 26.5t120 70t103.5 110t85.5 127t70.5 142t55.5 133.5 t44.5 123t32.5 90q48 131 81 225.5t61 180t40 123.5t41.5 136t41.5 139q-19 -30 -89 -104t-168 -166t-199 -176t-193.5 -137.5t-139.5 -46.5q-43 9 -77 28.5t-55.5 41t-37 53.5t-23 56t-11.5 58.5t-4.5 51.5t-0.5 44q0 292 354 1045q3 27 70 -4q64 -30 93 -66q14 -18 7 -28 q-1 -1 -37.5 -53t-50.5 -76q-99 -183 -158.5 -321.5t-109.5 -324.5q-22 -104 -22 -182q0 -5 -0.5 -23.5t0 -25.5t2 -23.5t5 -27.5t10 -26.5t15.5 -30.5q47 -20 210 93.5t368.5 312.5t357.5 398q17 23 76.5 158.5t119 250t91.5 114.5q56 0 97.5 -46t41.5 -96 q-1 -41 -51.5 -121.5t-108.5 -155.5t-59 -77q-8 -13 -36 -49t-36 -53q-61 -149 -168.5 -473t-218.5 -645t-196 -504q-69 -148 -221 -260.5t-281 -112.5q-15 0 -80.5 8t-79.5 12q-92 16 -241 101q-179 82 -334.5 246.5t-243 353.5t-84.5 350zM848 1925q4 16 13 25.5t36 31.5 q9 8 26 18.5t25 16.5q24 12 75 -2t60 -33q8 -26 -11 -57.5t-62 -56.5q-81 -53 -142 18q-6 3 -12 12q-10 17 -8 27zM1540 1950q4 16 13 25.5t36 31.5q9 8 26 18.5t25 16.5q24 12 75.5 -2t60.5 -33q8 -26 -11.5 -58t-62.5 -57q-79 -52 -141 19q-7 4 -13 12q-10 17 -8 27z" />
<glyph unicode="&#x2c6;" horiz-adv-x="780" d="M84 1147q4 46 93.5 107.5t185.5 101t126 35.5q41 0 105 -75.5t109 -157t45 -105.5q-5 -12 -30.5 -35t-37.5 -23q-27 2 -56 41t-48.5 85t-42 85t-37.5 41q-40 3 -117 -50t-137.5 -105.5t-63.5 -51.5q-33 0 -65 34t-29 73z" />
<glyph unicode="&#x2dc;" horiz-adv-x="843" d="M57 1421q7 60 94.5 97.5t165.5 29.5q45 -7 89.5 -37t81 -58.5t63.5 -31.5q32 -2 67 11.5t58 30.5t42.5 33t20.5 17q22 0 38.5 -14t17.5 -43l-7 -29l-18 -45q-87 -126 -209 -100q-73 20 -123 70q-49 49 -96 57q-34 6 -59 -2.5t-39.5 -24.5t-27 -33t-27.5 -28t-33 -8 q-32 5 -67.5 42.5t-31.5 65.5z" />
<glyph unicode="&#x2000;" horiz-adv-x="1093" />
<glyph unicode="&#x2001;" horiz-adv-x="2187" />
<glyph unicode="&#x2002;" horiz-adv-x="1093" />
<glyph unicode="&#x2003;" horiz-adv-x="2187" />
<glyph unicode="&#x2004;" horiz-adv-x="729" />
<glyph unicode="&#x2005;" horiz-adv-x="546" />
<glyph unicode="&#x2006;" horiz-adv-x="364" />
<glyph unicode="&#x2007;" horiz-adv-x="364" />
<glyph unicode="&#x2008;" horiz-adv-x="273" />
<glyph unicode="&#x2009;" horiz-adv-x="437" />
<glyph unicode="&#x200a;" horiz-adv-x="121" />
<glyph unicode="&#x2010;" horiz-adv-x="1097" d="M135 614q9 15 215 27q111 8 205 10l19 -1h36.5t28.5 1q6 1 69 -0.5t103 2.5l16 19q33 -9 50 -39q1 1 3 4.5t2.5 4.5t3 3.5t5 3.5t6.5 2.5t10 1.5q17 1 54 -12.5t63 -30.5q5 -9 5 -17t-1.5 -11t-8 -11.5t-7.5 -9.5q-40 4 -71 -5.5t-46 -21.5t-16 -12q-9 -1 -21.5 6.5 t-21.5 6.5q-12 0 -28.5 -14.5t-27.5 -14.5l-557 -45q-41 4 -70 65.5t-18 87.5z" />
<glyph unicode="&#x2011;" horiz-adv-x="1097" d="M135 614q9 15 215 27q111 8 205 10l19 -1h36.5t28.5 1q6 1 69 -0.5t103 2.5l16 19q33 -9 50 -39q1 1 3 4.5t2.5 4.5t3 3.5t5 3.5t6.5 2.5t10 1.5q17 1 54 -12.5t63 -30.5q5 -9 5 -17t-1.5 -11t-8 -11.5t-7.5 -9.5q-40 4 -71 -5.5t-46 -21.5t-16 -12q-9 -1 -21.5 6.5 t-21.5 6.5q-12 0 -28.5 -14.5t-27.5 -14.5l-557 -45q-41 4 -70 65.5t-18 87.5z" />
<glyph unicode="&#x2012;" horiz-adv-x="1097" d="M135 614q9 15 215 27q111 8 205 10l19 -1h36.5t28.5 1q6 1 69 -0.5t103 2.5l16 19q33 -9 50 -39q1 1 3 4.5t2.5 4.5t3 3.5t5 3.5t6.5 2.5t10 1.5q17 1 54 -12.5t63 -30.5q5 -9 5 -17t-1.5 -11t-8 -11.5t-7.5 -9.5q-40 4 -71 -5.5t-46 -21.5t-16 -12q-9 -1 -21.5 6.5 t-21.5 6.5q-12 0 -28.5 -14.5t-27.5 -14.5l-557 -45q-41 4 -70 65.5t-18 87.5z" />
<glyph unicode="&#x2013;" horiz-adv-x="1097" d="M135 614q9 15 215 27q111 8 205 10l19 -1h36.5t28.5 1q6 1 69 -0.5t103 2.5l16 19q33 -9 50 -39q1 1 3 4.5t2.5 4.5t3 3.5t5 3.5t6.5 2.5t10 1.5q17 1 54 -12.5t63 -30.5q5 -9 5 -17t-1.5 -11t-8 -11.5t-7.5 -9.5q-40 4 -71 -5.5t-46 -21.5t-16 -12q-9 -1 -21.5 6.5 t-21.5 6.5q-12 0 -28.5 -14.5t-27.5 -14.5l-557 -45q-41 4 -70 65.5t-18 87.5z" />
<glyph unicode="&#x2014;" horiz-adv-x="1239" d="M135 614q9 15 215 27q70 5 324 8l18 -1h37.5t28.5 1q6 1 69 -0.5t103 2.5l16 19q32 -8 49 -39q0 1 2 4t2.5 4t2.5 3.5t4 3t5 2t6.5 2.5t8.5 1q17 1 54 -12.5t63 -30.5q5 -9 5 -17t-2 -11.5t-8.5 -11t-7.5 -9.5q-40 4 -71 -5.5t-46 -21.5t-16 -12q-9 -1 -21.5 6t-21.5 6 q-12 0 -28 -14t-27 -14l-676 -43q-41 4 -70 65.5t-18 87.5z" />
<glyph unicode="&#x2018;" horiz-adv-x="362" d="M109 1272q0 22 20 108t56.5 174t70.5 88q49 0 77.5 -27t28.5 -50q0 -7 -6 -23t-18.5 -43.5t-18.5 -40.5q-37 -67 -52 -113t-20.5 -88.5t-10.5 -62.5q-4 -8 -16 -13.5t-20.5 -7.5t-11.5 -2q-27 0 -44 8t-24 25t-9 31t-2 37z" />
<glyph unicode="&#x2019;" horiz-adv-x="362" d="M109 1272q0 22 20 108t56.5 174t70.5 88q49 0 77.5 -27t28.5 -50q0 -7 -6 -23t-18.5 -43.5t-18.5 -40.5q-37 -67 -52 -113t-20.5 -88.5t-10.5 -62.5q-4 -8 -16 -13.5t-20.5 -7.5t-11.5 -2q-27 0 -44 8t-24 25t-9 31t-2 37z" />
<glyph unicode="&#x201a;" horiz-adv-x="425" d="M82 -180q7 21 27.5 58t35 84t21.5 122q22 105 27 111q9 21 47.5 25t85.5 -23q21 -16 12.5 -74.5t-31 -125.5t-46 -122.5t-32.5 -64.5q-14 -20 -23 -29.5t-24 -19t-33.5 -5.5t-42.5 19q-2 0 -8.5 7.5t-12.5 18.5t-3 19z" />
<glyph unicode="&#x201c;" horiz-adv-x="604" d="M92 1239q5 44 33 138.5t74 186t86 87.5q26 0 69.5 -40.5t26.5 -66.5q-45 -61 -102.5 -178.5t-81.5 -181.5q-19 -27 -59.5 -1t-45.5 56zM326 1252v3q4 28 19.5 83t41 126t62.5 121t75 47q21 0 57.5 -29t36.5 -44q0 -16 -69 -105q-69 -117 -98 -219q-3 -23 -13 -39 q-21 -34 -49 -25q-64 15 -63 81z" />
<glyph unicode="&#x201d;" horiz-adv-x="604" d="M92 1239q5 44 33 138.5t74 186t86 87.5q26 0 69.5 -40.5t26.5 -66.5q-45 -61 -102.5 -178.5t-81.5 -181.5q-19 -27 -59.5 -1t-45.5 56zM326 1252v3q4 28 19.5 83t41 126t62.5 121t75 47q21 0 57.5 -29t36.5 -44q0 -16 -69 -105q-69 -117 -98 -219q-3 -23 -13 -39 q-21 -34 -49 -25q-64 15 -63 81z" />
<glyph unicode="&#x201e;" horiz-adv-x="638" d="M61 -145q5 44 33 138.5t74 185.5t86 87q27 0 70 -40t26 -66q-45 -61 -102.5 -178.5t-81.5 -182.5q-19 -27 -59.5 -0.5t-45.5 56.5zM295 -129q4 27 19.5 82.5t41 126.5t63 121t75.5 47q21 0 57.5 -29.5t36.5 -44.5q0 -14 -70 -104q-68 -116 -98 -220q-3 -24 -12 -38 q-21 -34 -50 -25q-64 15 -63 81v1.5v1.5z" />
<glyph unicode="&#x2022;" horiz-adv-x="671" d="M195 733q0 23 14 55t33 56q55 57 110.5 77.5t104.5 -1.5q26 -15 43.5 -29t35 -41.5t17.5 -58.5q0 -66 -17 -112t-65 -85q-8 -8 -25 -18.5t-43 -21.5t-58.5 -10t-61.5 17q-88 42 -88 172z" />
<glyph unicode="&#x2026;" horiz-adv-x="1067" d="M123 37q3 12 10 22t12.5 15.5t26.5 23.5q9 9 26 20.5t25 18.5q23 12 75.5 -2.5t59.5 -36.5q8 -27 -11 -61t-62 -64q-80 -55 -142 21q-4 2 -12 14q-10 17 -8 29zM446 29q1 4 2 7.5t3 7t3.5 6t5 6.5t5 5.5t6.5 6t7 6.5t8.5 7.5t9.5 8.5q9 9 26 20.5t25 18.5 q23 12 75.5 -2.5t59.5 -36.5q8 -27 -11.5 -61t-62.5 -64q-80 -54 -141 21q-4 2 -12 14q-11 19 -9 29zM766 35q3 12 10 22t12.5 15.5t26.5 23.5q9 9 26 20.5t25 18.5q23 12 75.5 -2.5t59.5 -36.5q8 -27 -11 -61t-62 -64q-80 -55 -142 21q-4 2 -12 14q-10 17 -8 29z" />
<glyph unicode="&#x202f;" horiz-adv-x="437" />
<glyph unicode="&#x2039;" horiz-adv-x="909" d="M182 477q-4 20 134.5 143.5t284.5 238t163 114.5q34 -5 84.5 -39.5t46.5 -56.5q-2 -13 -123 -110.5t-242 -204t-124 -142.5q-4 -28 25 -78t73.5 -104t89.5 -107t75.5 -98t28.5 -66q-2 -14 -18.5 -22t-28 -9.5t-18.5 -1.5q-57 6 -139.5 87.5t-149 179.5t-114.5 180.5 t-48 95.5z" />
<glyph unicode="&#x203a;" horiz-adv-x="942" d="M129 90q18 11 85 47.5t133 74t135.5 80t114 80t46.5 60.5q0 19 -77.5 125t-172 234t-121.5 182q-9 24 -10.5 35.5t10.5 33.5l31 5q31 -3 99.5 -79t137.5 -171t157 -213.5t139 -177.5q13 -16 10 -48q-4 -40 -155 -143t-301.5 -187.5t-164.5 -84.5q-54 4 -84.5 58t-11.5 89 z" />
<glyph unicode="&#x205f;" horiz-adv-x="546" />
<glyph unicode="&#x20ac;" horiz-adv-x="1243" d="M-8 639q21 17 82.5 25t99.5 8l16 39q1 5 3.5 12.5t3.5 11t1.5 8t-0.5 7t-3 4.5q-52 20 -71.5 42.5t-21.5 59.5l-6 45q9 15 38 23.5t38 -9.5l18 19q9 -4 19.5 -3.5t31 4t29.5 3.5q10 25 52 102q67 112 129 138q0 4 -4 18.5t-3 20.5q278 352 471 352q63 0 119 -34.5 t91 -86.5t55 -108t20 -103q0 -10 -4.5 -20t-16 -26.5t-16.5 -25.5q-7 -16 -33 -16q-14 0 -24 2q-31 14 -51.5 51.5t-28 73.5t-20.5 67.5t-31 36.5q-58 2 -132 -42.5t-139 -111.5t-119 -141.5t-79 -134.5q124 4 164 0q2 -1 7.5 -7.5t14.5 -12.5t19 -6q15 0 27.5 19.5 t25.5 19.5q10 0 55 -10.5t66 -10.5q20 -20 20 -41q0 -32 -43.5 -57t-112 -39t-131 -22t-123.5 -13t-67 -6q-15 -3 -27.5 -23t-22 -45t-9.5 -26q10 0 168 9t170 9q11 0 23 9.5t24 9.5q10 0 16 -5.5t13 -16t16 -17.5q4 0 8 4.5t8 12t8 11.5q8 2 24.5 -7.5t29.5 -22.5 q-12 -51 -52.5 -82t-102.5 -43.5t-124 -17.5t-140.5 -12t-129.5 -19l-6 -35q-5 -57 -5 -60q0 -19 3.5 -51.5t16 -84t31.5 -94.5t56 -74.5t84 -31.5h45q40 0 85.5 13.5t96 41.5t87 50.5t93 61.5t78.5 53q14 9 23.5 27t15 32t28.5 24.5t64 10.5q43 0 66 -23q0 -18 -10 -35 l-11 -14q-12 -11 -46 -46t-56 -54q-55 -65 -92.5 -102t-105.5 -80.5t-160 -79.5q-119 -23 -158 -23q-64 8 -123 37t-103 70.5t-82 92.5t-60 103.5t-38 104t-15 93t9 70.5q-32 -5 -58 4.5t-41 26t-26 40.5t-15.5 42t-6.5 37z" />
<glyph unicode="&#x25fc;" horiz-adv-x="921" d="M0 0v922h922v-922h-922z" />
</font>
</defs>
</svg>
