<svg xmlns="http://www.w3.org/2000/svg" width="368.02" height="335.161" viewBox="0 0 368.02 335.161"><path d="M335.161 0H32.859C14.742 0 0 14.742 0 32.859v269.444c0 18.117 14.742 32.859 32.859 32.859h302.303c18.117 0 32.859-14.742 32.859-32.859V32.859C368.02 14.742 353.278 0 335.161 0zm19.716 302.303c0 10.872-8.844 19.715-19.715 19.715H32.859c-10.872 0-19.715-8.844-19.715-19.715V105.149h341.733v197.154zm0-210.298H13.144V32.859c0-10.872 8.844-19.715 19.715-19.715h302.303c10.872 0 19.715 8.844 19.715 19.715v59.146z"/><path d="M64.896 127.342h51.541v40.168H64.896zM156.375 127.342h51.541v40.168h-51.541zM247.854 127.342h51.541v40.168h-51.541zM64.896 189.779h51.541v40.169H64.896zM156.375 189.779h51.541v40.169h-51.541zM247.854 189.779h51.541v40.169h-51.541zM64.896 252.751h51.541v40.169H64.896zM156.375 252.751h51.541v40.169h-51.541zM247.854 252.751h51.541v40.169h-51.541z"/></svg>