<?xml version="1.0" encoding="iso-8859-1"?>
<!-- Generator: Adobe Illustrator 17.0.2, SVG Export Plug-In . SVG Version: 6.00 Build 0)  -->
<!DOCTYPE svg PUBLIC "-//W3C//DTD SVG 1.1//EN" "http://www.w3.org/Graphics/SVG/1.1/DTD/svg11.dtd">
<svg version="1.1" xmlns="http://www.w3.org/2000/svg" xmlns:xlink="http://www.w3.org/1999/xlink" x="0px" y="0px"
	 width="368.02px" height="335.161px" viewBox="0 0 368.02 335.161" style="enable-background:new 0 0 368.02 335.161;"
	 xml:space="preserve">
<g id="calculator">
	<g>
		<path d="M335.161,0H32.859C14.742,0,0,14.742,0,32.859v269.444c0,18.117,14.742,32.859,32.859,32.859h302.303
			c18.117,0,32.859-14.742,32.859-32.859V32.859C368.02,14.742,353.278,0,335.161,0z M354.877,302.303
			c0,10.872-8.844,19.715-19.715,19.715H32.859c-10.872,0-19.715-8.844-19.715-19.715V105.149h341.733V302.303z M354.877,92.005
			H13.144V32.859c0-10.872,8.844-19.715,19.715-19.715h302.303c10.872,0,19.715,8.844,19.715,19.715V92.005z" />
		<rect x="64.896" y="127.342" width="51.541" height="40.168" />
		<rect x="156.375" y="127.342" width="51.541" height="40.168" />
		<rect x="247.854" y="127.342" width="51.541" height="40.168" />
		<rect x="64.896" y="189.779" width="51.541" height="40.169" />
		<rect x="156.375" y="189.779" width="51.541" height="40.169" />
		<rect x="247.854" y="189.779" width="51.541" height="40.169" />
		<rect x="64.896" y="252.751" width="51.541" height="40.169" />
		<rect x="156.375" y="252.751" width="51.541" height="40.169" />
		<rect x="247.854" y="252.751" width="51.541" height="40.169" />
	</g>
</g>
<g id="Layer_1">
</g>
</svg>
